<COLLADA xmlns="http://www.collada.org/2005/11/COLLADASchema" version="1.4.1">
  <asset>
    <contributor/>
    <created>2024-12-11T11:41:45.121942</created>
    <modified>2024-12-11T11:41:45.121949</modified>
    <unit name="meter" meter="1.0"/>
    <up_axis>Z_UP</up_axis>
  </asset>
  <library_effects>
    <effect id="effect_Body010" name="effect_Body010">
      <profile_COMMON>
        <technique sid="common">
          <phong>
            <emission>
              <color>0.0 0.0 0.0 1.0</color>
            </emission>
            <ambient>
              <color>0.0 0.0 0.0 1.0</color>
            </ambient>
            <diffuse>
              <color>1.0 1.0 1.0 1.0</color>
            </diffuse>
            <specular>
              <color>1 1 1 1.0</color>
            </specular>
            <shininess>
              <float>0.0</float>
            </shininess>
            <reflective>
              <color>0.0 0.0 0.0 1.0</color>
            </reflective>
            <reflectivity>
              <float>0.0</float>
            </reflectivity>
            <transparent>
              <color>0.0 0.0 0.0 1.0</color>
            </transparent>
            <transparency>
              <float>1.0</float>
            </transparency>
          </phong>
        </technique>
        <extra>
          <technique profile="GOOGLEEARTH">
            <double_sided>0</double_sided>
          </technique>
        </extra>
      </profile_COMMON>
    </effect>
  </library_effects>
  <library_geometries>
    <geometry id="geometry0" name="Body010">
      <mesh>
        <source id="cubeverts-array0">
          <float_array count="1512" id="cubeverts-array0-array">0.01455709 0.01649519 0.031 0.01284236 0.01786264 0.031 0.01371678 0.01720029 0.031 0.01536121 0.01574907 0.031 0.01612714 0.0149638 0.031 0.01753691 0.0132837 0.031 0.0187724 0.01147157 0.031 0.01685298 0.01414133 0.031 0.01817725 0.01239304 0.031 0.01932088 0.01052159 0.031 0.01193602 0.01848057 0.031 0.01003663 0.01957718 0.031 0.011 0.01905256 0.031 0.009048316 0.02005313 0.031 0.007006706 0.0208544 0.031 0.008037502 0.02047922 0.031 0.0210226 0.006484614 0.031 0.01982132 0.009545443 0.031 0.02027248 0.008545566 0.031 0.02067324 0.007524443 0.031 0.00595849 0.02117773 0.031 0.0213197 0.005428663 0.031 0.0215638 0.004359215 0.031 0.00382026 0.02166577 0.031 0.004895461 0.02144841 0.031 0.002735562 0.02182926 0.031 0.02175428 0.00327893 0.031 0.02189068 0.002190493 0.031 0.02197265 0.001096609 0.031 0.0005484752 0.02199316 0.031 0.001644062 0.02193848 0.031 -0.0005484752 0.02199316 0.031 0.02197265 -0.001096609 0.031 0.02175428 -0.00327893 0.031 0.022 0 0.031 0.02189068 -0.002190493 0.031 -0.001644062 0.02193848 0.031 -0.00382026 0.02166577 0.031 -0.002735562 0.02182926 0.031 0.0215638 -0.004359215 0.031 -0.00595849 0.02117773 0.031 -0.004895461 0.02144841 0.031 0.0210226 -0.006484614 0.031 0.0213197 -0.005428663 0.031 -0.009048316 0.02005313 0.031 -0.007006706 0.0208544 0.031 -0.008037502 0.02047922 0.031 0.02067324 -0.007524443 0.031 0.01932088 -0.01052159 0.031 0.02027248 -0.008545566 0.031 0.01982132 -0.009545443 0.031 0.0187724 -0.01147157 0.031 -0.01003663 0.01957718 0.031 -0.01193602 0.01848057 0.031 -0.011 0.01905256 0.031 0.01817725 -0.01239304 0.031 0.01753691 -0.0132837 0.031 -0.01371678 0.01720029 0.031 -0.01284236 0.01786264 0.031 -0.01455709 0.01649519 0.031 -0.01612714 0.0149638 0.031 -0.01536121 0.01574907 0.031 -0.01685298 0.01414133 0.031 0.01536121 -0.01574907 0.031 0.01284236 -0.01786264 0.031 0.01612714 -0.0149638 0.031 0.01455709 -0.01649519 0.031 0.01371678 -0.01720029 0.031 -0.0187724 0.01147157 0.031 -0.01753691 0.0132837 0.031 -0.01817725 0.01239304 0.031 -0.01932088 0.01052159 0.031 0.01003663 -0.01957718 0.031 0.009048316 -0.02005313 0.031 0.011 -0.01905256 0.031 0.008037502 -0.02047922 0.031 -0.02067324 0.007524443 0.031 -0.01982132 0.009545443 0.031 -0.02027248 0.008545566 0.031 0.01193602 -0.01848057 0.031 0.007006706 -0.0208544 0.031 -0.0213197 0.005428663 0.031 -0.0210226 0.006484614 0.031 -0.0215638 0.004359215 0.031 0.004895461 -0.02144841 0.031 0.002735562 -0.02182926 0.031 0.00595849 -0.02117773 0.031 0.00382026 -0.02166577 0.031 0.001644062 -0.02193848 0.031 -0.02175428 0.00327893 0.031 -0.02197265 0.001096609 0.031 -0.02189068 0.002190493 0.031 -0.022 7.546548e-17 0.031 0.0005484752 -0.02199316 0.031 -0.0005484752 -0.02199316 0.031 -0.02189068 -0.002190493 0.031 -0.02197265 -0.001096609 0.031 -0.002735562 -0.02182926 0.031 -0.001644062 -0.02193848 0.031 -0.02175428 -0.00327893 0.031 -0.00382026 -0.02166577 0.031 -0.004895461 -0.02144841 0.031 -0.0215638 -0.004359215 0.031 -0.0210226 -0.006484614 0.031 -0.0213197 -0.005428663 0.031 -0.00595849 -0.02117773 0.031 -0.008037502 -0.02047922 0.031 -0.007006706 -0.0208544 0.031 -0.02067324 -0.007524443 0.031 -0.01982132 -0.009545443 0.031 -0.02027248 -0.008545566 0.031 -0.009048316 -0.02005313 0.031 -0.01003663 -0.01957718 0.031 -0.01932088 -0.01052159 0.031 0.01685298 -0.01414133 0.031 -0.011 -0.01905256 0.031 -0.01193602 -0.01848057 0.031 -0.01284236 -0.01786264 0.031 -0.0187724 -0.01147157 0.031 -0.01753691 -0.0132837 0.031 -0.01817725 -0.01239304 0.031 -0.01371678 -0.01720029 0.031 -0.01685298 -0.01414133 0.031 -0.01612714 -0.0149638 0.031 -0.01536121 -0.01574907 0.031 -0.01455709 -0.01649519 0.031 0.02197265 -0.001096609 0.041 0.022 2.220446e-18 0.041 0.02189068 -0.002190493 0.041 0.02175428 -0.00327893 0.041 0.0215638 -0.004359215 0.041 0.0213197 -0.005428663 0.041 0.0210226 -0.006484614 0.041 0.02067324 -0.007524443 0.041 0.02027248 -0.008545566 0.041 0.01982132 -0.009545443 0.041 0.01932088 -0.01052159 0.041 0.0187724 -0.01147157 0.041 0.01817725 -0.01239304 0.041 0.01753691 -0.0132837 0.041 0.01685298 -0.01414133 0.041 0.01612714 -0.0149638 0.041 0.01536121 -0.01574907 0.041 0.01455709 -0.01649519 0.041 0.01371678 -0.01720029 0.041 0.01284236 -0.01786264 0.041 0.01193602 -0.01848057 0.041 0.011 -0.01905256 0.041 0.01003663 -0.01957718 0.041 0.009048316 -0.02005313 0.041 0.008037502 -0.02047922 0.041 0.007006706 -0.0208544 0.041 0.00595849 -0.02117773 0.041 0.004895461 -0.02144841 0.041 0.00382026 -0.02166577 0.041 0.002735562 -0.02182926 0.041 0.001644062 -0.02193848 0.041 0.0005484752 -0.02199316 0.041 -0.0005484752 -0.02199316 0.041 -0.001644062 -0.02193848 0.041 -0.002735562 -0.02182926 0.041 -0.00382026 -0.02166577 0.041 -0.004895461 -0.02144841 0.041 -0.00595849 -0.02117773 0.041 -0.007006706 -0.0208544 0.041 -0.008037502 -0.02047922 0.041 -0.009048316 -0.02005313 0.041 -0.01003663 -0.01957718 0.041 -0.011 -0.01905256 0.041 -0.01193602 -0.01848057 0.041 -0.01284236 -0.01786264 0.041 -0.01371678 -0.01720029 0.041 -0.01455709 -0.01649519 0.041 -0.01536121 -0.01574907 0.041 -0.01612714 -0.0149638 0.041 -0.01685298 -0.01414133 0.041 -0.01753691 -0.0132837 0.041 -0.01817725 -0.01239304 0.041 -0.0187724 -0.01147157 0.041 -0.01932088 -0.01052159 0.041 -0.01982132 -0.009545443 0.041 -0.02027248 -0.008545566 0.041 -0.02067324 -0.007524443 0.041 -0.0210226 -0.006484614 0.041 -0.0213197 -0.005428663 0.041 -0.0215638 -0.004359215 0.041 -0.02175428 -0.00327893 0.041 -0.02189068 -0.002190493 0.041 -0.02197265 -0.001096609 0.041 -0.022 7.768592e-17 0.041 -0.02197265 0.001096609 0.041 -0.02189068 0.002190493 0.041 -0.02175428 0.00327893 0.041 -0.0215638 0.004359215 0.041 -0.0213197 0.005428663 0.041 -0.0210226 0.006484614 0.041 -0.02067324 0.007524443 0.041 -0.02027248 0.008545566 0.041 -0.01982132 0.009545443 0.041 -0.01932088 0.01052159 0.041 -0.0187724 0.01147157 0.041 -0.01817725 0.01239304 0.041 -0.01753691 0.0132837 0.041 -0.01685298 0.01414133 0.041 -0.01612714 0.0149638 0.041 -0.01536121 0.01574907 0.041 -0.01455709 0.01649519 0.041 -0.01371678 0.01720029 0.041 -0.01284236 0.01786264 0.041 -0.01193602 0.01848057 0.041 -0.011 0.01905256 0.041 -0.01003663 0.01957718 0.041 -0.009048316 0.02005313 0.041 -0.008037502 0.02047922 0.041 -0.007006706 0.0208544 0.041 -0.00595849 0.02117773 0.041 -0.004895461 0.02144841 0.041 -0.00382026 0.02166577 0.041 -0.002735562 0.02182926 0.041 -0.001644062 0.02193848 0.041 -0.0005484752 0.02199316 0.041 0.0005484752 0.02199316 0.041 0.001644062 0.02193848 0.041 0.002735562 0.02182926 0.041 0.00382026 0.02166577 0.041 0.004895461 0.02144841 0.041 0.00595849 0.02117773 0.041 0.007006706 0.0208544 0.041 0.008037502 0.02047922 0.041 0.009048316 0.02005313 0.041 0.01003663 0.01957718 0.041 0.011 0.01905256 0.041 0.01193602 0.01848057 0.041 0.01284236 0.01786264 0.041 0.01371678 0.01720029 0.041 0.01455709 0.01649519 0.041 0.01536121 0.01574907 0.041 0.01612714 0.0149638 0.041 0.01685298 0.01414133 0.041 0.01753691 0.0132837 0.041 0.01817725 0.01239304 0.041 0.0187724 0.01147157 0.041 0.01932088 0.01052159 0.041 0.01982132 0.009545443 0.041 0.02027248 0.008545566 0.041 0.02067324 0.007524443 0.041 0.0210226 0.006484614 0.041 0.0213197 0.005428663 0.041 0.0215638 0.004359215 0.041 0.02175428 0.00327893 0.041 0.02189068 0.002190493 0.041 0.02197265 0.001096609 0.041 -0.005864415 0.005441382 0.041 -0.005585895 0.005726935 0.041 -0.005293487 0.00599825 0.041 -0.006128356 0.005142301 0.041 -0.004987918 0.006254652 0.041 -0.00637706 0.004830435 0.041 -0.00466995 0.006495504 0.041 -0.00660991 0.00450656 0.041 -0.00434037 0.006720207 0.041 -0.006826327 0.004171482 0.041 -0.004 0.006928203 0.041 -0.007025773 0.003826032 0.041 -0.003649685 0.007118975 0.041 -0.007207751 0.00347107 0.041 -0.003290297 0.007292047 0.041 -0.007371809 0.003107478 0.041 -0.002922728 0.00744699 0.041 -0.007517541 0.002736161 0.041 -0.002547893 0.007583419 0.041 -0.007644582 0.002358041 0.041 -0.002166724 0.007700994 0.041 -0.007752618 0.001974059 0.041 -0.001780167 0.007799423 0.041 -0.00784138 0.001585169 0.041 -0.001389185 0.007878462 0.041 -0.007910646 0.001192338 0.041 -0.0009947497 0.007937913 0.041 -0.007960246 0.0007965428 0.041 -0.0005978407 0.007977631 0.041 -0.007990056 0.0003987671 0.041 -0.0001994455 0.007997513 0.041 -0.008 2.966244e-17 0.041 0.0001994455 0.007997513 0.041 -0.007990056 -0.0003987671 0.041 0.0005978407 0.007977631 0.041 -0.007960246 -0.0007965428 0.041 0.0009947497 0.007937913 0.041 -0.007910646 -0.001192338 0.041 0.001389185 0.007878462 0.041 -0.00784138 -0.001585169 0.041 0.001780167 0.007799423 0.041 -0.007752618 -0.001974059 0.041 0.002166724 0.007700994 0.041 -0.007644582 -0.002358041 0.041 0.002547893 0.007583419 0.041 -0.007517541 -0.002736161 0.041 0.002922728 0.00744699 0.041 -0.007371809 -0.003107478 0.041 0.003290297 0.007292047 0.041 -0.007207751 -0.00347107 0.041 0.003649685 0.007118975 0.041 -0.007025773 -0.003826032 0.041 0.004 0.006928203 0.041 -0.006826327 -0.004171482 0.041 0.00434037 0.006720207 0.041 -0.00660991 -0.00450656 0.041 0.00466995 0.006495504 0.041 -0.00637706 -0.004830435 0.041 0.004987918 0.006254652 0.041 -0.006128356 -0.005142301 0.041 0.005293487 0.00599825 0.041 -0.005864415 -0.005441382 0.041 0.005585895 0.005726935 0.041 -0.005585895 -0.005726935 0.041 0.005864415 0.005441382 0.041 0.006128356 0.005142301 0.041 -0.005293487 -0.00599825 0.041 -0.004987918 -0.006254652 0.041 -0.00466995 -0.006495504 0.041 0.00637706 0.004830435 0.041 0.00660991 0.00450656 0.041 -0.00434037 -0.006720207 0.041 0.006826327 0.004171482 0.041 -0.004 -0.006928203 0.041 0.007025773 0.003826032 0.041 -0.003649685 -0.007118975 0.041 -0.003290297 -0.007292047 0.041 0.007207751 0.00347107 0.041 0.007371809 0.003107478 0.041 0.007517541 0.002736161 0.041 -0.002922728 -0.00744699 0.041 -0.002547893 -0.007583419 0.041 -0.002166724 -0.007700994 0.041 0.007644582 0.002358041 0.041 0.007752618 0.001974059 0.041 -0.001780167 -0.007799423 0.041 0.00784138 0.001585169 0.041 -0.001389185 -0.007878462 0.041 0.007910646 0.001192338 0.041 -0.0009947497 -0.007937913 0.041 0.007960246 0.0007965428 0.041 -0.0005978407 -0.007977631 0.041 -0.0001994455 -0.007997513 0.041 0.007990056 0.0003987671 0.041 0.008 2.220446e-18 0.041 0.0001994455 -0.007997513 0.041 0.007990056 -0.0003987671 0.041 0.0005978407 -0.007977631 0.041 0.007960246 -0.0007965428 0.041 0.0009947497 -0.007937913 0.041 0.007910646 -0.001192338 0.041 0.001389185 -0.007878462 0.041 0.001780167 -0.007799423 0.041 0.00784138 -0.001585169 0.041 0.007752618 -0.001974059 0.041 0.002166724 -0.007700994 0.041 0.007644582 -0.002358041 0.041 0.002547893 -0.007583419 0.041 0.007517541 -0.002736161 0.041 0.002922728 -0.00744699 0.041 0.007371809 -0.003107478 0.041 0.003290297 -0.007292047 0.041 0.003649685 -0.007118975 0.041 0.007207751 -0.00347107 0.041 0.007025773 -0.003826032 0.041 0.004 -0.006928203 0.041 0.006826327 -0.004171482 0.041 0.00434037 -0.006720207 0.041 0.00660991 -0.00450656 0.041 0.00637706 -0.004830435 0.041 0.00466995 -0.006495504 0.041 0.004987918 -0.006254652 0.041 0.005293487 -0.00599825 0.041 0.006128356 -0.005142301 0.041 0.005864415 -0.005441382 0.041 0.005585895 -0.005726935 0.041 0.007990056 -0.0003987671 0.046 0.008 3.330669e-18 0.046 0.007960246 -0.0007965428 0.046 0.007910646 -0.001192338 0.046 0.00784138 -0.001585169 0.046 0.007752618 -0.001974059 0.046 0.007644582 -0.002358041 0.046 0.007517541 -0.002736161 0.046 0.007371809 -0.003107478 0.046 0.007207751 -0.00347107 0.046 0.007025773 -0.003826032 0.046 0.006826327 -0.004171482 0.046 0.00660991 -0.00450656 0.046 0.00637706 -0.004830435 0.046 0.006128356 -0.005142301 0.046 0.005864415 -0.005441382 0.046 0.005585895 -0.005726935 0.046 0.005293487 -0.00599825 0.046 0.004987918 -0.006254652 0.046 0.00466995 -0.006495504 0.046 0.00434037 -0.006720207 0.046 0.004 -0.006928203 0.046 0.003649685 -0.007118975 0.046 0.003290297 -0.007292047 0.046 0.002922728 -0.00744699 0.046 0.002547893 -0.007583419 0.046 0.002166724 -0.007700994 0.046 0.001780167 -0.007799423 0.046 0.001389185 -0.007878462 0.046 0.0009947497 -0.007937913 0.046 0.0005978407 -0.007977631 0.046 0.0001994455 -0.007997513 0.046 -0.0001994455 -0.007997513 0.046 -0.0005978407 -0.007977631 0.046 -0.0009947497 -0.007937913 0.046 -0.001389185 -0.007878462 0.046 -0.001780167 -0.007799423 0.046 -0.002166724 -0.007700994 0.046 -0.002547893 -0.007583419 0.046 -0.002922728 -0.00744699 0.046 -0.003290297 -0.007292047 0.046 -0.003649685 -0.007118975 0.046 -0.004 -0.006928203 0.046 -0.00434037 -0.006720207 0.046 -0.00466995 -0.006495504 0.046 -0.004987918 -0.006254652 0.046 -0.005293487 -0.00599825 0.046 -0.005585895 -0.005726935 0.046 -0.005864415 -0.005441382 0.046 -0.006128356 -0.005142301 0.046 -0.00637706 -0.004830435 0.046 -0.00660991 -0.00450656 0.046 -0.006826327 -0.004171482 0.046 -0.007025773 -0.003826032 0.046 -0.007207751 -0.00347107 0.046 -0.007371809 -0.003107478 0.046 -0.007517541 -0.002736161 0.046 -0.007644582 -0.002358041 0.046 -0.007752618 -0.001974059 0.046 -0.00784138 -0.001585169 0.046 -0.007910646 -0.001192338 0.046 -0.007960246 -0.0007965428 0.046 -0.007990056 -0.0003987671 0.046 -0.008 3.077266e-17 0.046 -0.007990056 0.0003987671 0.046 -0.007960246 0.0007965428 0.046 -0.007910646 0.001192338 0.046 -0.00784138 0.001585169 0.046 -0.007752618 0.001974059 0.046 -0.007644582 0.002358041 0.046 -0.007517541 0.002736161 0.046 -0.007371809 0.003107478 0.046 -0.007207751 0.00347107 0.046 -0.007025773 0.003826032 0.046 -0.006826327 0.004171482 0.046 -0.00660991 0.00450656 0.046 -0.00637706 0.004830435 0.046 -0.006128356 0.005142301 0.046 -0.005864415 0.005441382 0.046 -0.005585895 0.005726935 0.046 -0.005293487 0.00599825 0.046 -0.004987918 0.006254652 0.046 -0.00466995 0.006495504 0.046 -0.00434037 0.006720207 0.046 -0.004 0.006928203 0.046 -0.003649685 0.007118975 0.046 -0.003290297 0.007292047 0.046 -0.002922728 0.00744699 0.046 -0.002547893 0.007583419 0.046 -0.002166724 0.007700994 0.046 -0.001780167 0.007799423 0.046 -0.001389185 0.007878462 0.046 -0.0009947497 0.007937913 0.046 -0.0005978407 0.007977631 0.046 -0.0001994455 0.007997513 0.046 0.0001994455 0.007997513 0.046 0.0005978407 0.007977631 0.046 0.0009947497 0.007937913 0.046 0.001389185 0.007878462 0.046 0.001780167 0.007799423 0.046 0.002166724 0.007700994 0.046 0.002547893 0.007583419 0.046 0.002922728 0.00744699 0.046 0.003290297 0.007292047 0.046 0.003649685 0.007118975 0.046 0.004 0.006928203 0.046 0.00434037 0.006720207 0.046 0.00466995 0.006495504 0.046 0.004987918 0.006254652 0.046 0.005293487 0.00599825 0.046 0.005585895 0.005726935 0.046 0.005864415 0.005441382 0.046 0.006128356 0.005142301 0.046 0.00637706 0.004830435 0.046 0.00660991 0.00450656 0.046 0.006826327 0.004171482 0.046 0.007025773 0.003826032 0.046 0.007207751 0.00347107 0.046 0.007371809 0.003107478 0.046 0.007517541 0.002736161 0.046 0.007644582 0.002358041 0.046 0.007752618 0.001974059 0.046 0.00784138 0.001585169 0.046 0.007910646 0.001192338 0.046 0.007960246 0.0007965428 0.046 0.007990056 0.0003987671 0.046</float_array>
          <technique_common>
            <accessor count="504" source="#cubeverts-array0-array" stride="3">
              <param type="float" name="X"/>
              <param type="float" name="Y"/>
              <param type="float" name="Z"/>
            </accessor>
          </technique_common>
        </source>
        <source id="cubenormals-array0">
          <float_array count="3012" id="cubenormals-array0-array">0 0 -1 0 0 -1 0 0 -1 -0 -0 -1 -0 -0 -1 -0 -0 -1 0 0 -1 0 0 -1 0 0 -1 0 0 -1 0 0 -1 -0 -0 -1 -0 -0 -1 -0 -0 -1 -0 -0 -1 -0 -0 -1 0 0 -1 0 0 -1 -0 -0 -1 0 0 -1 0 0 -1 -0 -0 -1 -0 -0 -1 0 0 -1 0 0 -1 0 0 -1 0 0 -1 0 0 -1 -0 0 -1 -0 0 -1 0 0 -1 0 0 -1 -0 0 -1 -0 0 -1 0 0 -1 -0 0 -1 -0 0 -1 -0 0 -1 0 0 -1 0 0 -1 0 0 -1 0 0 -1 -0 0 -1 -0 0 -1 -0 0 -1 -0 0 -1 -0 0 -1 -0 0 -1 0 0 -1 0 0 -1 0 -0 -1 -0 0 -1 -0 0 -1 -0 0 -1 0 0 -1 0 0 -1 0 0 -1 0 0 -1 -0 0 -1 -0 0 -1 -0 0 -1 0 0 -1 0 0 -1 0 0 -1 0 0 -1 0 0 -1 0 0 -1 -0 0 -1 -0 0 -1 0 0 -1 0 0 -1 0 0 -1 -0 0 -1 -0 0 -1 -0 0 -1 0 0 -1 0 0 -1 -0 0 -1 -0 0 -1 -0 0 -1 0 0 -1 0 0 -1 0 0 -1 0 0 -1 0 0 -1 0 0 -1 0 0 -1 0 0 -1 0 0 -1 0 0 -1 -0 0 -1 0 0 -1 -0 0 -1 0 0 -1 0 0 -1 0 0 -1 0 -0 -1 0 0 -1 0 0 -1 0 0 -1 0 0 -1 0 0 -1 0 -0 -1 0 0 -1 0 0 -1 0 0 -1 0 0 -1 0 0 -1 0 0 -1 0 0 -1 0 0 -1 0 0 -1 0 0 -1 0 0 -1 0 0 -1 0 0 -1 0 0 -1 0 0 -1 0 0 -1 0 0 -1 0 0 -1 0 0 -1 0 0 -1 0 0 -1 0.9996892 -0.02493054 0 0.9996892 -0.02493054 5.535692e-18 0.9972038 -0.07473075 0 0.9922392 -0.1243432 0 0.9972038 -0.07473075 0 0.9922392 -0.1243432 0 0.9848078 -0.1736479 0 0.9749278 -0.2225213 0 0.9848078 -0.1736479 0 0.9749278 -0.2225213 0 0.9626244 -0.2708401 0 0.9626244 -0.2708401 0 0.9479271 -0.3184876 0 0.9308738 -0.3653407 0 0.9479271 -0.3184876 0 0.9308738 -0.3653407 0 0.9115063 -0.4112862 0 0.9115063 -0.4112862 0 0.8898717 -0.4562109 0 0.8898717 -0.4562109 0 0.8660254 -0.4999998 0 0.8660254 -0.4999998 0 0.840026 -0.5425462 0 0.840026 -0.5425462 0 0.8119375 -0.5837443 0 0.8119375 -0.5837443 0 0.7818317 -0.6234894 0 0.7818317 -0.6234894 0 0.7497814 -0.6616855 0 0.7158666 -0.6982372 0 0.7497814 -0.6616855 0 0.7158666 -0.6982372 0 0.6801724 -0.7330521 0 0.6801724 -0.7330521 0 0.6427879 -0.7660443 0 0.6038044 -0.7971324 0 0.6427879 -0.7660443 0 0.6038044 -0.7971324 0 0.5633197 -0.826239 0 0.5633197 -0.826239 0 0.5214354 -0.8532907 0 0.5214354 -0.8532907 0 0.4782534 -0.8782219 0 0.4782534 -0.8782219 0 0.4338846 -0.9009685 0 0.4338846 -0.9009685 0 0.3884351 -0.9214761 0 0.3884351 -0.9214761 0 0.3420203 -0.9396926 0 0.3420203 -0.9396926 0 0.2947553 -0.9555728 0 0.2947553 -0.9555728 0 0.2467564 -0.9690775 0 0.2467564 -0.9690775 0 0.1981471 -0.9801723 0 0.1490408 -0.988831 0 0.1981471 -0.9801723 0 0.1490408 -0.988831 0 0.09956913 -0.9950307 0 0.09956913 -0.9950307 0 0.04984543 -0.9987569 0 0.04984543 -0.9987569 0 0 -1 0 -0 -1 -0 -0.04984543 -0.9987569 0 -0.04984543 -0.9987569 -0 -0.09956913 -0.9950307 0 -0.09956913 -0.9950307 -0 -0.1490408 -0.988831 0 -0.1490408 -0.988831 -0 -0.1981471 -0.9801723 0 -0.1981471 -0.9801723 -0 -0.2467564 -0.9690775 0 -0.2947553 -0.9555728 0 -0.2467564 -0.9690775 -0 -0.2947553 -0.9555728 0 -0.3420203 -0.9396926 0 -0.3420203 -0.9396926 0 -0.3884351 -0.9214761 -0 -0.3884351 -0.9214761 0 -0.4338846 -0.9009685 -0 -0.4338846 -0.9009685 0 -0.4782534 -0.8782219 -0 -0.4782534 -0.8782219 0 -0.5214354 -0.8532907 -0 -0.5214354 -0.8532907 0 -0.5633197 -0.826239 -0 -0.5633197 -0.826239 0 -0.6038044 -0.7971324 -0 -0.6038044 -0.7971324 0 -0.6427879 -0.7660443 -0 -0.6427879 -0.7660443 0 -0.6801724 -0.7330521 0 -0.6801724 -0.7330521 0 -0.7158666 -0.6982372 0 -0.7158666 -0.6982372 -0 -0.7497814 -0.6616855 0 -0.7497814 -0.6616855 -0 -0.7818317 -0.6234894 0 -0.8119375 -0.5837443 0 -0.7818317 -0.6234894 -0 -0.8119375 -0.5837443 0 -0.840026 -0.5425462 0 -0.8660254 -0.4999998 0 -0.840026 -0.5425462 -0 -0.8660254 -0.4999998 0 -0.8898717 -0.4562109 0 -0.9115063 -0.4112862 0 -0.8898717 -0.4562109 -0 -0.9115063 -0.4112862 0 -0.9308738 -0.3653407 0 -0.9308738 -0.3653407 -0 -0.9479271 -0.3184876 0 -0.9626244 -0.2708401 0 -0.9479271 -0.3184876 -0 -0.9626244 -0.2708401 0 -0.9749278 -0.2225213 0 -0.9749278 -0.2225213 -0 -0.9848078 -0.1736479 0 -0.9848078 -0.1736479 -0 -0.9922392 -0.1243432 0 -0.9922392 -0.1243432 -0 -0.9972038 -0.07473075 0 -0.9996892 -0.02493054 0 -0.9972038 -0.07473075 -0 -0.9996892 -0.02493054 0 -0.9996892 0.02493054 -5.535692e-18 -0.9996892 0.02493054 0 -0.9972038 0.07473075 0 -0.9972038 0.07473075 0 -0.9922392 0.1243432 0 -0.9922392 0.1243432 0 -0.9848078 0.1736479 0 -0.9848078 0.1736479 0 -0.9749278 0.2225213 0 -0.9749278 0.2225213 0 -0.9626244 0.2708401 0 -0.9626244 0.2708401 0 -0.9479271 0.3184876 0 -0.9479271 0.3184876 0 -0.9308738 0.3653407 0 -0.9308738 0.3653407 0 -0.9115063 0.4112862 0 -0.9115063 0.4112862 0 -0.8898717 0.4562109 0 -0.8898717 0.4562109 0 -0.8660254 0.4999998 0 -0.8660254 0.4999998 0 -0.840026 0.5425462 0 -0.840026 0.5425462 0 -0.8119375 0.5837443 0 -0.8119375 0.5837443 0 -0.7818317 0.6234894 0 -0.7818317 0.6234894 0 -0.7497814 0.6616855 0 -0.7497814 0.6616855 0 -0.7158666 0.6982372 0 -0.7158666 0.6982372 0 -0.6801724 0.7330521 0 -0.6801724 0.7330521 0 -0.6427879 0.7660443 0 -0.6427879 0.7660443 0 -0.6038044 0.7971324 0 -0.6038044 0.7971324 0 -0.5633197 0.826239 0 -0.5633197 0.826239 0 -0.5214354 0.8532907 0 -0.5214354 0.8532907 0 -0.4782534 0.8782219 0 -0.4782534 0.8782219 0 -0.4338846 0.9009685 0 -0.4338846 0.9009685 0 -0.3884351 0.9214761 0 -0.3884351 0.9214761 0 -0.3420203 0.9396926 0 -0.3420203 0.9396926 0 -0.2947553 0.9555728 0 -0.2947553 0.9555728 0 -0.2467564 0.9690775 0 -0.2467564 0.9690775 0 -0.1981471 0.9801723 0 -0.1981471 0.9801723 0 -0.1490408 0.988831 0 -0.1490408 0.988831 0 -0.09956913 0.9950307 0 -0.09956913 0.9950307 0 -0.04984543 0.9987569 0 -0.04984543 0.9987569 0 -0 1 0 0 1 0 0.04984543 0.9987569 0 0.04984543 0.9987569 0 0.09956913 0.9950307 0 0.09956913 0.9950307 0 0.1490408 0.988831 0 0.1490408 0.988831 0 0.1981471 0.9801723 0 0.1981471 0.9801723 0 0.2467564 0.9690775 0 0.2467564 0.9690775 0 0.2947553 0.9555728 0 0.2947553 0.9555728 0 0.3420203 0.9396926 0 0.3420203 0.9396926 0 0.3884351 0.9214761 0 0.3884351 0.9214761 0 0.4338846 0.9009685 0 0.4782534 0.8782219 -0 0.4338846 0.9009685 0 0.4782534 0.8782219 0 0.5214354 0.8532907 0 0.5214354 0.8532907 0 0.5633197 0.826239 0 0.5633197 0.826239 0 0.6038044 0.7971324 0 0.6038044 0.7971324 0 0.6427879 0.7660443 0 0.6427879 0.7660443 0 0.6801724 0.7330521 0 0.6801724 0.7330521 0 0.7158666 0.6982372 0 0.7158666 0.6982372 0 0.7497814 0.6616855 0 0.7497814 0.6616855 0 0.7818317 0.6234894 0 0.7818317 0.6234894 0 0.8119375 0.5837443 0 0.8119375 0.5837443 0 0.840026 0.5425462 0 0.840026 0.5425462 0 0.8660254 0.4999998 0 0.8660254 0.4999998 0 0.8898717 0.4562109 0 0.8898717 0.4562109 0 0.9115063 0.4112862 0 0.9115063 0.4112862 0 0.9308738 0.3653407 0 0.9479271 0.3184876 -0 0.9308738 0.3653407 0 0.9479271 0.3184876 0 0.9626244 0.2708401 0 0.9626244 0.2708401 0 0.9749278 0.2225213 0 0.9749278 0.2225213 0 0.9848078 0.1736479 0 0.9848078 0.1736479 0 0.9922392 0.1243432 0 0.9922392 0.1243432 0 0.9972038 0.07473075 0 0.9996892 0.02493054 -0 0.9972038 0.07473075 0 0.9996892 0.02493054 0 0 0 1 -0 0 1 -0 0 1 0 -0 1 -0 0 1 -0 0 1 0 0 1 0 -0 1 0 0 1 -0 0 1 0 -0 1 -0 0 1 -0 0 1 0 0 1 -0 0 1 0 -0 1 -0 0 1 0 0 1 -0 0 1 0 -0 1 0 0 1 -0 0 1 0 -0 1 -0 0 1 -0 0 1 -0 0 1 0 0 1 0 -0 1 -0 0 1 -0 0 1 0 0 1 0 -0 1 -0 0 1 0 0 1 -0 0 1 -0 0 1 0 -0 1 -0 0 1 0 0 1 0 -0 1 -0 0 1 0 0 1 -0 0 1 0 -0 1 -0 0 1 -0 0 1 0 0 1 0 -0 1 0 0 1 -0 0 1 -0 0 1 -0 0 1 0 -0 1 0 0 1 0 -0 1 -0 0 1 0 0 1 -0 0 1 0 0 1 0 -0 1 -0 0 1 -0 0 1 0 -0 1 -0 0 1 0 -0 1 0 0 1 -0 0 1 0 0 1 0 0 1 0 -0 1 -0 0 1 0 0 1 0 0 1 0 -0 1 -0 0 1 0 0 1 0 0 1 0 0 1 0 -0 1 -0 0 1 0 0 1 0 -0 1 -0 0 1 0 0 1 0 0 1 0 -0 1 0 0 1 0 0 1 -0 0 1 0 0 1 0 -0 1 -0 0 1 0 -0 1 0 0 1 0 0 1 -0 0 1 0 0 1 0 -0 1 0 0 1 0 0 1 -0 0 1 0 -0 1 0 -0 1 0 0 1 -0 0 1 0 -0 1 0 0 1 0 0 1 -0 0 1 0 0 1 0 0 1 -0 0 1 0 -0 1 0 0 1 0 0 1 0 0 1 -0 0 1 0 -0 1 0 0 1 -0 0 1 0 -0 1 0 0 1 0 0 1 -0 0 1 0 0 1 -0 0 1 0 -0 1 0 -0 1 0 0 1 -0 0 1 0 0 1 0 0 1 0 0 1 -0 0 1 0 0 1 0 0 1 0 -0 1 -0 0 1 0 0 1 0 -0 1 -0 0 1 0 0 1 0 0 1 0 -0 1 0 0 1 -0 0 1 0 -0 1 0 0 1 0 0 1 0 0 1 -0 0 1 0 -0 1 0 0 1 -0 0 1 0 -0 1 0 -0 1 0 0 1 -0 0 1 0 0 1 0 0 1 -0 0 1 0 0 1 0 0 1 0 -0 1 0 0 1 -0 0 1 0 0 1 0 -0 1 0 0 1 -0 0 1 0 0 1 0 -0 1 0 0 1 -0 0 1 0 0 1 0 -0 1 0 0 1 -0 0 1 0 -0 1 0 0 1 0 0 1 0 0 1 -0 0 1 0 0 1 0 -0 1 -0 0 1 -0 0 1 0 -0 1 -0 0 1 0 0 1 -0 0 1 -0 0 1 0 -0 1 -0 0 1 -0 0 1 0 0 1 -0 0 1 0 -0 1 -0 0 1 0 0 1 0 -0 1 -0 0 1 -0 0 1 -0 0 1 -0 0 1 0 0 1 0 -0 1 0 0 1 0 -0 1 -0 0 1 -0 0 1 0 0 1 0 -0 1 -0 0 1 -0 0 1 0 0 1 0 -0 1 -0 0 1 -0 0 1 0 0 1 0 -0 1 -0 0 1 -0 0 1 0 0 1 -0 0 1 0 -0 1 0 0 1 -0 0 1 0 -0 1 -0 0 1 0 0 1 -0 0 1 0 -0 1 -0 0 1 -0 0 1 -0 0 1 0 0 1 0 -0 1 -0 0 1 -0 0 1 0 0 1 0 -0 1 -0 0 1 -0 0 1 0 0 1 0 -0 1 0 0 1 -0 0 1 -0 0 1 -0 0 1 0 -0 1 0 0 1 0.9996892 -0.02493021 0 0.9996892 -0.02493021 5.535619e-18 0.9972037 -0.07473086 0 0.9922392 -0.1243438 0 0.9972037 -0.07473086 0 0.9922392 -0.1243438 0 0.9848079 -0.1736472 0 0.9749278 -0.2225214 0 0.9848079 -0.1736472 0 0.9749278 -0.2225214 0 0.962624 -0.270841 0 0.962624 -0.270841 0 0.9479275 -0.3184862 0 0.9308736 -0.3653415 0 0.9479275 -0.3184862 0 0.9308736 -0.3653415 0 0.9115059 -0.4112871 0 0.9115059 -0.4112871 0 0.889872 -0.4562102 0 0.889872 -0.4562102 0 0.8660251 -0.5000005 0 0.8660251 -0.5000005 0 0.8400258 -0.5425463 0 0.8400258 -0.5425463 0 0.8119382 -0.5837434 0 0.8119382 -0.5837434 0 0.7818318 -0.6234894 0 0.7818318 -0.6234894 0 0.7497813 -0.6616857 0 0.7158667 -0.6982369 0 0.7497813 -0.6616857 0 0.7158667 -0.6982369 0 0.6801723 -0.7330523 0 0.6801723 -0.7330523 0 0.6427881 -0.766044 0 0.6038042 -0.7971327 0 0.6427881 -0.766044 0 0.6038042 -0.7971327 0 0.5633199 -0.8262389 0 0.5633199 -0.8262389 0 0.5214352 -0.8532909 0 0.5214352 -0.8532909 0 0.4782545 -0.8782213 0 0.4782545 -0.8782213 0 0.4338838 -0.9009688 0 0.4338838 -0.9009688 0 0.3884345 -0.9214763 0 0.3884345 -0.9214763 0 0.3420202 -0.9396926 0 0.3420202 -0.9396926 0 0.294755 -0.9555728 0 0.294755 -0.9555728 0 0.2467571 -0.9690773 0 0.2467571 -0.9690773 0 0.1981459 -0.9801726 0 0.1490422 -0.9888308 0 0.1981459 -0.9801726 0 0.1490422 -0.9888308 0 0.099569 -0.9950306 0 0.099569 -0.9950306 0 0.04984489 -0.9987569 0 0.04984489 -0.9987569 0 0 -1 0 -0 -1 -0 -0.04984489 -0.9987569 0 -0.04984489 -0.9987569 -0 -0.099569 -0.9950306 0 -0.099569 -0.9950306 -0 -0.1490422 -0.9888308 0 -0.1490422 -0.9888308 -0 -0.1981459 -0.9801726 0 -0.1981459 -0.9801726 -0 -0.2467571 -0.9690773 0 -0.294755 -0.9555728 0 -0.2467571 -0.9690773 -0 -0.294755 -0.9555728 0 -0.3420202 -0.9396926 0 -0.3420202 -0.9396926 0 -0.3884345 -0.9214763 -0 -0.3884345 -0.9214763 0 -0.4338838 -0.9009688 -0 -0.4338838 -0.9009688 0 -0.4782545 -0.8782213 -0 -0.4782545 -0.8782213 0 -0.5214352 -0.8532909 -0 -0.5214352 -0.8532909 0 -0.5633199 -0.8262389 -0 -0.5633199 -0.8262389 0 -0.6038042 -0.7971327 -0 -0.6038042 -0.7971327 0 -0.6427881 -0.766044 -0 -0.6427881 -0.766044 0 -0.6801723 -0.7330523 0 -0.6801723 -0.7330523 0 -0.7158667 -0.6982369 0 -0.7158667 -0.6982369 -0 -0.7497813 -0.6616857 0 -0.7497813 -0.6616857 -0 -0.7818318 -0.6234894 0 -0.8119382 -0.5837434 0 -0.7818318 -0.6234894 -0 -0.8119382 -0.5837434 0 -0.8400258 -0.5425463 0 -0.8660251 -0.5000005 0 -0.8400258 -0.5425463 -0 -0.8660251 -0.5000005 0 -0.889872 -0.4562102 0 -0.9115059 -0.4112871 0 -0.889872 -0.4562102 -0 -0.9115059 -0.4112871 0 -0.9308736 -0.3653415 0 -0.9308736 -0.3653415 -0 -0.9479275 -0.3184862 0 -0.962624 -0.270841 0 -0.9479275 -0.3184862 -0 -0.962624 -0.270841 0 -0.9749278 -0.2225214 0 -0.9749278 -0.2225214 -0 -0.9848079 -0.1736472 0 -0.9848079 -0.1736472 -0 -0.9922392 -0.1243438 0 -0.9922392 -0.1243438 -0 -0.9972037 -0.07473086 0 -0.9996892 -0.02493021 0 -0.9972037 -0.07473086 -0 -0.9996892 -0.02493021 0 -0.9996892 0.02493021 -5.535619e-18 -0.9996892 0.02493021 0 -0.9972037 0.07473086 0 -0.9972037 0.07473086 0 -0.9922392 0.1243438 0 -0.9922392 0.1243438 0 -0.9848079 0.1736472 0 -0.9848079 0.1736472 0 -0.9749278 0.2225214 0 -0.9749278 0.2225214 0 -0.962624 0.270841 0 -0.962624 0.270841 0 -0.9479275 0.3184862 0 -0.9479275 0.3184862 0 -0.9308736 0.3653415 0 -0.9308736 0.3653415 0 -0.9115059 0.4112871 0 -0.9115059 0.4112871 0 -0.889872 0.4562102 0 -0.889872 0.4562102 0 -0.8660251 0.5000005 0 -0.8660251 0.5000005 0 -0.8400258 0.5425463 0 -0.8400258 0.5425463 0 -0.8119382 0.5837434 0 -0.8119382 0.5837434 0 -0.7818318 0.6234894 0 -0.7818318 0.6234894 0 -0.7497813 0.6616857 0 -0.7497813 0.6616857 0 -0.7158667 0.6982369 0 -0.7158667 0.6982369 0 -0.6801723 0.7330523 0 -0.6801723 0.7330523 0 -0.6427881 0.766044 0 -0.6427881 0.766044 0 -0.6038042 0.7971327 0 -0.6038042 0.7971327 0 -0.5633199 0.8262389 0 -0.5633199 0.8262389 0 -0.5214352 0.8532909 0 -0.5214352 0.8532909 0 -0.4782545 0.8782213 0 -0.4782545 0.8782213 0 -0.4338838 0.9009688 0 -0.4338838 0.9009688 0 -0.3884345 0.9214763 0 -0.3884345 0.9214763 0 -0.3420202 0.9396926 0 -0.3420202 0.9396926 0 -0.294755 0.9555728 0 -0.294755 0.9555728 0 -0.2467571 0.9690773 0 -0.2467571 0.9690773 0 -0.1981459 0.9801726 0 -0.1981459 0.9801726 0 -0.1490422 0.9888308 0 -0.1490422 0.9888308 0 -0.099569 0.9950306 0 -0.099569 0.9950306 0 -0.04984489 0.9987569 0 -0.04984489 0.9987569 0 -0 1 0 0 1 0 0.04984489 0.9987569 0 0.04984489 0.9987569 0 0.099569 0.9950306 0 0.099569 0.9950306 0 0.1490422 0.9888308 0 0.1490422 0.9888308 0 0.1981459 0.9801726 0 0.1981459 0.9801726 0 0.2467571 0.9690773 0 0.2467571 0.9690773 0 0.294755 0.9555728 0 0.294755 0.9555728 0 0.3420202 0.9396926 0 0.3420202 0.9396926 0 0.3884345 0.9214763 0 0.3884345 0.9214763 0 0.4338838 0.9009688 0 0.4782545 0.8782213 -0 0.4338838 0.9009688 0 0.4782545 0.8782213 0 0.5214352 0.8532909 0 0.5214352 0.8532909 0 0.5633199 0.8262389 0 0.5633199 0.8262389 0 0.6038042 0.7971327 0 0.6038042 0.7971327 0 0.6427881 0.766044 0 0.6427881 0.766044 0 0.6801723 0.7330523 0 0.6801723 0.7330523 0 0.7158667 0.6982369 0 0.7158667 0.6982369 0 0.7497813 0.6616857 0 0.7497813 0.6616857 0 0.7818318 0.6234894 0 0.7818318 0.6234894 0 0.8119382 0.5837434 0 0.8119382 0.5837434 0 0.8400258 0.5425463 0 0.8400258 0.5425463 0 0.8660251 0.5000005 0 0.8660251 0.5000005 0 0.889872 0.4562102 0 0.889872 0.4562102 0 0.9115059 0.4112871 0 0.9115059 0.4112871 0 0.9308736 0.3653415 0 0.9479275 0.3184862 -0 0.9308736 0.3653415 0 0.9479275 0.3184862 0 0.962624 0.270841 0 0.962624 0.270841 0 0.9749278 0.2225214 0 0.9749278 0.2225214 0 0.9848079 0.1736472 0 0.9848079 0.1736472 0 0.9922392 0.1243438 0 0.9922392 0.1243438 0 0.9972037 0.07473086 0 0.9996892 0.02493021 -0 0.9972037 0.07473086 0 0.9996892 0.02493021 0 0 0 1 -0 0 1 0 0 1 0 0 1 -0 0 1 -0 0 1 -0 0 1 0 0 1 0 0 1 0 0 1 0 0 1 0 0 1 -0 0 1 -0 0 1 -0 0 1 0 0 1 0 0 1 -0 0 1 -0 0 1 0 0 1 -0 -0 1 0 0 1 -0 0 1 -0 -0 1 0 0 1 0 0 1 0 0 1 -0 0 1 -0 0 1 -0 0 1 -0 -0 1 -0 0 1 -0 0 1 0 0 1 0 0 1 0 0 1 0 0 1 0 0 1 0 0 1 -0 -0 1 -0 -0 1 -0 -0 1 -0 -0 1 -0 -0 1 0 0 1 0 0 1 0 0 1 -0 -0 1 -0 -0 1 -0 0 1 0 0 1 0 0 1 0 0 1 0 0 1 0 0 1 -0 -0 1 0 0 1 0 0 1 -0 -0 1 -0 -0 1 -0 0 1 -0 -0 1 -0 -0 1 -0 -0 1 -0 -0 1 -0 0 1 -0 -0 1 0 0 1 0 0 1 0 0 1 -0 -0 1 -0 -0 1 0 0 1 0 0 1 -0 -0 1 -0 -0 1 0 0 1 0 0 1 -0 -0 1 -0 -0 1 -0 -0 1 -0 -0 1 0 0 1 0 0 1 0 0 1 0 0 1 -0 -0 1 -0 -0 1 0 0 1 0 0 1 0 -0 1 0 -0 1 0 -0 1 0 -0 1 0 0 1 0 0 1 0 0 1 0 -0 1 0 0 1 0 -0 1 0 -0 1 -0 0 1 0 0 1 0 0 1 0 0 1 0 0 1 0 0 1 0 -0 1 0 -0 1 0 -0 1 0 -0 1 0 -0 1 0 0 1 0 0 1 0 -0 1 0 0 1 0 0 1 0 -0 1 0 -0 1 0 0 1 0 0 1 0 -0 1 0 0 1 0 0 1</float_array>
          <technique_common>
            <accessor count="1004" source="#cubenormals-array0-array" stride="3">
              <param type="float" name="X"/>
              <param type="float" name="Y"/>
              <param type="float" name="Z"/>
            </accessor>
          </technique_common>
        </source>
        <vertices id="cubeverts-array0-vertices">
          <input semantic="POSITION" source="#cubeverts-array0"/>
        </vertices>
        <triangles count="1004" material="ref_Body010">
          <input offset="0" semantic="VERTEX" source="#cubeverts-array0-vertices"/>
          <input offset="1" semantic="NORMAL" source="#cubenormals-array0"/>
          <p>0 0 1 0 2 0 3 1 1 1 0 1 4 2 1 2 3 2 5 3 6 3 7 3 8 4 6 4 5 4 6 5 9 5 7 5 10 6 11 6 12 6 1 7 11 7 10 7 4 8 13 8 1 8 1 9 13 9 11 9 13 10 14 10 15 10 7 11 16 11 4 11 17 12 16 12 9 12 18 13 16 13 17 13 19 14 16 14 18 14 9 15 16 15 7 15 4 16 20 16 13 16 13 17 20 17 14 17 21 18 22 18 16 18 20 19 23 19 24 19 20 20 25 20 23 20 26 21 27 21 22 21 27 22 28 22 22 22 25 23 29 23 30 23 4 24 31 24 20 24 16 25 31 25 4 25 20 26 31 26 25 26 25 27 31 27 29 27 32 28 33 28 34 28 35 29 33 29 32 29 36 30 37 30 38 30 31 31 37 31 36 31 33 32 39 32 34 32 34 33 39 33 28 33 37 34 40 34 41 34 39 35 42 35 28 35 43 36 42 36 39 36 28 37 42 37 22 37 31 38 44 38 37 38 45 39 44 39 46 39 40 40 44 40 45 40 37 41 44 41 40 41 47 42 48 42 42 42 49 43 48 43 47 43 50 44 48 44 49 44 42 45 48 45 22 45 48 46 51 46 22 46 22 47 51 47 16 47 52 48 53 48 54 48 44 49 53 49 52 49 31 50 55 50 44 50 51 51 55 51 16 51 16 52 55 52 31 52 55 53 56 53 44 53 44 54 57 54 53 54 53 55 57 55 58 55 59 56 60 56 61 56 59 57 62 57 60 57 63 58 64 58 65 58 66 59 64 59 63 59 67 60 64 60 66 60 59 61 68 61 62 61 69 62 68 62 70 62 62 63 68 63 69 63 57 64 68 64 59 64 44 65 71 65 57 65 57 66 71 66 68 66 72 67 73 67 74 67 73 68 75 68 74 68 44 69 76 69 71 69 77 70 76 70 78 70 71 71 76 71 77 71 79 72 80 72 64 72 74 73 80 73 79 73 75 74 80 74 74 74 76 75 81 75 82 75 76 76 83 76 81 76 84 77 85 77 86 77 87 78 85 78 84 78 85 79 88 79 86 79 89 80 90 80 91 80 89 81 92 81 90 81 93 82 94 82 88 82 89 83 95 83 92 83 92 84 95 84 96 84 83 85 95 85 89 85 94 86 97 86 88 86 98 87 97 87 94 87 83 88 99 88 95 88 97 89 100 89 88 89 86 90 100 90 80 90 88 91 100 91 86 91 80 92 101 92 64 92 100 93 101 93 80 93 102 94 103 94 104 94 99 95 103 95 102 95 83 96 103 96 99 96 105 97 106 97 101 97 107 98 106 98 105 98 108 99 109 99 110 99 103 100 109 100 108 100 111 101 112 101 106 101 76 102 113 102 83 102 114 103 113 103 56 103 65 104 113 104 114 104 103 105 113 105 109 105 83 106 113 106 103 106 56 107 113 107 44 107 64 108 113 108 65 108 44 109 113 109 76 109 115 110 116 110 112 110 112 111 116 111 106 111 116 112 117 112 106 112 118 113 119 113 120 113 117 114 121 114 106 114 113 115 122 115 118 115 118 116 122 116 119 116 113 117 123 117 122 117 101 118 124 118 64 118 106 119 124 119 101 119 125 120 124 120 121 120 64 121 124 121 113 121 121 122 124 122 106 122 113 123 124 123 123 123 34 124 126 124 32 124 127 125 126 125 34 125 32 126 128 126 35 126 35 127 128 127 33 127 126 128 128 128 32 128 128 129 129 129 33 129 33 130 130 130 39 130 39 131 130 131 43 131 129 132 130 132 33 132 130 133 131 133 43 133 43 134 132 134 42 134 131 135 132 135 43 135 42 136 133 136 47 136 47 137 133 137 49 137 132 138 133 138 42 138 133 139 134 139 49 139 49 140 135 140 50 140 134 141 135 141 49 141 50 142 136 142 48 142 135 143 136 143 50 143 136 144 137 144 48 144 48 145 137 145 51 145 51 146 137 146 55 146 137 147 138 147 55 147 138 148 139 148 55 148 55 149 139 149 56 149 56 150 140 150 114 150 139 151 140 151 56 151 114 152 141 152 65 152 65 153 141 153 63 153 140 154 141 154 114 154 141 155 142 155 63 155 63 156 143 156 66 156 142 157 143 157 63 157 66 158 144 158 67 158 67 159 144 159 64 159 143 160 144 160 66 160 144 161 145 161 64 161 64 162 146 162 79 162 145 163 146 163 64 163 79 164 147 164 74 164 146 165 147 165 79 165 74 166 148 166 72 166 147 167 148 167 74 167 72 168 149 168 73 168 148 169 149 169 72 169 73 170 150 170 75 170 149 171 150 171 73 171 75 172 151 172 80 172 150 173 151 173 75 173 80 174 152 174 86 174 151 175 152 175 80 175 86 176 153 176 84 176 152 177 153 177 86 177 84 178 154 178 87 178 87 179 154 179 85 179 153 180 154 180 84 180 154 181 155 181 85 181 85 182 156 182 88 182 155 183 156 183 85 183 88 184 157 184 93 184 156 185 157 185 88 185 93 186 158 186 94 186 157 187 158 187 93 187 94 188 159 188 98 188 158 189 159 189 94 189 98 190 160 190 97 190 159 191 160 191 98 191 97 192 161 192 100 192 160 193 161 193 97 193 100 194 162 194 101 194 161 195 162 195 100 195 101 196 163 196 105 196 105 197 163 197 107 197 162 198 163 198 101 198 163 199 164 199 107 199 107 200 164 200 106 200 164 201 165 201 106 201 165 202 166 202 106 202 106 203 166 203 111 203 166 204 167 204 111 204 111 205 167 205 112 205 167 206 168 206 112 206 112 207 168 207 115 207 168 208 169 208 115 208 115 209 169 209 116 209 169 210 170 210 116 210 116 211 170 211 117 211 170 212 171 212 117 212 117 213 171 213 121 213 171 214 172 214 121 214 121 215 172 215 125 215 125 216 172 216 124 216 172 217 173 217 124 217 124 218 174 218 123 218 173 219 174 219 124 219 123 220 175 220 122 220 174 221 175 221 123 221 122 222 176 222 119 222 119 223 176 223 120 223 175 224 176 224 122 224 176 225 177 225 120 225 120 226 178 226 118 226 118 227 178 227 113 227 177 228 178 228 120 228 178 229 179 229 113 229 113 230 180 230 109 230 109 231 180 231 110 231 179 232 180 232 113 232 180 233 181 233 110 233 110 234 182 234 108 234 181 235 182 235 110 235 108 236 183 236 103 236 103 237 183 237 104 237 182 238 183 238 108 238 183 239 184 239 104 239 104 240 185 240 102 240 184 241 185 241 104 241 102 242 186 242 99 242 185 243 186 243 102 243 99 244 187 244 95 244 186 245 187 245 99 245 95 246 188 246 96 246 96 247 188 247 92 247 187 248 188 248 95 248 188 249 189 249 92 249 92 250 189 250 90 250 189 251 190 251 90 251 190 252 191 252 90 252 90 253 191 253 91 253 91 254 191 254 89 254 191 255 192 255 89 255 89 256 192 256 83 256 192 257 193 257 83 257 83 258 193 258 81 258 193 259 194 259 81 259 194 260 195 260 81 260 81 261 195 261 82 261 82 262 195 262 76 262 195 263 196 263 76 263 196 264 197 264 76 264 76 265 197 265 78 265 197 266 198 266 78 266 78 267 198 267 77 267 77 268 198 268 71 268 198 269 199 269 71 269 199 270 200 270 71 270 71 271 200 271 68 271 200 272 201 272 68 272 68 273 201 273 70 273 201 274 202 274 70 274 70 275 202 275 69 275 69 276 202 276 62 276 202 277 203 277 62 277 203 278 204 278 62 278 62 279 204 279 60 279 204 280 205 280 60 280 60 281 205 281 61 281 61 282 205 282 59 282 205 283 206 283 59 283 206 284 207 284 59 284 59 285 207 285 57 285 207 286 208 286 57 286 57 287 208 287 58 287 58 288 209 288 53 288 208 289 209 289 58 289 53 290 209 290 54 290 209 291 210 291 54 291 54 292 211 292 52 292 210 293 211 293 54 293 52 294 212 294 44 294 211 295 212 295 52 295 44 296 213 296 46 296 212 297 213 297 44 297 213 298 214 298 46 298 46 299 214 299 45 299 214 300 215 300 45 300 45 301 215 301 40 301 215 302 216 302 40 302 40 303 216 303 41 303 216 304 217 304 41 304 41 305 217 305 37 305 37 306 217 306 38 306 217 307 218 307 38 307 218 308 219 308 38 308 38 309 219 309 36 309 219 310 220 310 36 310 36 311 220 311 31 311 220 312 221 312 31 312 31 313 221 313 29 313 221 314 222 314 29 314 29 315 222 315 30 315 222 316 223 316 30 316 30 317 223 317 25 317 223 318 224 318 25 318 25 319 224 319 23 319 224 320 225 320 23 320 23 321 225 321 24 321 225 322 226 322 24 322 24 323 226 323 20 323 20 324 227 324 14 324 226 325 227 325 20 325 14 326 228 326 15 326 227 327 228 327 14 327 15 328 229 328 13 328 228 329 229 329 15 329 13 330 230 330 11 330 11 331 230 331 12 331 229 332 230 332 13 332 230 333 231 333 12 333 12 334 232 334 10 334 231 335 232 335 12 335 10 336 233 336 1 336 232 337 233 337 10 337 1 338 234 338 2 338 233 339 234 339 1 339 2 340 235 340 0 340 234 341 235 341 2 341 0 342 236 342 3 342 235 343 236 343 0 343 3 344 237 344 4 344 236 345 237 345 3 345 237 346 238 346 4 346 4 347 238 347 7 347 238 348 239 348 7 348 7 349 239 349 5 349 239 350 240 350 5 350 5 351 240 351 8 351 240 352 241 352 8 352 8 353 241 353 6 353 241 354 242 354 6 354 6 355 242 355 9 355 9 356 243 356 17 356 242 357 243 357 9 357 17 358 244 358 18 358 243 359 244 359 17 359 18 360 245 360 19 360 19 361 245 361 16 361 244 362 245 362 18 362 245 363 246 363 16 363 16 364 247 364 21 364 246 365 247 365 16 365 21 366 248 366 22 366 247 367 248 367 21 367 22 368 249 368 26 368 248 369 249 369 22 369 26 370 250 370 27 370 249 371 250 371 26 371 27 372 251 372 28 372 28 373 251 373 34 373 250 374 251 374 27 374 251 375 127 375 34 375 205 376 252 376 253 376 203 377 252 377 204 377 204 378 252 378 205 378 253 379 254 379 205 379 205 380 254 380 206 380 206 381 254 381 207 381 203 382 255 382 252 382 254 383 256 383 207 383 203 384 257 384 255 384 202 385 257 385 203 385 256 386 258 386 207 386 207 387 258 387 208 387 208 388 258 388 209 388 202 389 259 389 257 389 201 390 259 390 202 390 258 391 260 391 209 391 209 392 260 392 210 392 201 393 261 393 259 393 200 394 261 394 201 394 260 395 262 395 210 395 200 396 263 396 261 396 199 397 263 397 200 397 262 398 264 398 210 398 210 399 264 399 211 399 211 400 264 400 212 400 198 401 265 401 199 401 199 402 265 402 263 402 264 403 266 403 212 403 196 404 267 404 197 404 197 405 267 405 198 405 198 406 267 406 265 406 266 407 268 407 212 407 212 408 268 408 213 408 196 409 269 409 267 409 213 410 270 410 214 410 214 411 270 411 215 411 268 412 270 412 213 412 195 413 271 413 196 413 196 414 271 414 269 414 270 415 272 415 215 415 194 416 273 416 195 416 195 417 273 417 271 417 215 418 274 418 216 418 272 419 274 419 215 419 216 420 274 420 217 420 193 421 275 421 194 421 194 422 275 422 273 422 274 423 276 423 217 423 193 424 277 424 275 424 191 425 277 425 192 425 192 426 277 426 193 426 217 427 278 427 218 427 276 428 278 428 217 428 191 429 279 429 277 429 278 430 280 430 218 430 218 431 280 431 219 431 189 432 281 432 190 432 190 433 281 433 191 433 191 434 281 434 279 434 280 435 282 435 219 435 219 436 282 436 220 436 189 437 283 437 281 437 282 438 284 438 220 438 220 439 284 439 221 439 188 440 285 440 189 440 189 441 285 441 283 441 284 442 286 442 221 442 221 443 286 443 222 443 188 444 287 444 285 444 187 445 287 445 188 445 286 446 288 446 222 446 222 447 288 447 223 447 187 448 289 448 287 448 186 449 289 449 187 449 288 450 290 450 223 450 223 451 290 451 224 451 224 452 290 452 225 452 186 453 291 453 289 453 185 454 291 454 186 454 290 455 292 455 225 455 185 456 293 456 291 456 184 457 293 457 185 457 292 458 294 458 225 458 225 459 294 459 226 459 184 460 295 460 293 460 183 461 295 461 184 461 226 462 296 462 227 462 227 463 296 463 228 463 294 464 296 464 226 464 183 465 297 465 295 465 182 466 297 466 183 466 296 467 298 467 228 467 181 468 299 468 182 468 182 469 299 469 297 469 228 470 300 470 229 470 298 471 300 471 228 471 181 472 301 472 299 472 180 473 301 473 181 473 229 474 302 474 230 474 230 475 302 475 231 475 300 476 302 476 229 476 178 477 303 477 179 477 179 478 303 478 180 478 180 479 303 479 301 479 302 480 304 480 231 480 177 481 305 481 178 481 178 482 305 482 303 482 231 483 306 483 232 483 304 484 306 484 231 484 177 485 307 485 305 485 232 486 308 486 233 486 306 487 308 487 232 487 176 488 309 488 177 488 177 489 309 489 307 489 233 490 310 490 234 490 234 491 310 491 235 491 308 492 310 492 233 492 175 493 311 493 176 493 176 494 311 494 309 494 310 495 312 495 235 495 174 496 313 496 175 496 175 497 313 497 311 497 235 498 314 498 236 498 312 499 314 499 235 499 313 500 173 500 315 500 174 501 173 501 313 501 316 502 237 502 314 502 317 503 237 503 316 503 314 504 237 504 236 504 173 505 172 505 315 505 318 506 172 506 319 506 315 507 172 507 318 507 317 508 238 508 237 508 172 509 171 509 319 509 319 510 171 510 320 510 317 511 239 511 238 511 321 512 239 512 317 512 171 513 170 513 320 513 321 514 240 514 239 514 322 515 240 515 321 515 170 516 169 516 320 516 320 517 169 517 323 517 322 518 241 518 240 518 324 519 241 519 322 519 323 520 168 520 325 520 169 521 168 521 323 521 326 522 242 522 324 522 324 523 242 523 241 523 327 524 167 524 328 524 325 525 167 525 327 525 168 526 167 526 325 526 329 527 243 527 326 527 326 528 243 528 242 528 167 529 166 529 328 529 330 530 244 530 329 530 331 531 244 531 330 531 329 532 244 532 243 532 166 533 165 533 328 533 328 534 165 534 332 534 331 535 245 535 244 535 165 536 164 536 332 536 333 537 164 537 334 537 332 538 164 538 333 538 335 539 246 539 331 539 331 540 246 540 245 540 164 541 163 541 334 541 335 542 247 542 246 542 336 543 247 543 335 543 334 544 162 544 337 544 163 545 162 545 334 545 336 546 248 546 247 546 338 547 248 547 336 547 337 548 161 548 339 548 162 549 161 549 337 549 338 550 249 550 248 550 340 551 249 551 338 551 339 552 160 552 341 552 161 553 160 553 339 553 342 554 250 554 340 554 340 555 250 555 249 555 343 556 159 556 344 556 341 557 159 557 343 557 160 558 159 558 341 558 342 559 251 559 250 559 345 560 251 560 342 560 159 561 158 561 344 561 345 562 127 562 251 562 346 563 127 563 345 563 344 564 157 564 347 564 158 565 157 565 344 565 348 566 126 566 346 566 346 567 126 567 127 567 157 568 156 568 347 568 347 569 156 569 349 569 350 570 128 570 348 570 348 571 128 571 126 571 349 572 155 572 351 572 156 573 155 573 349 573 352 574 129 574 350 574 350 575 129 575 128 575 155 576 154 576 351 576 353 577 154 577 354 577 351 578 154 578 353 578 355 579 130 579 352 579 356 580 130 580 355 580 352 581 130 581 129 581 154 582 153 582 354 582 356 583 131 583 130 583 153 584 152 584 354 584 354 585 152 585 357 585 358 586 132 586 356 586 356 587 132 587 131 587 152 588 151 588 357 588 357 589 151 589 359 589 360 590 133 590 358 590 358 591 133 591 132 591 151 592 150 592 359 592 359 593 150 593 361 593 362 594 134 594 360 594 360 595 134 595 133 595 150 596 149 596 361 596 363 597 149 597 364 597 361 598 149 598 363 598 362 599 135 599 134 599 365 600 135 600 362 600 149 601 148 601 364 601 365 602 136 602 135 602 366 603 136 603 365 603 148 604 147 604 364 604 364 605 147 605 367 605 366 606 137 606 136 606 368 607 137 607 366 607 147 608 146 608 367 608 367 609 146 609 369 609 370 610 138 610 368 610 371 611 138 611 370 611 368 612 138 612 137 612 146 613 145 613 369 613 372 614 145 614 373 614 369 615 145 615 372 615 371 616 139 616 138 616 145 617 144 617 373 617 373 618 144 618 374 618 375 619 140 619 371 619 371 620 140 620 139 620 144 621 143 621 374 621 375 622 141 622 140 622 376 623 141 623 375 623 377 624 142 624 376 624 374 625 142 625 377 625 143 626 142 626 374 626 376 627 142 627 141 627 346 628 378 628 348 628 379 629 378 629 346 629 348 630 380 630 350 630 350 631 380 631 352 631 378 632 380 632 348 632 380 633 381 633 352 633 352 634 382 634 355 634 355 635 382 635 356 635 381 636 382 636 352 636 382 637 383 637 356 637 356 638 384 638 358 638 383 639 384 639 356 639 358 640 385 640 360 640 360 641 385 641 362 641 384 642 385 642 358 642 385 643 386 643 362 643 362 644 387 644 365 644 386 645 387 645 362 645 365 646 388 646 366 646 387 647 388 647 365 647 388 648 389 648 366 648 366 649 389 649 368 649 368 650 389 650 370 650 389 651 390 651 370 651 390 652 391 652 370 652 370 653 391 653 371 653 371 654 392 654 375 654 391 655 392 655 371 655 375 656 393 656 376 656 376 657 393 657 377 657 392 658 393 658 375 658 393 659 394 659 377 659 377 660 395 660 374 660 394 661 395 661 377 661 374 662 396 662 373 662 373 663 396 663 372 663 395 664 396 664 374 664 396 665 397 665 372 665 372 666 398 666 369 666 397 667 398 667 372 667 369 668 399 668 367 668 398 669 399 669 369 669 367 670 400 670 364 670 399 671 400 671 367 671 364 672 401 672 363 672 400 673 401 673 364 673 363 674 402 674 361 674 401 675 402 675 363 675 361 676 403 676 359 676 402 677 403 677 361 677 359 678 404 678 357 678 403 679 404 679 359 679 357 680 405 680 354 680 404 681 405 681 357 681 354 682 406 682 353 682 353 683 406 683 351 683 405 684 406 684 354 684 406 685 407 685 351 685 351 686 408 686 349 686 407 687 408 687 351 687 349 688 409 688 347 688 408 689 409 689 349 689 347 690 410 690 344 690 409 691 410 691 347 691 344 692 411 692 343 692 410 693 411 693 344 693 343 694 412 694 341 694 411 695 412 695 343 695 341 696 413 696 339 696 412 697 413 697 341 697 339 698 414 698 337 698 413 699 414 699 339 699 337 700 415 700 334 700 334 701 415 701 333 701 414 702 415 702 337 702 415 703 416 703 333 703 333 704 416 704 332 704 416 705 417 705 332 705 417 706 418 706 332 706 332 707 418 707 328 707 418 708 419 708 328 708 328 709 419 709 327 709 419 710 420 710 327 710 327 711 420 711 325 711 420 712 421 712 325 712 325 713 421 713 323 713 421 714 422 714 323 714 323 715 422 715 320 715 422 716 423 716 320 716 320 717 423 717 319 717 423 718 424 718 319 718 319 719 424 719 318 719 318 720 424 720 315 720 424 721 425 721 315 721 315 722 426 722 313 722 425 723 426 723 315 723 313 724 427 724 311 724 426 725 427 725 313 725 311 726 428 726 309 726 309 727 428 727 307 727 427 728 428 728 311 728 428 729 429 729 307 729 307 730 430 730 305 730 305 731 430 731 303 731 429 732 430 732 307 732 430 733 431 733 303 733 303 734 432 734 301 734 301 735 432 735 299 735 431 736 432 736 303 736 432 737 433 737 299 737 299 738 434 738 297 738 433 739 434 739 299 739 297 740 435 740 295 740 295 741 435 741 293 741 434 742 435 742 297 742 435 743 436 743 293 743 293 744 437 744 291 744 436 745 437 745 293 745 291 746 438 746 289 746 437 747 438 747 291 747 289 748 439 748 287 748 438 749 439 749 289 749 287 750 440 750 285 750 285 751 440 751 283 751 439 752 440 752 287 752 440 753 441 753 283 753 283 754 441 754 281 754 441 755 442 755 281 755 442 756 443 756 281 756 281 757 443 757 279 757 279 758 443 758 277 758 443 759 444 759 277 759 277 760 444 760 275 760 444 761 445 761 275 761 275 762 445 762 273 762 445 763 446 763 273 763 446 764 447 764 273 764 273 765 447 765 271 765 271 766 447 766 269 766 447 767 448 767 269 767 448 768 449 768 269 768 269 769 449 769 267 769 449 770 450 770 267 770 267 771 450 771 265 771 265 772 450 772 263 772 450 773 451 773 263 773 451 774 452 774 263 774 263 775 452 775 261 775 452 776 453 776 261 776 261 777 453 777 259 777 453 778 454 778 259 778 259 779 454 779 257 779 257 780 454 780 255 780 454 781 455 781 255 781 455 782 456 782 255 782 255 783 456 783 252 783 456 784 457 784 252 784 252 785 457 785 253 785 253 786 457 786 254 786 457 787 458 787 254 787 458 788 459 788 254 788 254 789 459 789 256 789 459 790 460 790 256 790 256 791 460 791 258 791 258 792 461 792 260 792 460 793 461 793 258 793 260 794 461 794 262 794 461 795 462 795 262 795 262 796 463 796 264 796 462 797 463 797 262 797 264 798 464 798 266 798 463 799 464 799 264 799 266 800 465 800 268 800 464 801 465 801 266 801 465 802 466 802 268 802 268 803 466 803 270 803 466 804 467 804 270 804 270 805 467 805 272 805 467 806 468 806 272 806 272 807 468 807 274 807 468 808 469 808 274 808 274 809 469 809 276 809 276 810 469 810 278 810 469 811 470 811 278 811 470 812 471 812 278 812 278 813 471 813 280 813 471 814 472 814 280 814 280 815 472 815 282 815 472 816 473 816 282 816 282 817 473 817 284 817 473 818 474 818 284 818 284 819 474 819 286 819 474 820 475 820 286 820 286 821 475 821 288 821 475 822 476 822 288 822 288 823 476 823 290 823 476 824 477 824 290 824 290 825 477 825 292 825 477 826 478 826 292 826 292 827 478 827 294 827 294 828 479 828 296 828 478 829 479 829 294 829 296 830 480 830 298 830 479 831 480 831 296 831 298 832 481 832 300 832 480 833 481 833 298 833 300 834 482 834 302 834 302 835 482 835 304 835 481 836 482 836 300 836 482 837 483 837 304 837 304 838 484 838 306 838 483 839 484 839 304 839 306 840 485 840 308 840 484 841 485 841 306 841 308 842 486 842 310 842 485 843 486 843 308 843 310 844 487 844 312 844 486 845 487 845 310 845 312 846 488 846 314 846 487 847 488 847 312 847 314 848 489 848 316 848 488 849 489 849 314 849 489 850 490 850 316 850 316 851 490 851 317 851 490 852 491 852 317 852 317 853 491 853 321 853 491 854 492 854 321 854 321 855 492 855 322 855 492 856 493 856 322 856 322 857 493 857 324 857 493 858 494 858 324 858 324 859 494 859 326 859 326 860 495 860 329 860 494 861 495 861 326 861 329 862 496 862 330 862 495 863 496 863 329 863 330 864 497 864 331 864 331 865 497 865 335 865 496 866 497 866 330 866 497 867 498 867 335 867 335 868 499 868 336 868 498 869 499 869 335 869 336 870 500 870 338 870 499 871 500 871 336 871 338 872 501 872 340 872 500 873 501 873 338 873 340 874 502 874 342 874 501 875 502 875 340 875 342 876 503 876 345 876 345 877 503 877 346 877 502 878 503 878 342 878 503 879 379 879 346 879 457 880 459 880 458 880 454 881 453 881 455 881 457 882 461 882 459 882 459 883 461 883 460 883 453 884 450 884 455 884 451 885 450 885 452 885 452 886 450 886 453 886 457 887 464 887 461 887 456 888 464 888 457 888 461 889 464 889 462 889 462 890 464 890 463 890 464 891 466 891 465 891 450 892 447 892 455 892 448 893 447 893 449 893 449 894 447 894 450 894 464 895 468 895 466 895 466 896 468 896 467 896 446 897 445 897 447 897 445 898 444 898 447 898 468 899 470 899 469 899 440 900 439 900 441 900 473 901 475 901 474 901 441 902 438 902 442 902 439 903 438 903 441 903 473 904 476 904 475 904 464 905 476 905 468 905 468 906 476 906 470 906 470 907 476 907 471 907 471 908 476 908 472 908 472 909 476 909 473 909 438 910 437 910 442 910 442 911 437 911 443 911 443 912 437 912 444 912 476 913 478 913 477 913 478 914 480 914 479 914 476 915 480 915 478 915 476 916 481 916 480 916 456 917 481 917 464 917 464 918 481 918 476 918 437 919 432 919 444 919 433 920 432 920 434 920 434 921 432 921 435 921 435 922 432 922 436 922 436 923 432 923 437 923 481 924 483 924 482 924 456 925 483 925 481 925 455 926 483 926 456 926 432 927 430 927 444 927 431 928 430 928 432 928 444 929 430 929 447 929 483 930 485 930 484 930 455 931 485 931 483 931 485 932 488 932 486 932 486 933 488 933 487 933 485 934 489 934 488 934 425 935 424 935 426 935 455 936 490 936 485 936 485 937 490 937 489 937 430 938 422 938 447 938 423 939 422 939 424 939 447 940 422 940 455 940 426 941 422 941 427 941 427 942 422 942 428 942 428 943 422 943 429 943 429 944 422 944 430 944 455 945 422 945 490 945 424 946 422 946 426 946 490 947 493 947 491 947 491 948 493 948 492 948 490 949 494 949 493 949 420 950 419 950 421 950 421 951 419 951 422 951 490 952 495 952 494 952 495 953 497 953 496 953 417 954 416 954 418 954 418 955 416 955 419 955 497 956 500 956 498 956 498 957 500 957 499 957 414 958 413 958 415 958 415 959 413 959 416 959 419 960 413 960 422 960 416 961 413 961 419 961 497 962 501 962 500 962 497 963 502 963 501 963 490 964 502 964 495 964 495 965 502 965 497 965 411 966 410 966 412 966 412 967 410 967 413 967 502 968 378 968 503 968 503 969 378 969 379 969 410 970 407 970 413 970 408 971 407 971 409 971 409 972 407 972 410 972 407 973 406 973 413 973 378 974 383 974 380 974 380 975 383 975 381 975 381 976 383 976 382 976 413 977 404 977 422 977 490 978 404 978 502 978 406 979 404 979 413 979 405 980 404 980 406 980 422 981 404 981 490 981 383 982 385 982 384 982 378 983 385 983 383 983 385 984 387 984 386 984 378 985 387 985 385 985 387 986 389 986 388 986 399 987 398 987 400 987 400 988 398 988 401 988 401 989 398 989 402 989 402 990 398 990 403 990 403 991 398 991 404 991 378 992 390 992 387 992 387 993 390 993 389 993 398 994 397 994 404 994 502 995 391 995 378 995 378 996 391 996 390 996 397 997 396 997 404 997 396 998 395 998 404 998 391 999 393 999 392 999 404 1000 394 1000 502 1000 395 1001 394 1001 404 1001 502 1002 394 1002 391 1002 391 1003 394 1003 393 1003</p>
        </triangles>
      </mesh>
    </geometry>
  </library_geometries>
  <library_materials>
    <material id="mat_Body010" name="Body010">
      <instance_effect url="#effect_Body010"/>
    </material>
  </library_materials>
  <library_visual_scenes>
    <visual_scene id="myscene">
      <node id="node0" name="node0">
        <instance_geometry url="#geometry0">
          <bind_material>
            <technique_common>
              <instance_material symbol="ref_Body010" target="#mat_Body010"/>
            </technique_common>
          </bind_material>
        </instance_geometry>
      </node>
    </visual_scene>
  </library_visual_scenes>
  <scene>
    <instance_visual_scene url="#myscene"/>
  </scene>
</COLLADA>
