<COLLADA xmlns="http://www.collada.org/2005/11/COLLADASchema" version="1.4.1">
  <asset>
    <contributor/>
    <created>2024-12-11T11:41:49.991757</created>
    <modified>2024-12-11T11:41:49.991765</modified>
    <unit name="meter" meter="1.0"/>
    <up_axis>Z_UP</up_axis>
  </asset>
  <library_effects>
    <effect id="effect_Compound" name="effect_Compound">
      <profile_COMMON>
        <technique sid="common">
          <phong>
            <emission>
              <color>0.0 0.0 0.0 1.0</color>
            </emission>
            <ambient>
              <color>0.0 0.0 0.0 1.0</color>
            </ambient>
            <diffuse>
              <color>0.14901961386203766 0.14901961386203766 0.14901961386203766 1.0</color>
            </diffuse>
            <specular>
              <color>1 1 1 1.0</color>
            </specular>
            <shininess>
              <float>0.0</float>
            </shininess>
            <reflective>
              <color>0.0 0.0 0.0 1.0</color>
            </reflective>
            <reflectivity>
              <float>0.0</float>
            </reflectivity>
            <transparent>
              <color>0.0 0.0 0.0 1.0</color>
            </transparent>
            <transparency>
              <float>1.0</float>
            </transparency>
          </phong>
        </technique>
        <extra>
          <technique profile="GOOGLEEARTH">
            <double_sided>0</double_sided>
          </technique>
        </extra>
      </profile_COMMON>
    </effect>
  </library_effects>
  <library_geometries>
    <geometry id="geometry0" name="Compound">
      <mesh>
        <source id="cubeverts-array0">
          <float_array count="3024" id="cubeverts-array0-array">0.022 -5.388446e-18 0.025 0.02197265 0.001096609 0.025 0.022 -5.388446e-18 0.0255 0.02197265 0.001096609 0.0255 0.02189068 0.002190493 0.025 0.02189068 0.002190493 0.0255 0.02175428 0.00327893 0.025 0.02175428 0.00327893 0.0255 0.0215638 0.004359215 0.025 0.0215638 0.004359215 0.0255 0.0213197 0.005428663 0.025 0.0213197 0.005428663 0.0255 0.0210226 0.006484614 0.025 0.0210226 0.006484614 0.0255 0.02067324 0.007524443 0.025 0.02067324 0.007524443 0.0255 0.02027248 0.008545566 0.025 0.02027248 0.008545566 0.0255 0.01982132 0.009545443 0.025 0.01982132 0.009545443 0.0255 0.01932088 0.01052159 0.025 0.01932088 0.01052159 0.0255 0.0187724 0.01147157 0.025 0.0187724 0.01147157 0.0255 0.01817725 0.01239304 0.025 0.01817725 0.01239304 0.0255 0.01753691 0.0132837 0.025 0.01753691 0.0132837 0.0255 0.01685298 0.01414133 0.025 0.01685298 0.01414133 0.0255 0.01612714 0.0149638 0.025 0.01612714 0.0149638 0.0255 0.01536121 0.01574907 0.025 0.01536121 0.01574907 0.0255 0.01455709 0.01649519 0.025 0.01455709 0.01649519 0.0255 0.01371678 0.01720029 0.025 0.01371678 0.01720029 0.0255 0.01284236 0.01786264 0.025 0.01284236 0.01786264 0.0255 0.01193602 0.01848057 0.0255 0.01193602 0.01848057 0.025 0.011 0.01905256 0.0255 0.011 0.01905256 0.025 0.01003663 0.01957718 0.025 0.01003663 0.01957718 0.0255 0.009048316 0.02005313 0.025 0.009048316 0.02005313 0.0255 0.008037502 0.02047922 0.025 0.008037502 0.02047922 0.0255 0.007006706 0.0208544 0.025 0.007006706 0.0208544 0.0255 0.00595849 0.02117773 0.025 0.00595849 0.02117773 0.0255 0.004895461 0.02144841 0.025 0.004895461 0.02144841 0.0255 0.00382026 0.02166577 0.025 0.00382026 0.02166577 0.0255 0.002735562 0.02182926 0.025 0.002735562 0.02182926 0.0255 0.001644062 0.02193848 0.025 0.001644062 0.02193848 0.0255 0.0005484752 0.02199316 0.025 0.0005484752 0.02199316 0.0255 -0.0005484752 0.02199316 0.025 -0.0005484752 0.02199316 0.0255 -0.001644062 0.02193848 0.0255 -0.001644062 0.02193848 0.025 -0.002735562 0.02182926 0.025 -0.002735562 0.02182926 0.0255 -0.00382026 0.02166577 0.025 -0.00382026 0.02166577 0.0255 -0.004895461 0.02144841 0.025 -0.004895461 0.02144841 0.0255 -0.00595849 0.02117773 0.025 -0.00595849 0.02117773 0.0255 -0.007006706 0.0208544 0.025 -0.007006706 0.0208544 0.0255 -0.008037502 0.02047922 0.025 -0.008037502 0.02047922 0.0255 -0.009048316 0.02005313 0.025 -0.009048316 0.02005313 0.0255 -0.01003663 0.01957718 0.025 -0.01003663 0.01957718 0.0255 -0.011 0.01905256 0.0255 -0.011 0.01905256 0.025 -0.01193602 0.01848057 0.025 -0.01193602 0.01848057 0.0255 -0.01284236 0.01786264 0.025 -0.01284236 0.01786264 0.0255 -0.01371678 0.01720029 0.025 -0.01371678 0.01720029 0.0255 -0.01455709 0.01649519 0.025 -0.01455709 0.01649519 0.0255 -0.01536121 0.01574907 0.025 -0.01536121 0.01574907 0.0255 -0.01612714 0.0149638 0.025 -0.01612714 0.0149638 0.0255 -0.01685298 0.01414133 0.025 -0.01685298 0.01414133 0.0255 -0.01753691 0.0132837 0.025 -0.01753691 0.0132837 0.0255 -0.01817725 0.01239304 0.025 -0.01817725 0.01239304 0.0255 -0.0187724 0.01147157 0.025 -0.0187724 0.01147157 0.0255 -0.01932088 0.01052159 0.025 -0.01932088 0.01052159 0.0255 -0.01982132 0.009545443 0.025 -0.01982132 0.009545443 0.0255 -0.02027248 0.008545566 0.025 -0.02027248 0.008545566 0.0255 -0.02067324 0.007524443 0.025 -0.02067324 0.007524443 0.0255 -0.0210226 0.006484614 0.025 -0.0210226 0.006484614 0.0255 -0.0213197 0.005428663 0.025 -0.0213197 0.005428663 0.0255 -0.0215638 0.004359215 0.025 -0.0215638 0.004359215 0.0255 -0.02175428 0.00327893 0.025 -0.02175428 0.00327893 0.0255 -0.02189068 0.002190493 0.025 -0.02189068 0.002190493 0.0255 -0.02197265 0.001096609 0.025 -0.02197265 0.001096609 0.0255 -0.022 -7.546548e-17 0.025 -0.022 -7.546548e-17 0.0255 -0.02197265 -0.001096609 0.025 -0.02197265 -0.001096609 0.0255 -0.02189068 -0.002190493 0.025 -0.02189068 -0.002190493 0.0255 -0.02175428 -0.00327893 0.025 -0.02175428 -0.00327893 0.0255 -0.0215638 -0.004359215 0.025 -0.0215638 -0.004359215 0.0255 -0.0213197 -0.005428663 0.025 -0.0213197 -0.005428663 0.0255 -0.0210226 -0.006484614 0.025 -0.0210226 -0.006484614 0.0255 -0.02067324 -0.007524443 0.025 -0.02067324 -0.007524443 0.0255 -0.02027248 -0.008545566 0.025 -0.02027248 -0.008545566 0.0255 -0.01982132 -0.009545443 0.025 -0.01982132 -0.009545443 0.0255 -0.01932088 -0.01052159 0.025 -0.01932088 -0.01052159 0.0255 -0.0187724 -0.01147157 0.0255 -0.0187724 -0.01147157 0.025 -0.01817725 -0.01239304 0.025 -0.01817725 -0.01239304 0.0255 -0.01753691 -0.0132837 0.025 -0.01753691 -0.0132837 0.0255 -0.01685298 -0.01414133 0.025 -0.01685298 -0.01414133 0.0255 -0.01612714 -0.0149638 0.025 -0.01612714 -0.0149638 0.0255 -0.01536121 -0.01574907 0.025 -0.01536121 -0.01574907 0.0255 -0.01455709 -0.01649519 0.025 -0.01455709 -0.01649519 0.0255 -0.01371678 -0.01720029 0.025 -0.01371678 -0.01720029 0.0255 -0.01284236 -0.01786264 0.025 -0.01284236 -0.01786264 0.0255 -0.01193602 -0.01848057 0.025 -0.01193602 -0.01848057 0.0255 -0.011 -0.01905256 0.025 -0.011 -0.01905256 0.0255 -0.01003663 -0.01957718 0.025 -0.01003663 -0.01957718 0.0255 -0.009048316 -0.02005313 0.025 -0.009048316 -0.02005313 0.0255 -0.008037502 -0.02047922 0.025 -0.008037502 -0.02047922 0.0255 -0.007006706 -0.0208544 0.025 -0.007006706 -0.0208544 0.0255 -0.00595849 -0.02117773 0.025 -0.00595849 -0.02117773 0.0255 -0.004895461 -0.02144841 0.025 -0.004895461 -0.02144841 0.0255 -0.00382026 -0.02166577 0.025 -0.00382026 -0.02166577 0.0255 -0.002735562 -0.02182926 0.025 -0.002735562 -0.02182926 0.0255 -0.001644062 -0.02193848 0.025 -0.001644062 -0.02193848 0.0255 -0.0005484752 -0.02199316 0.025 -0.0005484752 -0.02199316 0.0255 0.0005484752 -0.02199316 0.025 0.0005484752 -0.02199316 0.0255 0.001644062 -0.02193848 0.025 0.001644062 -0.02193848 0.0255 0.002735562 -0.02182926 0.025 0.002735562 -0.02182926 0.0255 0.00382026 -0.02166577 0.025 0.00382026 -0.02166577 0.0255 0.004895461 -0.02144841 0.025 0.004895461 -0.02144841 0.0255 0.00595849 -0.02117773 0.025 0.00595849 -0.02117773 0.0255 0.007006706 -0.0208544 0.025 0.007006706 -0.0208544 0.0255 0.008037502 -0.02047922 0.025 0.008037502 -0.02047922 0.0255 0.009048316 -0.02005313 0.025 0.009048316 -0.02005313 0.0255 0.01003663 -0.01957718 0.025 0.01003663 -0.01957718 0.0255 0.011 -0.01905256 0.025 0.011 -0.01905256 0.0255 0.01193602 -0.01848057 0.025 0.01193602 -0.01848057 0.0255 0.01284236 -0.01786264 0.025 0.01284236 -0.01786264 0.0255 0.01371678 -0.01720029 0.025 0.01371678 -0.01720029 0.0255 0.01455709 -0.01649519 0.025 0.01455709 -0.01649519 0.0255 0.01536121 -0.01574907 0.025 0.01536121 -0.01574907 0.0255 0.01612714 -0.0149638 0.025 0.01612714 -0.0149638 0.0255 0.01685298 -0.01414133 0.025 0.01685298 -0.01414133 0.0255 0.01753691 -0.0132837 0.025 0.01753691 -0.0132837 0.0255 0.01817725 -0.01239304 0.025 0.01817725 -0.01239304 0.0255 0.0187724 -0.01147157 0.025 0.0187724 -0.01147157 0.0255 0.01932088 -0.01052159 0.025 0.01932088 -0.01052159 0.0255 0.01982132 -0.009545443 0.025 0.01982132 -0.009545443 0.0255 0.02027248 -0.008545566 0.025 0.02027248 -0.008545566 0.0255 0.02067324 -0.007524443 0.025 0.02067324 -0.007524443 0.0255 0.0210226 -0.006484614 0.025 0.0210226 -0.006484614 0.0255 0.0213197 -0.005428663 0.025 0.0213197 -0.005428663 0.0255 0.0215638 -0.004359215 0.025 0.0215638 -0.004359215 0.0255 0.02175428 -0.00327893 0.025 0.02175428 -0.00327893 0.0255 0.02189068 -0.002190493 0.025 0.02189068 -0.002190493 0.0255 0.02197265 -0.001096609 0.025 0.02197265 -0.001096609 0.0255 0.0225 -5.510911e-18 0.0295 0.02247203 0.001121532 0.0295 0.0225 -5.510911e-18 0.031 0.02247203 0.001121532 0.031 0.02238819 0.002240277 0.0295 0.02238819 0.002240277 0.031 0.02224869 0.003353451 0.0295 0.02224869 0.003353451 0.031 0.02205388 0.004458288 0.0295 0.02205388 0.004458288 0.031 0.02180424 0.005552042 0.031 0.02180424 0.005552042 0.0295 0.02150039 0.006631991 0.031 0.02150039 0.006631991 0.0295 0.02114308 0.007695453 0.0295 0.02114308 0.007695453 0.031 0.02073322 0.008739783 0.0295 0.02073322 0.008739783 0.031 0.0202718 0.009762384 0.031 0.0202718 0.009762384 0.0295 0.01975998 0.01076071 0.0295 0.01975998 0.01076071 0.031 0.01919905 0.01173229 0.0295 0.01919905 0.01173229 0.031 0.01859037 0.0126747 0.0295 0.01859037 0.0126747 0.031 0.01793548 0.0135856 0.0295 0.01793548 0.0135856 0.031 0.017236 0.01446272 0.0295 0.017236 0.01446272 0.031 0.01649367 0.01530389 0.0295 0.01649367 0.01530389 0.031 0.01571033 0.016107 0.0295 0.01571033 0.016107 0.031 0.01488793 0.01687008 0.0295 0.01488793 0.01687008 0.031 0.01402852 0.01759121 0.0295 0.01402852 0.01759121 0.031 0.01313423 0.0182686 0.0295 0.01313423 0.0182686 0.031 0.01220729 0.01890058 0.0295 0.01220729 0.01890058 0.031 0.01125 0.01948557 0.031 0.01125 0.01948557 0.0295 0.01026474 0.02002212 0.0295 0.01026474 0.02002212 0.031 0.00925396 0.02050888 0.031 0.00925396 0.02050888 0.0295 0.008220173 0.02094466 0.0295 0.008220173 0.02094466 0.031 0.00716595 0.02132837 0.031 0.00716595 0.02132837 0.0295 0.006093911 0.02165905 0.0295 0.006093911 0.02165905 0.031 0.005006721 0.02193588 0.0295 0.005006721 0.02193588 0.031 0.003907084 0.02215817 0.031 0.003907084 0.02215817 0.0295 0.002797733 0.02232538 0.031 0.002797733 0.02232538 0.0295 0.001681427 0.02243709 0.0295 0.001681427 0.02243709 0.031 0.0005609406 0.02249301 0.031 0.0005609406 0.02249301 0.0295 -0.0005609406 0.02249301 0.0295 -0.0005609406 0.02249301 0.031 -0.001681427 0.02243709 0.031 -0.001681427 0.02243709 0.0295 -0.002797733 0.02232538 0.0295 -0.002797733 0.02232538 0.031 -0.003907084 0.02215817 0.031 -0.003907084 0.02215817 0.0295 -0.005006721 0.02193588 0.0295 -0.005006721 0.02193588 0.031 -0.006093911 0.02165905 0.0295 -0.006093911 0.02165905 0.031 -0.00716595 0.02132837 0.0295 -0.00716595 0.02132837 0.031 -0.008220173 0.02094466 0.0295 -0.008220173 0.02094466 0.031 -0.00925396 0.02050888 0.0295 -0.00925396 0.02050888 0.031 -0.01026474 0.02002212 0.031 -0.01026474 0.02002212 0.0295 -0.01125 0.01948557 0.0295 -0.01125 0.01948557 0.031 -0.01220729 0.01890058 0.0295 -0.01220729 0.01890058 0.031 -0.01313423 0.0182686 0.0295 -0.01313423 0.0182686 0.031 -0.01402852 0.01759121 0.0295 -0.01402852 0.01759121 0.031 -0.01488793 0.01687008 0.0295 -0.01488793 0.01687008 0.031 -0.01571033 0.016107 0.0295 -0.01571033 0.016107 0.031 -0.01649367 0.01530389 0.0295 -0.01649367 0.01530389 0.031 -0.017236 0.01446272 0.0295 -0.017236 0.01446272 0.031 -0.01793548 0.0135856 0.0295 -0.01793548 0.0135856 0.031 -0.01859037 0.0126747 0.0295 -0.01859037 0.0126747 0.031 -0.01919905 0.01173229 0.0295 -0.01919905 0.01173229 0.031 -0.01975998 0.01076071 0.0295 -0.01975998 0.01076071 0.031 -0.0202718 0.009762384 0.0295 -0.0202718 0.009762384 0.031 -0.02073322 0.008739783 0.0295 -0.02073322 0.008739783 0.031 -0.02114308 0.007695453 0.0295 -0.02114308 0.007695453 0.031 -0.02150039 0.006631991 0.0295 -0.02150039 0.006631991 0.031 -0.02180424 0.005552042 0.0295 -0.02180424 0.005552042 0.031 -0.02205388 0.004458288 0.0295 -0.02205388 0.004458288 0.031 -0.02224869 0.003353451 0.0295 -0.02224869 0.003353451 0.031 -0.02238819 0.002240277 0.0295 -0.02238819 0.002240277 0.031 -0.02247203 0.001121532 0.0295 -0.02247203 0.001121532 0.031 -0.0225 -7.718061e-17 0.0295 -0.0225 -7.718061e-17 0.031 -0.02247203 -0.001121532 0.0295 -0.02247203 -0.001121532 0.031 -0.02238819 -0.002240277 0.0295 -0.02238819 -0.002240277 0.031 -0.02224869 -0.003353451 0.0295 -0.02224869 -0.003353451 0.031 -0.02205388 -0.004458288 0.0295 -0.02205388 -0.004458288 0.031 -0.02180424 -0.005552042 0.0295 -0.02180424 -0.005552042 0.031 -0.02150039 -0.006631991 0.0295 -0.02150039 -0.006631991 0.031 -0.02114308 -0.007695453 0.0295 -0.02114308 -0.007695453 0.031 -0.02073322 -0.008739783 0.0295 -0.02073322 -0.008739783 0.031 -0.0202718 -0.009762384 0.0295 -0.0202718 -0.009762384 0.031 -0.01975998 -0.01076071 0.0295 -0.01975998 -0.01076071 0.031 -0.01919905 -0.01173229 0.0295 -0.01919905 -0.01173229 0.031 -0.01859037 -0.0126747 0.0295 -0.01859037 -0.0126747 0.031 -0.01793548 -0.0135856 0.0295 -0.01793548 -0.0135856 0.031 -0.017236 -0.01446272 0.0295 -0.017236 -0.01446272 0.031 -0.01649367 -0.01530389 0.0295 -0.01649367 -0.01530389 0.031 -0.01571033 -0.016107 0.0295 -0.01571033 -0.016107 0.031 -0.01488793 -0.01687008 0.0295 -0.01488793 -0.01687008 0.031 -0.01402852 -0.01759121 0.0295 -0.01402852 -0.01759121 0.031 -0.01313423 -0.0182686 0.0295 -0.01313423 -0.0182686 0.031 -0.01220729 -0.01890058 0.0295 -0.01220729 -0.01890058 0.031 -0.01125 -0.01948557 0.0295 -0.01125 -0.01948557 0.031 -0.01026474 -0.02002212 0.0295 -0.01026474 -0.02002212 0.031 -0.00925396 -0.02050888 0.0295 -0.00925396 -0.02050888 0.031 -0.008220173 -0.02094466 0.0295 -0.008220173 -0.02094466 0.031 -0.00716595 -0.02132837 0.0295 -0.00716595 -0.02132837 0.031 -0.006093911 -0.02165905 0.0295 -0.006093911 -0.02165905 0.031 -0.005006721 -0.02193588 0.0295 -0.005006721 -0.02193588 0.031 -0.003907084 -0.02215817 0.0295 -0.003907084 -0.02215817 0.031 -0.002797733 -0.02232538 0.0295 -0.002797733 -0.02232538 0.031 -0.001681427 -0.02243709 0.0295 -0.001681427 -0.02243709 0.031 -0.0005609406 -0.02249301 0.031 -0.0005609406 -0.02249301 0.0295 0.0005609406 -0.02249301 0.0295 0.0005609406 -0.02249301 0.031 0.001681427 -0.02243709 0.0295 0.001681427 -0.02243709 0.031 0.002797733 -0.02232538 0.0295 0.002797733 -0.02232538 0.031 0.003907084 -0.02215817 0.0295 0.003907084 -0.02215817 0.031 0.005006721 -0.02193588 0.031 0.005006721 -0.02193588 0.0295 0.006093911 -0.02165905 0.031 0.006093911 -0.02165905 0.0295 0.00716595 -0.02132837 0.0295 0.00716595 -0.02132837 0.031 0.008220173 -0.02094466 0.0295 0.008220173 -0.02094466 0.031 0.00925396 -0.02050888 0.0295 0.00925396 -0.02050888 0.031 0.01026474 -0.02002212 0.031 0.01026474 -0.02002212 0.0295 0.01125 -0.01948557 0.0295 0.01125 -0.01948557 0.031 0.01220729 -0.01890058 0.0295 0.01220729 -0.01890058 0.031 0.01313423 -0.0182686 0.0295 0.01313423 -0.0182686 0.031 0.01402852 -0.01759121 0.031 0.01402852 -0.01759121 0.0295 0.01488793 -0.01687008 0.0295 0.01488793 -0.01687008 0.031 0.01571033 -0.016107 0.031 0.01571033 -0.016107 0.0295 0.01649367 -0.01530389 0.0295 0.01649367 -0.01530389 0.031 0.017236 -0.01446272 0.0295 0.017236 -0.01446272 0.031 0.01793548 -0.0135856 0.0295 0.01793548 -0.0135856 0.031 0.01859037 -0.0126747 0.0295 0.01859037 -0.0126747 0.031 0.01919905 -0.01173229 0.0295 0.01919905 -0.01173229 0.031 0.01975998 -0.01076071 0.0295 0.01975998 -0.01076071 0.031 0.0202718 -0.009762384 0.0295 0.0202718 -0.009762384 0.031 0.02073322 -0.008739783 0.0295 0.02073322 -0.008739783 0.031 0.02114308 -0.007695453 0.0295 0.02114308 -0.007695453 0.031 0.02150039 -0.006631991 0.0295 0.02150039 -0.006631991 0.031 0.02180424 -0.005552042 0.0295 0.02180424 -0.005552042 0.031 0.02205388 -0.004458288 0.0295 0.02205388 -0.004458288 0.031 0.02224869 -0.003353451 0.0295 0.02224869 -0.003353451 0.031 0.02238819 -0.002240277 0.0295 0.02238819 -0.002240277 0.031 0.02247203 -0.001121532 0.0295 0.02247203 -0.001121532 0.031 0.0225 -5.510911e-18 0.0255 0.02247203 0.001121532 0.0255 0.02238819 0.002240277 0.0255 0.02224869 0.003353451 0.0255 0.02205388 0.004458288 0.0255 0.02180424 0.005552042 0.0255 0.02150039 0.006631991 0.0255 0.02114308 0.007695453 0.0255 0.02073322 0.008739783 0.0255 0.0202718 0.009762384 0.0255 0.01975998 0.01076071 0.0255 0.01919905 0.01173229 0.0255 0.01859037 0.0126747 0.0255 0.01793548 0.0135856 0.0255 0.017236 0.01446272 0.0255 0.01649367 0.01530389 0.0255 0.01571033 0.016107 0.0255 0.01488793 0.01687008 0.0255 0.01402852 0.01759121 0.0255 0.01313423 0.0182686 0.0255 0.01220729 0.01890058 0.0255 0.01125 0.01948557 0.0255 0.01026474 0.02002212 0.0255 0.00925396 0.02050888 0.0255 0.008220173 0.02094466 0.0255 0.00716595 0.02132837 0.0255 0.006093911 0.02165905 0.0255 0.005006721 0.02193588 0.0255 0.003907084 0.02215817 0.0255 0.002797733 0.02232538 0.0255 0.001681427 0.02243709 0.0255 0.0005609406 0.02249301 0.0255 -0.0005609406 0.02249301 0.0255 -0.001681427 0.02243709 0.0255 -0.002797733 0.02232538 0.0255 -0.003907084 0.02215817 0.0255 -0.005006721 0.02193588 0.0255 -0.006093911 0.02165905 0.0255 -0.00716595 0.02132837 0.0255 -0.008220173 0.02094466 0.0255 -0.00925396 0.02050888 0.0255 -0.01026474 0.02002212 0.0255 -0.01125 0.01948557 0.0255 -0.01220729 0.01890058 0.0255 -0.01313423 0.0182686 0.0255 -0.01402852 0.01759121 0.0255 -0.01488793 0.01687008 0.0255 -0.01571033 0.016107 0.0255 -0.01649367 0.01530389 0.0255 -0.017236 0.01446272 0.0255 -0.01793548 0.0135856 0.0255 -0.01859037 0.0126747 0.0255 -0.01919905 0.01173229 0.0255 -0.01975998 0.01076071 0.0255 -0.0202718 0.009762384 0.0255 -0.02073322 0.008739783 0.0255 -0.02114308 0.007695453 0.0255 -0.02150039 0.006631991 0.0255 -0.02180424 0.005552042 0.0255 -0.02205388 0.004458288 0.0255 -0.02224869 0.003353451 0.0255 -0.02238819 0.002240277 0.0255 -0.02247203 0.001121532 0.0255 -0.0225 -7.718061e-17 0.0255 -0.02247203 -0.001121532 0.0255 -0.02238819 -0.002240277 0.0255 -0.02224869 -0.003353451 0.0255 -0.02205388 -0.004458288 0.0255 -0.02180424 -0.005552042 0.0255 -0.02150039 -0.006631991 0.0255 -0.02114308 -0.007695453 0.0255 -0.02073322 -0.008739783 0.0255 -0.0202718 -0.009762384 0.0255 -0.01975998 -0.01076071 0.0255 -0.01919905 -0.01173229 0.0255 -0.01859037 -0.0126747 0.0255 -0.01793548 -0.0135856 0.0255 -0.017236 -0.01446272 0.0255 -0.01649367 -0.01530389 0.0255 -0.01571033 -0.016107 0.0255 -0.01488793 -0.01687008 0.0255 -0.01402852 -0.01759121 0.0255 -0.01313423 -0.0182686 0.0255 -0.01220729 -0.01890058 0.0255 -0.01125 -0.01948557 0.0255 -0.01026474 -0.02002212 0.0255 -0.00925396 -0.02050888 0.0255 -0.008220173 -0.02094466 0.0255 -0.00716595 -0.02132837 0.0255 -0.006093911 -0.02165905 0.0255 -0.005006721 -0.02193588 0.0255 -0.003907084 -0.02215817 0.0255 -0.002797733 -0.02232538 0.0255 -0.001681427 -0.02243709 0.0255 -0.0005609406 -0.02249301 0.0255 0.0005609406 -0.02249301 0.0255 0.001681427 -0.02243709 0.0255 0.002797733 -0.02232538 0.0255 0.003907084 -0.02215817 0.0255 0.005006721 -0.02193588 0.0255 0.006093911 -0.02165905 0.0255 0.00716595 -0.02132837 0.0255 0.008220173 -0.02094466 0.0255 0.00925396 -0.02050888 0.0255 0.01026474 -0.02002212 0.0255 0.01125 -0.01948557 0.0255 0.01220729 -0.01890058 0.0255 0.01313423 -0.0182686 0.0255 0.01402852 -0.01759121 0.0255 0.01488793 -0.01687008 0.0255 0.01571033 -0.016107 0.0255 0.01649367 -0.01530389 0.0255 0.017236 -0.01446272 0.0255 0.01793548 -0.0135856 0.0255 0.01859037 -0.0126747 0.0255 0.01919905 -0.01173229 0.0255 0.01975998 -0.01076071 0.0255 0.0202718 -0.009762384 0.0255 0.02073322 -0.008739783 0.0255 0.02114308 -0.007695453 0.0255 0.02150039 -0.006631991 0.0255 0.02180424 -0.005552042 0.0255 0.02205388 -0.004458288 0.0255 0.02224869 -0.003353451 0.0255 0.02238819 -0.002240277 0.0255 0.02247203 -0.001121532 0.0255 0.0225 -5.510911e-18 0.019 0.02247203 0.001121532 0.019 0.0225 -5.510911e-18 0.025 0.02247203 0.001121532 0.025 0.02238819 0.002240277 0.019 0.02238819 0.002240277 0.025 0.02224869 0.003353451 0.025 0.02224869 0.003353451 0.019 0.02205388 0.004458288 0.019 0.02205388 0.004458288 0.025 0.02180424 0.005552042 0.025 0.02180424 0.005552042 0.019 0.02150039 0.006631991 0.025 0.02150039 0.006631991 0.019 0.02114308 0.007695453 0.019 0.02114308 0.007695453 0.025 0.02073322 0.008739783 0.019 0.02073322 0.008739783 0.025 0.0202718 0.009762384 0.025 0.0202718 0.009762384 0.019 0.01975998 0.01076071 0.019 0.01975998 0.01076071 0.025 0.01919905 0.01173229 0.019 0.01919905 0.01173229 0.025 0.01859037 0.0126747 0.019 0.01859037 0.0126747 0.025 0.01793548 0.0135856 0.019 0.01793548 0.0135856 0.025 0.017236 0.01446272 0.019 0.017236 0.01446272 0.025 0.01649367 0.01530389 0.019 0.01649367 0.01530389 0.025 0.01571033 0.016107 0.019 0.01571033 0.016107 0.025 0.01488793 0.01687008 0.019 0.01488793 0.01687008 0.025 0.01402852 0.01759121 0.019 0.01402852 0.01759121 0.025 0.01313423 0.0182686 0.019 0.01313423 0.0182686 0.025 0.01220729 0.01890058 0.019 0.01220729 0.01890058 0.025 0.01125 0.01948557 0.025 0.01125 0.01948557 0.019 0.01026474 0.02002212 0.019 0.01026474 0.02002212 0.025 0.00925396 0.02050888 0.025 0.00925396 0.02050888 0.019 0.008220173 0.02094466 0.019 0.008220173 0.02094466 0.025 0.00716595 0.02132837 0.025 0.00716595 0.02132837 0.019 0.006093911 0.02165905 0.019 0.006093911 0.02165905 0.025 0.005006721 0.02193588 0.019 0.005006721 0.02193588 0.025 0.003907084 0.02215817 0.025 0.003907084 0.02215817 0.019 0.002797733 0.02232538 0.025 0.002797733 0.02232538 0.019 0.001681427 0.02243709 0.019 0.001681427 0.02243709 0.025 0.0005609406 0.02249301 0.025 0.0005609406 0.02249301 0.019 -0.0005609406 0.02249301 0.019 -0.0005609406 0.02249301 0.025 -0.001681427 0.02243709 0.025 -0.001681427 0.02243709 0.019 -0.002797733 0.02232538 0.019 -0.002797733 0.02232538 0.025 -0.003907084 0.02215817 0.025 -0.003907084 0.02215817 0.019 -0.005006721 0.02193588 0.019 -0.005006721 0.02193588 0.025 -0.006093911 0.02165905 0.019 -0.006093911 0.02165905 0.025 -0.00716595 0.02132837 0.019 -0.00716595 0.02132837 0.025 -0.008220173 0.02094466 0.019 -0.008220173 0.02094466 0.025 -0.00925396 0.02050888 0.019 -0.00925396 0.02050888 0.025 -0.01026474 0.02002212 0.025 -0.01026474 0.02002212 0.019 -0.01125 0.01948557 0.019 -0.01125 0.01948557 0.025 -0.01220729 0.01890058 0.019 -0.01220729 0.01890058 0.025 -0.01313423 0.0182686 0.019 -0.01313423 0.0182686 0.025 -0.01402852 0.01759121 0.019 -0.01402852 0.01759121 0.025 -0.01488793 0.01687008 0.019 -0.01488793 0.01687008 0.025 -0.01571033 0.016107 0.019 -0.01571033 0.016107 0.025 -0.01649367 0.01530389 0.019 -0.01649367 0.01530389 0.025 -0.017236 0.01446272 0.019 -0.017236 0.01446272 0.025 -0.01793548 0.0135856 0.019 -0.01793548 0.0135856 0.025 -0.01859037 0.0126747 0.019 -0.01859037 0.0126747 0.025 -0.01919905 0.01173229 0.019 -0.01919905 0.01173229 0.025 -0.01975998 0.01076071 0.019 -0.01975998 0.01076071 0.025 -0.0202718 0.009762384 0.019 -0.0202718 0.009762384 0.025 -0.02073322 0.008739783 0.019 -0.02073322 0.008739783 0.025 -0.02114308 0.007695453 0.019 -0.02114308 0.007695453 0.025 -0.02150039 0.006631991 0.019 -0.02150039 0.006631991 0.025 -0.02180424 0.005552042 0.019 -0.02180424 0.005552042 0.025 -0.02205388 0.004458288 0.019 -0.02205388 0.004458288 0.025 -0.02224869 0.003353451 0.019 -0.02224869 0.003353451 0.025 -0.02238819 0.002240277 0.019 -0.02238819 0.002240277 0.025 -0.02247203 0.001121532 0.019 -0.02247203 0.001121532 0.025 -0.0225 -7.718061e-17 0.019 -0.0225 -7.718061e-17 0.025 -0.02247203 -0.001121532 0.019 -0.02247203 -0.001121532 0.025 -0.02238819 -0.002240277 0.019 -0.02238819 -0.002240277 0.025 -0.02224869 -0.003353451 0.019 -0.02224869 -0.003353451 0.025 -0.02205388 -0.004458288 0.019 -0.02205388 -0.004458288 0.025 -0.02180424 -0.005552042 0.019 -0.02180424 -0.005552042 0.025 -0.02150039 -0.006631991 0.019 -0.02150039 -0.006631991 0.025 -0.02114308 -0.007695453 0.019 -0.02114308 -0.007695453 0.025 -0.02073322 -0.008739783 0.019 -0.02073322 -0.008739783 0.025 -0.0202718 -0.009762384 0.019 -0.0202718 -0.009762384 0.025 -0.01975998 -0.01076071 0.019 -0.01975998 -0.01076071 0.025 -0.01919905 -0.01173229 0.019 -0.01919905 -0.01173229 0.025 -0.01859037 -0.0126747 0.019 -0.01859037 -0.0126747 0.025 -0.01793548 -0.0135856 0.019 -0.01793548 -0.0135856 0.025 -0.017236 -0.01446272 0.019 -0.017236 -0.01446272 0.025 -0.01649367 -0.01530389 0.019 -0.01649367 -0.01530389 0.025 -0.01571033 -0.016107 0.019 -0.01571033 -0.016107 0.025 -0.01488793 -0.01687008 0.019 -0.01488793 -0.01687008 0.025 -0.01402852 -0.01759121 0.019 -0.01402852 -0.01759121 0.025 -0.01313423 -0.0182686 0.019 -0.01313423 -0.0182686 0.025 -0.01220729 -0.01890058 0.019 -0.01220729 -0.01890058 0.025 -0.01125 -0.01948557 0.019 -0.01125 -0.01948557 0.025 -0.01026474 -0.02002212 0.019 -0.01026474 -0.02002212 0.025 -0.00925396 -0.02050888 0.019 -0.00925396 -0.02050888 0.025 -0.008220173 -0.02094466 0.019 -0.008220173 -0.02094466 0.025 -0.00716595 -0.02132837 0.019 -0.00716595 -0.02132837 0.025 -0.006093911 -0.02165905 0.019 -0.006093911 -0.02165905 0.025 -0.005006721 -0.02193588 0.019 -0.005006721 -0.02193588 0.025 -0.003907084 -0.02215817 0.019 -0.003907084 -0.02215817 0.025 -0.002797733 -0.02232538 0.019 -0.002797733 -0.02232538 0.025 -0.001681427 -0.02243709 0.019 -0.001681427 -0.02243709 0.025 -0.0005609406 -0.02249301 0.025 -0.0005609406 -0.02249301 0.019 0.0005609406 -0.02249301 0.019 0.0005609406 -0.02249301 0.025 0.001681427 -0.02243709 0.019 0.001681427 -0.02243709 0.025 0.002797733 -0.02232538 0.019 0.002797733 -0.02232538 0.025 0.003907084 -0.02215817 0.019 0.003907084 -0.02215817 0.025 0.005006721 -0.02193588 0.025 0.005006721 -0.02193588 0.019 0.006093911 -0.02165905 0.025 0.006093911 -0.02165905 0.019 0.00716595 -0.02132837 0.019 0.00716595 -0.02132837 0.025 0.008220173 -0.02094466 0.019 0.008220173 -0.02094466 0.025 0.00925396 -0.02050888 0.019 0.00925396 -0.02050888 0.025 0.01026474 -0.02002212 0.025 0.01026474 -0.02002212 0.019 0.01125 -0.01948557 0.019 0.01125 -0.01948557 0.025 0.01220729 -0.01890058 0.019 0.01220729 -0.01890058 0.025 0.01313423 -0.0182686 0.019 0.01313423 -0.0182686 0.025 0.01402852 -0.01759121 0.025 0.01402852 -0.01759121 0.019 0.01488793 -0.01687008 0.019 0.01488793 -0.01687008 0.025 0.01571033 -0.016107 0.025 0.01571033 -0.016107 0.019 0.01649367 -0.01530389 0.019 0.01649367 -0.01530389 0.025 0.017236 -0.01446272 0.019 0.017236 -0.01446272 0.025 0.01793548 -0.0135856 0.019 0.01793548 -0.0135856 0.025 0.01859037 -0.0126747 0.019 0.01859037 -0.0126747 0.025 0.01919905 -0.01173229 0.019 0.01919905 -0.01173229 0.025 0.01975998 -0.01076071 0.019 0.01975998 -0.01076071 0.025 0.0202718 -0.009762384 0.019 0.0202718 -0.009762384 0.025 0.02073322 -0.008739783 0.019 0.02073322 -0.008739783 0.025 0.02114308 -0.007695453 0.019 0.02114308 -0.007695453 0.025 0.02150039 -0.006631991 0.019 0.02150039 -0.006631991 0.025 0.02180424 -0.005552042 0.019 0.02180424 -0.005552042 0.025 0.02205388 -0.004458288 0.019 0.02205388 -0.004458288 0.025 0.02224869 -0.003353451 0.019 0.02224869 -0.003353451 0.025 0.02238819 -0.002240277 0.019 0.02238819 -0.002240277 0.025 0.02247203 -0.001121532 0.019 0.02247203 -0.001121532 0.025 0.0225 -5.510911e-18 0.01 0.02247203 0.001121532 0.01 0.02238819 0.002240277 0.01 0.02224869 0.003353451 0.01 0.02205388 0.004458288 0.01 0.02180424 0.005552042 0.01 0.02150039 0.006631991 0.01 0.02114308 0.007695453 0.01 0.02073322 0.008739783 0.01 0.0202718 0.009762384 0.01 0.01975998 0.01076071 0.01 0.01919905 0.01173229 0.01 0.01859037 0.0126747 0.01 0.01793548 0.0135856 0.01 0.017236 0.01446272 0.01 0.01649367 0.01530389 0.01 0.01571033 0.016107 0.01 0.01488793 0.01687008 0.01 0.01402852 0.01759121 0.01 0.01313423 0.0182686 0.01 0.01220729 0.01890058 0.01 0.01125 0.01948557 0.01 0.01026474 0.02002212 0.01 0.00925396 0.02050888 0.01 0.008220173 0.02094466 0.01 0.00716595 0.02132837 0.01 0.006093911 0.02165905 0.01 0.005006721 0.02193588 0.01 0.003907084 0.02215817 0.01 0.002797733 0.02232538 0.01 0.001681427 0.02243709 0.01 0.0005609406 0.02249301 0.01 -0.0005609406 0.02249301 0.01 -0.001681427 0.02243709 0.01 -0.002797733 0.02232538 0.01 -0.003907084 0.02215817 0.01 -0.005006721 0.02193588 0.01 -0.006093911 0.02165905 0.01 -0.00716595 0.02132837 0.01 -0.008220173 0.02094466 0.01 -0.00925396 0.02050888 0.01 -0.01026474 0.02002212 0.01 -0.01125 0.01948557 0.01 -0.01220729 0.01890058 0.01 -0.01313423 0.0182686 0.01 -0.01402852 0.01759121 0.01 -0.01488793 0.01687008 0.01 -0.01571033 0.016107 0.01 -0.01649367 0.01530389 0.01 -0.017236 0.01446272 0.01 -0.01793548 0.0135856 0.01 -0.01859037 0.0126747 0.01 -0.01919905 0.01173229 0.01 -0.01975998 0.01076071 0.01 -0.0202718 0.009762384 0.01 -0.02073322 0.008739783 0.01 -0.02114308 0.007695453 0.01 -0.02150039 0.006631991 0.01 -0.02180424 0.005552042 0.01 -0.02205388 0.004458288 0.01 -0.02224869 0.003353451 0.01 -0.02238819 0.002240277 0.01 -0.02247203 0.001121532 0.01 -0.0225 -7.718061e-17 0.01 -0.02247203 -0.001121532 0.01 -0.02238819 -0.002240277 0.01 -0.02224869 -0.003353451 0.01 -0.02205388 -0.004458288 0.01 -0.02180424 -0.005552042 0.01 -0.02150039 -0.006631991 0.01 -0.02114308 -0.007695453 0.01 -0.02073322 -0.008739783 0.01 -0.0202718 -0.009762384 0.01 -0.01975998 -0.01076071 0.01 -0.01919905 -0.01173229 0.01 -0.01859037 -0.0126747 0.01 -0.01793548 -0.0135856 0.01 -0.017236 -0.01446272 0.01 -0.01649367 -0.01530389 0.01 -0.01571033 -0.016107 0.01 -0.01488793 -0.01687008 0.01 -0.01402852 -0.01759121 0.01 -0.01313423 -0.0182686 0.01 -0.01220729 -0.01890058 0.01 -0.01125 -0.01948557 0.01 -0.01026474 -0.02002212 0.01 -0.00925396 -0.02050888 0.01 -0.008220173 -0.02094466 0.01 -0.00716595 -0.02132837 0.01 -0.006093911 -0.02165905 0.01 -0.005006721 -0.02193588 0.01 -0.003907084 -0.02215817 0.01 -0.002797733 -0.02232538 0.01 -0.001681427 -0.02243709 0.01 -0.0005609406 -0.02249301 0.01 0.0005609406 -0.02249301 0.01 0.001681427 -0.02243709 0.01 0.002797733 -0.02232538 0.01 0.003907084 -0.02215817 0.01 0.005006721 -0.02193588 0.01 0.006093911 -0.02165905 0.01 0.00716595 -0.02132837 0.01 0.008220173 -0.02094466 0.01 0.00925396 -0.02050888 0.01 0.01026474 -0.02002212 0.01 0.01125 -0.01948557 0.01 0.01220729 -0.01890058 0.01 0.01313423 -0.0182686 0.01 0.01402852 -0.01759121 0.01 0.01488793 -0.01687008 0.01 0.01571033 -0.016107 0.01 0.01649367 -0.01530389 0.01 0.017236 -0.01446272 0.01 0.01793548 -0.0135856 0.01 0.01859037 -0.0126747 0.01 0.01919905 -0.01173229 0.01 0.01975998 -0.01076071 0.01 0.0202718 -0.009762384 0.01 0.02073322 -0.008739783 0.01 0.02114308 -0.007695453 0.01 0.02150039 -0.006631991 0.01 0.02180424 -0.005552042 0.01 0.02205388 -0.004458288 0.01 0.02224869 -0.003353451 0.01 0.02238819 -0.002240277 0.01 0.02247203 -0.001121532 0.01</float_array>
          <technique_common>
            <accessor count="1008" source="#cubeverts-array0-array" stride="3">
              <param type="float" name="X"/>
              <param type="float" name="Y"/>
              <param type="float" name="Z"/>
            </accessor>
          </technique_common>
        </source>
        <source id="cubenormals-array0">
          <float_array count="4500" id="cubenormals-array0-array">0.9996892 0.02493054 -0 0.9996892 0.02493054 0 0.9972037 0.07473075 0 0.9972037 0.07473075 -0 0.9922392 0.1243432 0 0.9922392 0.1243432 -0 0.9848078 0.1736479 0 0.9848078 0.1736479 -0 0.9749278 0.2225213 0 0.9749278 0.2225213 -0 0.9626243 0.2708401 0 0.9626243 0.2708401 -0 0.947927 0.3184876 0 0.947927 0.3184876 -0 0.9308739 0.3653407 0 0.9308739 0.3653407 -0 0.9115063 0.4112862 0 0.9115063 0.4112862 -0 0.8898717 0.4562109 0 0.8898717 0.4562109 -0 0.8660254 0.4999999 -0 0.8660254 0.4999999 0 0.840026 0.5425461 -0 0.840026 0.5425461 0 0.8119375 0.5837443 -0 0.8119375 0.5837443 0 0.7818317 0.6234894 -0 0.7818317 0.6234894 0 0.7497814 0.6616855 0 0.7497814 0.6616855 -0 0.7158666 0.6982371 0 0.7158666 0.6982371 -0 0.6801724 0.7330521 0 0.6801724 0.7330521 -0 0.6427878 0.7660442 0 0.6427878 0.7660442 -0 0.6038044 0.7971324 0 0.5633197 0.826239 0 0.6038044 0.7971324 -0 0.5214354 0.8532907 0 0.5633197 0.826239 0 0.5214354 0.8532907 0 0.4782534 0.8782219 0 0.4782534 0.8782219 -0 0.4338846 0.9009684 0 0.4338846 0.9009684 -0 0.3884351 0.9214761 0 0.3884351 0.9214761 -0 0.3420203 0.9396926 0 0.3420203 0.9396926 -0 0.2947552 0.9555728 0 0.2947552 0.9555728 -0 0.2467564 0.9690775 0 0.2467564 0.9690775 -0 0.1981471 0.9801723 0 0.1981471 0.9801723 -0 0.1490408 0.9888311 0 0.1490408 0.9888311 -0 0.09956912 0.9950307 0 0.09956912 0.9950307 -0 0.04984543 0.998757 0 0.04984543 0.998757 -0 0 1 0 -0.04984543 0.998757 0 0 1 -0 -0.04984543 0.998757 0 -0.09956912 0.9950307 0 -0.09956912 0.9950307 0 -0.1490408 0.9888311 0 -0.1490408 0.9888311 0 -0.1981471 0.9801723 0 -0.1981471 0.9801723 0 -0.2467564 0.9690775 0 -0.2467564 0.9690775 0 -0.2947552 0.9555728 0 -0.2947552 0.9555728 0 -0.3420203 0.9396926 0 -0.3420203 0.9396926 0 -0.3884351 0.9214761 0 -0.3884351 0.9214761 0 -0.4338846 0.9009684 0 -0.4338846 0.9009684 0 -0.4782534 0.8782219 0 -0.4782534 0.8782219 0 -0.5214354 0.8532907 0 -0.5214354 0.8532907 0 -0.5633197 0.826239 0 -0.5633197 0.826239 0 -0.6038044 0.7971324 0 -0.6038044 0.7971324 0 -0.6427878 0.7660442 0 -0.6427878 0.7660442 0 -0.6801724 0.7330521 0 -0.6801724 0.7330521 0 -0.7158666 0.6982371 0 -0.7158666 0.6982371 0 -0.7497814 0.6616855 0 -0.7497814 0.6616855 0 -0.7818317 0.6234894 0 -0.7818317 0.6234894 0 -0.8119375 0.5837443 0 -0.8119375 0.5837443 0 -0.840026 0.5425461 0 -0.840026 0.5425461 0 -0.8660254 0.4999999 0 -0.8660254 0.4999999 0 -0.8898717 0.4562109 0 -0.8898717 0.4562109 0 -0.9115063 0.4112862 0 -0.9115063 0.4112862 0 -0.9308739 0.3653407 0 -0.9308739 0.3653407 0 -0.947927 0.3184876 0 -0.947927 0.3184876 0 -0.9626243 0.2708401 0 -0.9626243 0.2708401 0 -0.9749278 0.2225213 0 -0.9749278 0.2225213 0 -0.9848078 0.1736479 0 -0.9848078 0.1736479 0 -0.9922392 0.1243432 0 -0.9922392 0.1243432 0 -0.9972037 0.07473075 0 -0.9972037 0.07473075 0 -0.9996892 0.02493054 0 -0.9996892 0.02493054 0 -0.9996892 -0.02493054 0 -0.9996892 -0.02493054 0 -0.9972037 -0.07473075 0 -0.9972037 -0.07473075 0 -0.9922392 -0.1243432 0 -0.9922392 -0.1243432 0 -0.9848078 -0.1736479 0 -0.9848078 -0.1736479 0 -0.9749278 -0.2225213 0 -0.9749278 -0.2225213 0 -0.9626243 -0.2708401 0 -0.9626243 -0.2708401 0 -0.947927 -0.3184876 0 -0.947927 -0.3184876 0 -0.9308739 -0.3653407 0 -0.9308739 -0.3653407 0 -0.9115063 -0.4112862 0 -0.9115063 -0.4112862 0 -0.8898717 -0.4562109 0 -0.8898717 -0.4562109 0 -0.8660254 -0.4999999 -0 -0.8660254 -0.4999999 0 -0.840026 -0.5425461 0 -0.840026 -0.5425461 0 -0.8119375 -0.5837443 0 -0.8119375 -0.5837443 0 -0.7818317 -0.6234894 0 -0.7818317 -0.6234894 0 -0.7497814 -0.6616855 0 -0.7497814 -0.6616855 0 -0.7158666 -0.6982371 0 -0.7158666 -0.6982371 0 -0.6801724 -0.7330521 0 -0.6801724 -0.7330521 0 -0.6427878 -0.7660442 0 -0.6427878 -0.7660442 0 -0.6038044 -0.7971324 0 -0.6038044 -0.7971324 0 -0.5633197 -0.826239 0 -0.5633197 -0.826239 0 -0.5214354 -0.8532907 0 -0.5214354 -0.8532907 0 -0.4782534 -0.8782219 0 -0.4782534 -0.8782219 0 -0.4338846 -0.9009684 0 -0.4338846 -0.9009684 0 -0.3884351 -0.9214761 0 -0.3884351 -0.9214761 0 -0.3420203 -0.9396926 0 -0.3420203 -0.9396926 0 -0.2947552 -0.9555728 0 -0.2947552 -0.9555728 0 -0.2467564 -0.9690775 0 -0.2467564 -0.9690775 0 -0.1981471 -0.9801723 0 -0.1981471 -0.9801723 0 -0.1490408 -0.9888311 0 -0.1490408 -0.9888311 0 -0.09956912 -0.9950307 0 -0.09956912 -0.9950307 0 -0.04984543 -0.998757 0 -0.04984543 -0.998757 0 0 -1 0 0 -1 0 0.04984543 -0.998757 0 0.04984543 -0.998757 0 0.09956912 -0.9950307 0 0.09956912 -0.9950307 0 0.1490408 -0.9888311 0 0.1490408 -0.9888311 0 0.1981471 -0.9801723 0 0.1981471 -0.9801723 0 0.2467564 -0.9690775 0 0.2467564 -0.9690775 0 0.2947552 -0.9555728 0 0.2947552 -0.9555728 0 0.3420203 -0.9396926 0 0.3420203 -0.9396926 0 0.3884351 -0.9214761 0 0.3884351 -0.9214761 0 0.4338846 -0.9009684 0 0.4338846 -0.9009684 0 0.4782534 -0.8782219 0 0.4782534 -0.8782219 0 0.5214354 -0.8532907 0 0.5214354 -0.8532907 0 0.5633197 -0.826239 0 0.5633197 -0.826239 0 0.6038044 -0.7971324 0 0.6038044 -0.7971324 0 0.6427878 -0.7660442 0 0.6427878 -0.7660442 0 0.6801724 -0.7330521 0 0.6801724 -0.7330521 0 0.7158666 -0.6982371 0 0.7158666 -0.6982371 0 0.7497814 -0.6616855 0 0.7497814 -0.6616855 0 0.7818317 -0.6234894 0 0.7818317 -0.6234894 0 0.8119375 -0.5837443 0 0.8119375 -0.5837443 0 0.840026 -0.5425461 0 0.840026 -0.5425461 0 0.8660254 -0.4999999 0 0.8660254 -0.4999999 0 0.8898717 -0.4562109 0 0.8898717 -0.4562109 0 0.9115063 -0.4112862 0 0.9115063 -0.4112862 0 0.9308739 -0.3653407 0 0.9308739 -0.3653407 0 0.947927 -0.3184876 0 0.947927 -0.3184876 0 0.9626243 -0.2708401 0 0.9626243 -0.2708401 0 0.9749278 -0.2225213 0 0.9749278 -0.2225213 0 0.9848078 -0.1736479 0 0.9848078 -0.1736479 0 0.9922392 -0.1243432 0 0.9922392 -0.1243432 0 0.9972037 -0.07473075 0 0.9972037 -0.07473075 0 0.9996892 -0.02493054 0 0.9996892 -0.02493054 0 0 0 -1 0 0 -1 0 0 -1 0 0 -1 0 0 -1 0 0 -1 0 0 -1 0 0 -1 0 0 -1 0 0 -1 0 0 -1 0 0 -1 0 0 -1 0 0 -1 0 0 -1 0 0 -1 0 0 -1 0 0 -1 0 0 -1 0 0 -1 0 0 -1 0 0 -1 0 0 -1 0 0 -1 0 0 -1 0 -0 -1 0 -0 -1 0 -0 -1 0 0 -1 0 0 -1 0 0 -1 0 0 -1 0 0 -1 0 -0 -1 0 -0 -1 0 0 -1 0 -0 -1 0 0 -1 0 0 -1 0 0 -1 0 0 -1 0 0 -1 0 0 -1 0 0 -1 0 0 -1 0 0 -1 0 -0 -1 0 -0 -1 0 -0 -1 0 0 -1 0 0 -1 0 -0 -1 0 0 -1 0 0 -1 0 -0 -1 0 -0 -1 0 0 -1 0 0 -1 0 -0 -1 0 -0 -1 0 -0 -1 0 -0 -1 0 0 -1 0 0 -1 0 -0 -1 0 0 -1 0 -0 -1 0 0 -1 0 0 -1 0 0 -1 0 -0 -1 0 -0 -1 0 -0 -1 0 -0 -1 0 0 -1 0 0 -1 0 0 -1 0 0 -1 0 0 -1 0 -0 -1 0 -0 -1 0 -0 -1 0 0 -1 0 -0 -1 0 0 -1 0 -0 -1 -0 -0 -1 0 -0 -1 0 0 -1 0 0 -1 0 0 -1 0 0 -1 0 0 -1 -0 -0 -1 -0 -0 -1 0 0 -1 0 0 -1 0 0 -1 0 0 -1 -0 -0 -1 0 -0 -1 -0 -0 -1 0 -0 -1 0 0 -1 0 -0 -1 0 -0 -1 0 0 -1 -0 -0 -1 0 0 -1 -0 -0 -1 0 0 -1 0 0 -1 0 0 -1 -0 -0 -1 -0 -0 -1 0 0 -1 -0 -0 -1 0 0 -1 0 0 -1 0 0 -1 -0 -0 -1 -0 -0 -1 0 0 -1 0 0 -1 0 0 1 0 0 1 0 0 1 0 0 1 0 0 1 0 0 1 0 0 1 0 0 1 0 0 1 0 0 1 0 0 1 0 0 1 0 0 1 0 0 1 0 0 1 0 0 1 0 0 1 0 0 1 0 0 1 0 0 1 0 0 1 0 0 1 0 0 1 0 0 1 0 0 1 0 0 1 0 0 1 0 0 1 0 0 1 0 0 1 0 0 1 0 0 1 0 0 1 0 0 1 0 0 1 0 0 1 0 0 1 0 0 1 0 0 1 0 0 1 0 0 1 0 0 1 0 0 1 0 0 1 0 0 1 0 0 1 0 0 1 0 0 1 0 0 1 0 0 1 0 0 1 0 0 1 0 0 1 0 0 1 0 0 1 0 0 1 0 0 1 0 0 1 0 0 1 0 0 1 0 0 1 0 0 1 0 0 1 0 0 1 0 0 1 0 0 1 0 0 1 0 0 1 0 0 1 0 0 1 0 0 1 0 0 1 0 0 1 0 0 1 0 0 1 0 0 1 0 0 1 0 0 1 0 0 1 0 0 1 0 0 1 0 0 1 0 0 1 0 0 1 0 0 1 0 0 1 0 0 1 0 0 1 0 0 1 0 0 1 0 0 1 0 0 1 0 0 1 0 0 1 0 0 1 0 0 1 0 0 1 0 0 1 0 0 1 0 0 1 0 0 1 0 0 1 0 0 1 0 0 1 0 0 1 0 0 1 0 0 1 0 0 1 0 0 1 0 0 1 0 0 1 0 0 1 0 0 1 0 0 1 0 0 1 0 0 1 0 0 1 0 0 1 0 0 1 0 0 1 0 0 1 0 0 1 0 0 1 0 0 1 0.9996892 0.02493077 0 0.9972039 0.07472941 0 0.9922391 0.1243444 0 0.9848077 0.1736483 0 0.974928 0.2225204 0 0.962624 0.2708415 0 0.9479275 0.3184862 0 0.9308741 0.3653401 0 0.9115055 0.4112879 0 0.8898718 0.4562108 0 0.8660257 0.4999994 0 0.8400257 0.5425466 0 0.8119382 0.5837435 0 0.7818313 0.6234901 0 0.7497814 0.6616855 0 0.7158666 0.6982371 0 0.6801727 0.733052 0 0.6427873 0.7660447 0 0.6038043 0.7971326 0 0.5633205 0.8262385 0 0.5214349 0.8532911 0 0.4782545 0.8782213 0 0.4338842 0.9009686 0 0.3884348 0.9214762 0 0.3420196 0.9396928 0 0.2947556 0.9555727 0 0.2467574 0.9690772 0 0.1981456 0.9801726 0 0.1490423 0.9888308 0 0.09956837 0.9950307 0 0.04984454 0.998757 0 0 1 0 -0.04984454 0.998757 0 -0.09956837 0.9950307 0 -0.1490423 0.9888308 0 -0.1981456 0.9801726 0 -0.2467574 0.9690772 0 -0.2947556 0.9555727 0 -0.3420196 0.9396928 0 -0.3884348 0.9214762 0 -0.4338842 0.9009686 0 -0.4782545 0.8782213 0 -0.5214349 0.8532911 0 -0.5633205 0.8262385 0 -0.6038043 0.7971326 0 -0.6427873 0.7660447 0 -0.6801727 0.733052 0 -0.7158666 0.6982371 0 -0.7497814 0.6616855 0 -0.7818313 0.6234901 0 -0.8119382 0.5837435 0 -0.8400257 0.5425466 0 -0.8660257 0.4999994 0 -0.8898718 0.4562108 0 -0.9115055 0.4112879 0 -0.9308741 0.3653401 0 -0.9479275 0.3184862 0 -0.962624 0.2708415 0 -0.974928 0.2225204 0 -0.9848077 0.1736483 0 -0.9922391 0.1243444 0 -0.9972039 0.07472941 0 -0.9996892 0.02493077 0 -0.9996892 -0.02493077 0 -0.9972039 -0.07472941 0 -0.9922391 -0.1243444 0 -0.9848077 -0.1736483 0 -0.974928 -0.2225204 0 -0.962624 -0.2708415 0 -0.9479275 -0.3184862 0 -0.9308741 -0.3653401 0 -0.9115055 -0.4112879 0 -0.8898718 -0.4562108 0 -0.8660257 -0.4999994 0 -0.8400257 -0.5425466 0 -0.8119382 -0.5837435 0 -0.7818313 -0.6234901 0 -0.7497814 -0.6616855 0 -0.7158666 -0.6982371 0 -0.6801727 -0.733052 0 -0.6427873 -0.7660447 0 -0.6038043 -0.7971326 0 -0.5633205 -0.8262385 0 -0.5214349 -0.8532911 0 -0.4782545 -0.8782213 0 -0.4338842 -0.9009686 0 -0.3884348 -0.9214762 0 -0.3420196 -0.9396928 0 -0.2947556 -0.9555727 0 -0.2467574 -0.9690772 0 -0.1981456 -0.9801726 0 -0.1490423 -0.9888308 0 -0.09956837 -0.9950307 0 -0.04984454 -0.998757 -0 0 -1 0 0.04984454 -0.998757 0 0.09956837 -0.9950307 0 0.1490423 -0.9888308 0 0.2467574 -0.9690772 0 0.1981456 -0.9801726 0 0.2947556 -0.9555727 0 0.3420196 -0.9396928 0 0.3884348 -0.9214762 0 0.4338842 -0.9009686 0 0.4782545 -0.8782213 0 0.5214349 -0.8532911 0 0.5633205 -0.8262385 0 0.6038043 -0.7971326 0 0.6427873 -0.7660447 0 0.6801727 -0.733052 0 0.7158666 -0.6982371 0 0.7497814 -0.6616855 0 0.7818313 -0.6234901 0 0.8119382 -0.5837435 0 0.8400257 -0.5425466 0 0.8660257 -0.4999994 0 0.8898718 -0.4562108 0 0.9115055 -0.4112879 0 0.9308741 -0.3653401 0 0.9479275 -0.3184862 0 0.962624 -0.2708415 0 0.974928 -0.2225204 0 0.9848077 -0.1736483 0 0.9922391 -0.1243444 0 0.9972039 -0.07472941 0 0.9996892 -0.02493077 0 0 0 1 0 0 1 0 0 1 0 0 1 0 0 1 0 0 1 0 0 1 0 0 1 0 0 1 0 0 1 0 0 1 0 0 1 0 0 1 0 0 1 0 0 1 0 0 1 0 0 1 0 0 1 0 0 1 0 0 1 0 0 1 0 0 1 0 0 1 0 0 1 0 0 1 0 0 1 0 0 1 0 0 1 0 0 1 0 0 1 0 0 1 0 0 1 0 0 1 0 0 1 0 0 1 0 0 1 0 0 1 0 0 1 0 0 1 0 0 1 0 0 1 0 0 1 0 0 1 0 0 1 0 0 1 0 0 1 0 0 1 0 0 1 0 0 1 0 0 1 0 0 1 0 0 1 0 0 1 0 0 1 0 0 1 0 0 1 0 0 1 0 0 1 0 0 1 0 0 1 0 0 1 0 0 1 0 0 1 0 0 1 0 0 1 0 0 1 0 0 1 0 0 1 0 0 1 0 0 1 0 0 1 0 0 1 0 0 1 0 0 1 0 0 1 0 0 1 0 0 1 0 0 1 0 0 1 0 0 1 0 0 1 0 0 1 0 0 1 0 0 1 0 0 1 0 0 1 0 0 1 0 0 1 0 0 1 0 0 1 0 0 1 0 0 1 0 0 1 0 0 1 0 0 1 0 0 1 0 0 1 0 0 1 0 0 1 0 0 1 0 0 1 0 0 1 0 0 1 0 0 1 0 0 1 0 0 1 0 0 1 0 0 1 0 0 1 0 0 1 0 0 1 0 0 1 0 0 1 0 0 1 0 0 1 0 0 1 0 0 1 0 0 1 0 0 1 0 0 1 0 0 1 0 0 1 0 0 1 0 0 1 0.9996892 0.02493077 -0 0.9972038 0.07472941 -0 0.9922391 0.1243444 -0 0.9848077 0.1736483 -0 0.974928 0.2225204 -0 0.962624 0.2708415 -0 0.9479275 0.3184862 0 0.930874 0.3653401 -0 0.9115055 0.4112879 -0 0.8898718 0.4562107 -0 0.8660257 0.4999995 -0 0.8400257 0.5425466 -0 0.8119382 0.5837434 -0 0.7818313 0.6234902 -0 0.7497814 0.6616855 -0 0.7158666 0.6982371 -0 0.6801727 0.733052 -0 0.6427873 0.7660446 -0 0.6038043 0.7971326 -0 0.5633205 0.8262385 0 0.5214349 0.8532911 0 0.4782545 0.8782213 -0 0.4338842 0.9009686 -0 0.3884348 0.9214762 -0 0.3420196 0.9396928 -0 0.2947556 0.9555726 -0 0.2467574 0.9690772 -0 0.1981456 0.9801726 -0 0.1490423 0.9888309 -0 0.09956837 0.9950307 -0 0.04984454 0.998757 -0 0 1 -0 -0.04984454 0.998757 0 -0.09956837 0.9950307 0 -0.1490423 0.9888309 0 -0.1981456 0.9801726 0 -0.2467574 0.9690772 0 -0.2947556 0.9555726 0 -0.3420196 0.9396928 0 -0.3884348 0.9214762 0 -0.4338842 0.9009686 0 -0.4782545 0.8782213 0 -0.5214349 0.8532911 0 -0.5633205 0.8262385 0 -0.6038043 0.7971326 0 -0.6427873 0.7660446 0 -0.6801727 0.733052 0 -0.7158666 0.6982371 0 -0.7497814 0.6616855 0 -0.7818313 0.6234902 0 -0.8119382 0.5837434 0 -0.8400257 0.5425466 0 -0.8660257 0.4999995 0 -0.8898718 0.4562107 0 -0.9115055 0.4112879 0 -0.930874 0.3653401 0 -0.9479275 0.3184862 0 -0.962624 0.2708415 0 -0.974928 0.2225204 0 -0.9848077 0.1736483 0 -0.9922391 0.1243444 0 -0.9972038 0.07472941 0 -0.9996892 0.02493077 0 -0.9996892 -0.02493077 0 -0.9972038 -0.07472941 0 -0.9922391 -0.1243444 0 -0.9848077 -0.1736483 0 -0.974928 -0.2225204 0 -0.962624 -0.2708415 0 -0.9479275 -0.3184862 0 -0.930874 -0.3653401 0 -0.9115055 -0.4112879 0 -0.8898718 -0.4562107 0 -0.8660257 -0.4999995 0 -0.8400257 -0.5425466 0 -0.8119382 -0.5837434 0 -0.7818313 -0.6234902 0 -0.7497814 -0.6616855 0 -0.7158666 -0.6982371 0 -0.6801727 -0.733052 0 -0.6427873 -0.7660446 0 -0.6038043 -0.7971326 0 -0.5633205 -0.8262385 0 -0.5214349 -0.8532911 0 -0.4782545 -0.8782213 0 -0.4338842 -0.9009686 0 -0.3884348 -0.9214762 0 -0.3420196 -0.9396928 0 -0.2947556 -0.9555726 0 -0.2467574 -0.9690772 0 -0.1981456 -0.9801726 0 -0.1490423 -0.9888309 0 -0.09956837 -0.9950307 0 -0.04984454 -0.998757 0 0 -1 0 0.04984454 -0.998757 0 0.09956837 -0.9950307 0 0.1490423 -0.9888309 0 0.1981456 -0.9801726 0 0.2467574 -0.9690772 0 0.2947556 -0.9555726 0 0.3420196 -0.9396928 0 0.3884348 -0.9214762 0 0.4338842 -0.9009686 0 0.4782545 -0.8782213 0 0.5214349 -0.8532911 0 0.5633205 -0.8262385 0 0.6038043 -0.7971326 0 0.6427873 -0.7660446 0 0.6801727 -0.733052 0 0.7158666 -0.6982371 0 0.7497814 -0.6616855 0 0.7818313 -0.6234902 0 0.8119382 -0.5837434 0 0.8400257 -0.5425466 0 0.8660257 -0.4999995 0 0.8898718 -0.4562107 0 0.9115055 -0.4112879 0 0.930874 -0.3653401 0 0.9479275 -0.3184862 0 0.962624 -0.2708415 0 0.974928 -0.2225204 0 0.9848077 -0.1736483 0 0.9922391 -0.1243444 0 0.9972038 -0.07472941 0 0.9996892 -0.02493077 0 0 0 -1 0 0 -1 0 0 -1 0 0 -1 0 0 -1 0 0 -1 0 0 -1 0 0 -1 0 0 -1 0 0 -1 0 0 -1 0 0 -1 0 0 -1 0 0 -1 0 0 -1 0 0 -1 0 0 -1 0 0 -1 0 0 -1 0 0 -1 0 0 -1 0 0 -1 0 0 -1 0 0 -1 0 0 -1 0 -0 -1 0 -0 -1 0 0 -1 0 0 -1 0 0 -1 0 0 -1 0 0 -1 0 -0 -1 0 0 -1 0 0 -1 0 0 -1 0 0 -1 0 0 -1 0 0 -1 0 0 -1 0 -0 -1 0 -0 -1 0 -0 -1 0 -0 -1 0 -0 -1 0 0 -1 0 0 -1 0 0 -1 0 0 -1 0 -0 -1 0 0 -1 0 0 -1 0 0 -1 0 -0 -1 0 -0 -1 0 -0 -1 0 0 -1 0 0 -1 0 0 -1 0 0 -1 0 0 -1 0 -0 -1 0 -0 -1 0 -0 -1 0 0 -1 0 0 -1 0 0 -1 0 -0 -1 0 0 -1 0 0 -1 0 -0 -1 0 -0 -1 0 -0 -1 0 0 -1 0 0 -1 0 -0 -1 0 -0 -1 0 -0 -1 0 0 -1 0 0 -1 0 -0 -1 0 -0 -1 0 -0 -1 0 0 -1 0 -0 -1 0 0 -1 0 -0 -1 -0 -0 -1 0 -0 -1 0 0 -1 0 0 -1 0 0 -1 0 0 -1 0 -0 -1 -0 -0 -1 -0 -0 -1 0 -0 -1 0 0 -1 0 0 -1 0 0 -1 0 0 -1 -0 -0 -1 0 0 -1 0 0 -1 -0 -0 -1 -0 -0 -1 0 0 -1 -0 -0 -1 0 0 -1 -0 -0 -1 -0 -0 -1 0 0 -1 0 0 -1 0 0 -1 0 -0 -1 0 0 -1 -0 -0 -1 0 0 -1 0 0 -1 0 -0 -1 -0 -0 -1 -0 -0 -1 0 0 -1 -0 -0 -1 0.9996892 0.02493077 0 0.9972039 0.07472941 0 0.9922391 0.1243444 0 0.9848077 0.1736483 0 0.974928 0.2225204 0 0.962624 0.2708415 0 0.9479275 0.3184862 0 0.9308741 0.3653401 0 0.9115055 0.4112879 0 0.8898718 0.4562108 0 0.8660257 0.4999994 0 0.8400257 0.5425466 0 0.8119382 0.5837435 0 0.7818313 0.6234901 0 0.7497814 0.6616855 0 0.7158666 0.6982371 0 0.6801727 0.733052 0 0.6427873 0.7660447 0 0.6038043 0.7971326 0 0.5633205 0.8262385 0 0.5214349 0.8532911 0 0.4782545 0.8782213 0 0.4338842 0.9009686 0 0.3884348 0.9214762 0 0.3420196 0.9396928 0 0.2947556 0.9555727 0 0.2467574 0.9690772 0 0.1981456 0.9801726 0 0.1490423 0.9888308 0 0.09956837 0.9950307 0 0.04984454 0.998757 0 0 1 0 -0.04984454 0.998757 0 -0.09956837 0.9950307 0 -0.1490423 0.9888308 0 -0.1981456 0.9801726 0 -0.2467574 0.9690772 0 -0.2947556 0.9555727 0 -0.3420196 0.9396928 0 -0.3884348 0.9214762 0 -0.4338842 0.9009686 0 -0.4782545 0.8782213 0 -0.5214349 0.8532911 0 -0.5633205 0.8262385 0 -0.6038043 0.7971326 0 -0.6427873 0.7660447 0 -0.6801727 0.733052 0 -0.7158666 0.6982371 0 -0.7497814 0.6616855 0 -0.7818313 0.6234901 0 -0.8119382 0.5837435 0 -0.8400257 0.5425466 0 -0.8660257 0.4999994 0 -0.8898718 0.4562108 0 -0.9115055 0.4112879 0 -0.9308741 0.3653401 0 -0.9479275 0.3184862 0 -0.962624 0.2708415 0 -0.974928 0.2225204 0 -0.9848077 0.1736483 0 -0.9922391 0.1243444 0 -0.9972039 0.07472941 0 -0.9996892 0.02493077 0 -0.9996892 -0.02493077 0 -0.9972039 -0.07472941 0 -0.9922391 -0.1243444 0 -0.9848077 -0.1736483 0 -0.974928 -0.2225204 0 -0.962624 -0.2708415 0 -0.9479275 -0.3184862 0 -0.9308741 -0.3653401 0 -0.9115055 -0.4112879 0 -0.8898718 -0.4562108 0 -0.8660257 -0.4999994 0 -0.8400257 -0.5425466 0 -0.8119382 -0.5837435 0 -0.7818313 -0.6234901 0 -0.7497814 -0.6616855 0 -0.7158666 -0.6982371 0 -0.6801727 -0.733052 0 -0.6427873 -0.7660447 0 -0.6038043 -0.7971326 0 -0.5633205 -0.8262385 0 -0.5214349 -0.8532911 0 -0.4782545 -0.8782213 0 -0.4338842 -0.9009686 0 -0.3884348 -0.9214762 0 -0.3420196 -0.9396928 0 -0.2947556 -0.9555727 0 -0.2467574 -0.9690772 0 -0.1981456 -0.9801726 0 -0.1490423 -0.9888308 0 -0.09956837 -0.9950307 0 -0.04984454 -0.998757 -0 0 -1 0 0.04984454 -0.998757 0 0.09956837 -0.9950307 0 0.1490423 -0.9888308 0 0.2467574 -0.9690772 0 0.1981456 -0.9801726 0 0.2947556 -0.9555727 0 0.3420196 -0.9396928 0 0.3884348 -0.9214762 0 0.4338842 -0.9009686 0 0.4782545 -0.8782213 0 0.5214349 -0.8532911 0 0.5633205 -0.8262385 0 0.6038043 -0.7971326 0 0.6427873 -0.7660447 0 0.6801727 -0.733052 0 0.7158666 -0.6982371 0 0.7497814 -0.6616855 0 0.7818313 -0.6234901 0 0.8119382 -0.5837435 0 0.8400257 -0.5425466 0 0.8660257 -0.4999994 0 0.8898718 -0.4562108 0 0.9115055 -0.4112879 0 0.9308741 -0.3653401 0 0.9479275 -0.3184862 0 0.962624 -0.2708415 0 0.974928 -0.2225204 0 0.9848077 -0.1736483 0 0.9922391 -0.1243444 0 0.9972039 -0.07472941 0 0.9996892 -0.02493077 0 0 0 1 0 0 1 0 0 1 0 0 1 0 0 1 0 0 1 0 0 1 0 0 1 0 0 1 0 0 1 0 0 1 0 0 1 0 0 1 0 0 1 0 0 1 0 0 1 0 0 1 0 0 1 0 0 1 0 0 1 0 0 1 0 0 1 0 0 1 0 0 1 0 0 1 0 0 1 0 0 1 0 0 1 0 0 1 0 0 1 0 0 1 0 0 1 0 0 1 0 0 1 0 0 1 0 0 1 0 0 1 0 0 1 0 0 1 0 0 1 0 0 1 0 0 1 0 0 1 0 0 1 0 0 1 0 0 1 0 0 1 0 0 1 0 0 1 0 0 1 0 0 1 0 0 1 0 0 1 0 0 1 0 0 1 0 0 1 0 0 1 0 0 1 0 0 1 0 0 1 0 0 1 0 0 1 0 0 1 0 0 1 0 0 1 0 0 1 0 0 1 0 0 1 0 0 1 0 0 1 0 0 1 0 0 1 0 0 1 0 0 1 0 0 1 0 0 1 0 0 1 0 0 1 0 0 1 0 0 1 0 0 1 0 0 1 0 0 1 0 0 1 0 0 1 0 0 1 0 0 1 0 0 1 0 0 1 0 0 1 0 0 1 0 0 1 0 0 1 0 0 1 0 0 1 0 0 1 0 0 1 0 0 1 0 0 1 0 0 1 0 0 1 0 0 1 0 0 1 0 0 1 0 0 1 0 0 1 0 0 1 0 0 1 0 0 1 0 0 1 0 0 1 0 0 1 0 0 1 0 0 1 0 0 1 0 0 1 0 0 1 0 0 1 0 0 1 0 0 1 0 0 1 0 0 1 0 0 1 0 0 1 0.9996892 0.02493077 -0 0.9972038 0.07472941 -0 0.9922392 0.1243444 0 0.9848077 0.1736483 -0 0.974928 0.2225204 -0 0.962624 0.2708415 0 0.9479275 0.3184862 -0 0.930874 0.3653401 0 0.9115055 0.4112879 -0 0.8898718 0.4562108 -0 0.8660257 0.4999994 -0 0.8400257 0.5425466 0 0.8119382 0.5837434 0 0.7818313 0.6234902 -0 0.7497815 0.6616856 -0 0.7158666 0.6982371 0 0.6801727 0.733052 -0 0.6427874 0.7660447 0 0.6038044 0.7971326 -0 0.5633205 0.8262385 -0 0.5214349 0.8532911 -0 0.4782545 0.8782213 0 0.4338842 0.9009687 -0 0.3884348 0.9214762 -0 0.3420196 0.9396928 0 0.2947557 0.9555727 -0 0.2467575 0.9690773 0 0.1981456 0.9801726 -0 0.1490423 0.9888308 0 0.09956837 0.9950307 0 0.04984455 0.998757 -0 0 1 0 -0.04984455 0.998757 0 -0.09956837 0.9950307 0 -0.1490423 0.9888308 0 -0.1981456 0.9801726 0 -0.2467575 0.9690773 0 -0.2947557 0.9555727 0 -0.3420196 0.9396928 0 -0.3884348 0.9214762 0 -0.4338842 0.9009687 0 -0.4782545 0.8782213 0 -0.5214349 0.8532911 0 -0.5633205 0.8262385 0 -0.6038044 0.7971326 0 -0.6427874 0.7660447 0 -0.6801727 0.733052 0 -0.7158666 0.6982371 0 -0.7497815 0.6616856 0 -0.7818313 0.6234902 0 -0.8119382 0.5837434 0 -0.8400257 0.5425466 0 -0.8660257 0.4999994 0 -0.8898718 0.4562108 0 -0.9115055 0.4112879 0 -0.930874 0.3653401 0 -0.9479275 0.3184862 0 -0.962624 0.2708415 0 -0.974928 0.2225204 0 -0.9848077 0.1736483 0 -0.9922392 0.1243444 0 -0.9972038 0.07472941 0 -0.9996892 0.02493077 0 -0.9996892 -0.02493077 0 -0.9972038 -0.07472941 0 -0.9922392 -0.1243444 0 -0.9848077 -0.1736483 0 -0.974928 -0.2225204 0 -0.962624 -0.2708415 0 -0.9479275 -0.3184862 0 -0.930874 -0.3653401 0 -0.9115055 -0.4112879 0 -0.8898718 -0.4562108 0 -0.8660257 -0.4999994 0 -0.8400257 -0.5425466 0 -0.8119382 -0.5837434 0 -0.7818313 -0.6234902 0 -0.7497815 -0.6616856 0 -0.7158666 -0.6982371 0 -0.6801727 -0.733052 0 -0.6427874 -0.7660447 0 -0.6038044 -0.7971326 0 -0.5633205 -0.8262385 0 -0.5214349 -0.8532911 0 -0.4782545 -0.8782213 0 -0.4338842 -0.9009687 0 -0.3884348 -0.9214762 0 -0.3420196 -0.9396928 0 -0.2947557 -0.9555727 0 -0.2467575 -0.9690773 0 -0.1981456 -0.9801726 0 -0.1490423 -0.9888308 0 -0.09956837 -0.9950307 0 -0.04984455 -0.998757 0 0 -1 0 0.04984455 -0.998757 0 0.09956837 -0.9950307 0 0.1490423 -0.9888308 0 0.1981456 -0.9801726 0 0.2467575 -0.9690773 0 0.2947557 -0.9555727 0 0.3420196 -0.9396928 0 0.3884348 -0.9214762 0 0.4338842 -0.9009687 0 0.4782545 -0.8782213 0 0.5214349 -0.8532911 0 0.5633205 -0.8262385 0 0.6038044 -0.7971326 0 0.6427874 -0.7660447 0 0.6801727 -0.733052 0 0.7158666 -0.6982371 0 0.7497815 -0.6616856 0 0.7818313 -0.6234902 0 0.8119382 -0.5837434 0 0.8400257 -0.5425466 0 0.8660257 -0.4999994 0 0.8898718 -0.4562108 0 0.9115055 -0.4112879 0 0.930874 -0.3653401 0 0.9479275 -0.3184862 0 0.962624 -0.2708415 0 0.974928 -0.2225204 0 0.9848077 -0.1736483 0 0.9922392 -0.1243444 0 0.9972038 -0.07472941 0 0.9996892 -0.02493077 0 0 0 -1 0 0 -1 0 0 -1 0 0 -1 0 0 -1 0 0 -1 0 0 -1 0 0 -1 0 0 -1 0 0 -1 0 0 -1 0 0 -1 0 0 -1 0 0 -1 0 0 -1 0 0 -1 0 0 -1 0 0 -1 0 0 -1 0 0 -1 0 0 -1 0 0 -1 0 0 -1 0 0 -1 0 0 -1 0 -0 -1 0 -0 -1 0 0 -1 0 0 -1 0 0 -1 0 0 -1 0 0 -1 0 -0 -1 0 0 -1 0 0 -1 0 0 -1 0 0 -1 0 0 -1 0 0 -1 0 0 -1 0 -0 -1 0 -0 -1 0 -0 -1 0 -0 -1 0 -0 -1 0 0 -1 0 0 -1 0 0 -1 0 0 -1 0 -0 -1 0 0 -1 0 0 -1 0 0 -1 0 -0 -1 0 -0 -1 0 -0 -1 0 0 -1 0 0 -1 0 0 -1 0 0 -1 0 0 -1 0 -0 -1 0 -0 -1 0 -0 -1 0 0 -1 0 0 -1 0 0 -1 0 -0 -1 0 0 -1 0 0 -1 0 -0 -1 0 -0 -1 0 -0 -1 0 0 -1 0 0 -1 0 -0 -1 0 -0 -1 0 -0 -1 0 0 -1 0 0 -1 0 -0 -1 0 -0 -1 0 -0 -1 0 0 -1 0 -0 -1 0 0 -1 0 -0 -1 -0 -0 -1 0 -0 -1 0 0 -1 0 0 -1 0 0 -1 0 0 -1 0 -0 -1 -0 -0 -1 -0 -0 -1 0 -0 -1 0 0 -1 0 0 -1 0 0 -1 0 0 -1 -0 -0 -1 0 0 -1 0 0 -1 -0 -0 -1 -0 -0 -1 0 0 -1 -0 -0 -1 0 0 -1 -0 -0 -1 -0 -0 -1 0 0 -1 0 0 -1 0 0 -1 0 -0 -1 0 0 -1 -0 -0 -1 0 0 -1 0 0 -1 0 -0 -1 -0 -0 -1 -0 -0 -1 0 0 -1 -0 -0 -1</float_array>
          <technique_common>
            <accessor count="1500" source="#cubenormals-array0-array" stride="3">
              <param type="float" name="X"/>
              <param type="float" name="Y"/>
              <param type="float" name="Z"/>
            </accessor>
          </technique_common>
        </source>
        <vertices id="cubeverts-array0-vertices">
          <input semantic="POSITION" source="#cubeverts-array0"/>
        </vertices>
        <triangles count="1500" material="ref_Compound">
          <input offset="0" semantic="VERTEX" source="#cubeverts-array0-vertices"/>
          <input offset="1" semantic="NORMAL" source="#cubenormals-array0"/>
          <p>0 0 1 0 2 0 2 1 1 1 3 1 3 2 4 2 5 2 1 3 4 3 3 3 5 4 6 4 7 4 4 5 6 5 5 5 7 6 8 6 9 6 6 7 8 7 7 7 9 8 10 8 11 8 8 9 10 9 9 9 11 10 12 10 13 10 10 11 12 11 11 11 13 12 14 12 15 12 12 13 14 13 13 13 15 14 16 14 17 14 14 15 16 15 15 15 17 16 18 16 19 16 16 17 18 17 17 17 19 18 20 18 21 18 18 19 20 19 19 19 20 20 22 20 21 20 21 21 22 21 23 21 22 22 24 22 23 22 23 23 24 23 25 23 24 24 26 24 25 24 25 25 26 25 27 25 26 26 28 26 27 26 27 27 28 27 29 27 29 28 30 28 31 28 28 29 30 29 29 29 31 30 32 30 33 30 30 31 32 31 31 31 33 32 34 32 35 32 32 33 34 33 33 33 35 34 36 34 37 34 34 35 36 35 35 35 37 36 38 36 39 36 39 37 38 37 40 37 36 38 38 38 37 38 40 39 41 39 42 39 38 40 41 40 40 40 41 41 43 41 42 41 42 42 44 42 45 42 43 43 44 43 42 43 45 44 46 44 47 44 44 45 46 45 45 45 47 46 48 46 49 46 46 47 48 47 47 47 49 48 50 48 51 48 48 49 50 49 49 49 51 50 52 50 53 50 50 51 52 51 51 51 53 52 54 52 55 52 52 53 54 53 53 53 55 54 56 54 57 54 54 55 56 55 55 55 57 56 58 56 59 56 56 57 58 57 57 57 59 58 60 58 61 58 58 59 60 59 59 59 61 60 62 60 63 60 60 61 62 61 61 61 63 62 64 62 65 62 65 63 64 63 66 63 62 64 64 64 63 64 64 65 67 65 66 65 66 66 68 66 69 66 67 67 68 67 66 67 69 68 70 68 71 68 68 69 70 69 69 69 71 70 72 70 73 70 70 71 72 71 71 71 73 72 74 72 75 72 72 73 74 73 73 73 74 74 76 74 75 74 75 75 76 75 77 75 76 76 78 76 77 76 77 77 78 77 79 77 78 78 80 78 79 78 79 79 80 79 81 79 80 80 82 80 81 80 81 81 82 81 83 81 83 82 82 82 84 82 82 83 85 83 84 83 85 84 86 84 84 84 84 85 86 85 87 85 86 86 88 86 87 86 87 87 88 87 89 87 88 88 90 88 89 88 89 89 90 89 91 89 90 90 92 90 91 90 91 91 92 91 93 91 92 92 94 92 93 92 93 93 94 93 95 93 95 94 96 94 97 94 94 95 96 95 95 95 97 96 98 96 99 96 96 97 98 97 97 97 99 98 100 98 101 98 98 99 100 99 99 99 101 100 102 100 103 100 100 101 102 101 101 101 103 102 104 102 105 102 102 103 104 103 103 103 105 104 106 104 107 104 104 105 106 105 105 105 107 106 108 106 109 106 106 107 108 107 107 107 109 108 110 108 111 108 108 109 110 109 109 109 111 110 112 110 113 110 110 111 112 111 111 111 113 112 114 112 115 112 112 113 114 113 113 113 115 114 116 114 117 114 114 115 116 115 115 115 117 116 118 116 119 116 116 117 118 117 117 117 119 118 120 118 121 118 118 119 120 119 119 119 121 120 122 120 123 120 120 121 122 121 121 121 122 122 124 122 123 122 123 123 124 123 125 123 124 124 126 124 125 124 125 125 126 125 127 125 126 126 128 126 127 126 127 127 128 127 129 127 128 128 130 128 129 128 129 129 130 129 131 129 130 130 132 130 131 130 131 131 132 131 133 131 132 132 134 132 133 132 133 133 134 133 135 133 134 134 136 134 135 134 135 135 136 135 137 135 136 136 138 136 137 136 137 137 138 137 139 137 138 138 140 138 139 138 139 139 140 139 141 139 140 140 142 140 141 140 141 141 142 141 143 141 142 142 144 142 143 142 143 143 144 143 145 143 144 144 146 144 145 144 145 145 146 145 147 145 147 146 146 146 148 146 146 147 149 147 148 147 149 148 150 148 148 148 148 149 150 149 151 149 150 150 152 150 151 150 151 151 152 151 153 151 152 152 154 152 153 152 153 153 154 153 155 153 154 154 156 154 155 154 155 155 156 155 157 155 156 156 158 156 157 156 157 157 158 157 159 157 158 158 160 158 159 158 159 159 160 159 161 159 160 160 162 160 161 160 161 161 162 161 163 161 162 162 164 162 163 162 163 163 164 163 165 163 165 164 166 164 167 164 164 165 166 165 165 165 167 166 168 166 169 166 166 167 168 167 167 167 169 168 170 168 171 168 168 169 170 169 169 169 171 170 172 170 173 170 170 171 172 171 171 171 173 172 174 172 175 172 172 173 174 173 173 173 174 174 176 174 175 174 175 175 176 175 177 175 176 176 178 176 177 176 177 177 178 177 179 177 178 178 180 178 179 178 179 179 180 179 181 179 180 180 182 180 181 180 181 181 182 181 183 181 182 182 184 182 183 182 183 183 184 183 185 183 184 184 186 184 185 184 185 185 186 185 187 185 186 186 188 186 187 186 187 187 188 187 189 187 188 188 190 188 189 188 189 189 190 189 191 189 190 190 192 190 191 190 191 191 192 191 193 191 192 192 194 192 193 192 193 193 194 193 195 193 194 194 196 194 195 194 195 195 196 195 197 195 196 196 198 196 197 196 197 197 198 197 199 197 199 198 200 198 201 198 198 199 200 199 199 199 201 200 202 200 203 200 200 201 202 201 201 201 203 202 204 202 205 202 202 203 204 203 203 203 205 204 206 204 207 204 204 205 206 205 205 205 207 206 208 206 209 206 206 207 208 207 207 207 209 208 210 208 211 208 208 209 210 209 209 209 211 210 212 210 213 210 210 211 212 211 211 211 213 212 214 212 215 212 212 213 214 213 213 213 215 214 216 214 217 214 214 215 216 215 215 215 217 216 218 216 219 216 216 217 218 217 217 217 219 218 220 218 221 218 218 219 220 219 219 219 221 220 222 220 223 220 220 221 222 221 221 221 223 222 224 222 225 222 222 223 224 223 223 223 224 224 226 224 225 224 225 225 226 225 227 225 226 226 228 226 227 226 227 227 228 227 229 227 228 228 230 228 229 228 229 229 230 229 231 229 230 230 232 230 231 230 231 231 232 231 233 231 233 232 234 232 235 232 232 233 234 233 233 233 235 234 236 234 237 234 234 235 236 235 235 235 237 236 238 236 239 236 236 237 238 237 237 237 239 238 240 238 241 238 238 239 240 239 239 239 241 240 242 240 243 240 240 241 242 241 241 241 243 242 244 242 245 242 242 243 244 243 243 243 245 244 246 244 247 244 244 245 246 245 245 245 247 246 248 246 249 246 246 247 248 247 247 247 249 248 250 248 251 248 248 249 250 249 249 249 251 250 0 250 2 250 250 251 0 251 251 251 156 252 154 252 158 252 154 253 162 253 158 253 158 254 162 254 160 254 152 255 150 255 154 255 164 256 168 256 166 256 146 257 144 257 149 257 149 258 144 258 150 258 164 259 172 259 168 259 162 260 172 260 164 260 168 261 172 261 170 261 150 262 142 262 154 262 144 263 142 263 150 263 140 264 138 264 142 264 172 265 178 265 174 265 174 266 178 266 176 266 136 267 134 267 138 267 172 268 182 268 178 268 178 269 182 269 180 269 130 270 128 270 132 270 132 271 128 271 134 271 182 272 188 272 184 272 184 273 188 273 186 273 134 274 126 274 138 274 128 275 126 275 134 275 188 276 192 276 190 276 124 277 122 277 126 277 118 278 116 278 120 278 120 279 116 279 122 279 192 280 200 280 194 280 194 281 200 281 196 281 188 282 200 282 192 282 196 283 200 283 198 283 188 284 202 284 200 284 116 285 112 285 122 285 114 286 112 286 116 286 126 287 112 287 138 287 122 288 112 288 126 288 202 289 206 289 204 289 188 290 206 290 202 290 154 291 206 291 162 291 162 292 206 292 172 292 142 293 206 293 154 293 138 294 206 294 142 294 172 295 206 295 182 295 182 296 206 296 188 296 206 297 210 297 208 297 106 298 104 298 108 298 108 299 104 299 110 299 110 300 104 300 112 300 206 301 212 301 210 301 206 302 214 302 212 302 112 303 216 303 138 303 138 304 216 304 206 304 206 305 216 305 214 305 100 306 98 306 102 306 102 307 98 307 104 307 216 308 220 308 218 308 112 309 220 309 216 309 96 310 94 310 98 310 104 311 92 311 112 311 98 312 92 312 104 312 94 313 92 313 98 313 220 314 224 314 222 314 220 315 226 315 224 315 90 316 88 316 92 316 220 317 228 317 226 317 88 318 86 318 92 318 228 319 232 319 230 319 112 320 232 320 220 320 220 321 232 321 228 321 85 322 82 322 86 322 86 323 82 323 92 323 82 324 80 324 92 324 78 325 76 325 80 325 236 326 240 326 238 326 232 327 244 327 234 327 234 328 244 328 236 328 240 329 244 329 242 329 236 330 244 330 240 330 72 331 70 331 74 331 74 332 70 332 76 332 76 333 70 333 80 333 232 334 246 334 244 334 67 335 64 335 68 335 248 336 0 336 250 336 64 337 60 337 68 337 62 338 60 338 64 338 68 339 60 339 70 339 0 340 6 340 1 340 1 341 6 341 4 341 232 342 6 342 246 342 246 343 6 343 248 343 248 344 6 344 0 344 58 345 56 345 60 345 56 346 54 346 60 346 6 347 50 347 8 347 8 348 50 348 10 348 232 349 50 349 6 349 10 350 50 350 12 350 54 351 50 351 60 351 60 352 50 352 70 352 52 353 50 353 54 353 92 354 50 354 112 354 112 355 50 355 232 355 80 356 50 356 92 356 70 357 50 357 80 357 12 358 16 358 14 358 48 359 16 359 50 359 50 360 16 360 12 360 46 361 44 361 48 361 18 362 22 362 20 362 18 363 24 363 22 363 16 364 38 364 18 364 41 365 38 365 43 365 43 366 38 366 44 366 48 367 38 367 16 367 44 368 38 368 48 368 18 369 38 369 24 369 24 370 30 370 26 370 26 371 30 371 28 371 34 372 32 372 36 372 36 373 32 373 38 373 38 374 32 374 24 374 24 375 32 375 30 375 155 376 157 376 159 376 163 377 155 377 159 377 163 378 159 378 161 378 151 379 153 379 155 379 169 380 165 380 167 380 145 381 147 381 148 381 145 382 148 382 151 382 173 383 165 383 169 383 173 384 163 384 165 384 173 385 169 385 171 385 143 386 151 386 155 386 143 387 145 387 151 387 139 388 141 388 143 388 179 389 173 389 175 389 179 390 175 390 177 390 135 391 137 391 139 391 183 392 173 392 179 392 183 393 179 393 181 393 129 394 131 394 133 394 129 395 133 395 135 395 189 396 183 396 185 396 189 397 185 397 187 397 127 398 135 398 139 398 127 399 129 399 135 399 193 400 189 400 191 400 123 401 125 401 127 401 117 402 119 402 121 402 117 403 121 403 123 403 201 404 193 404 195 404 201 405 195 405 197 405 201 406 189 406 193 406 201 407 197 407 199 407 203 408 189 408 201 408 113 409 117 409 123 409 113 410 115 410 117 410 113 411 127 411 139 411 113 412 123 412 127 412 207 413 203 413 205 413 207 414 189 414 203 414 207 415 155 415 163 415 207 416 163 416 173 416 207 417 143 417 155 417 207 418 139 418 143 418 207 419 173 419 183 419 207 420 183 420 189 420 211 421 207 421 209 421 105 422 107 422 109 422 105 423 109 423 111 423 105 424 111 424 113 424 213 425 207 425 211 425 215 426 207 426 213 426 217 427 113 427 139 427 217 428 139 428 207 428 217 429 207 429 215 429 99 430 101 430 103 430 99 431 103 431 105 431 221 432 217 432 219 432 221 433 113 433 217 433 95 434 97 434 99 434 93 435 105 435 113 435 93 436 99 436 105 436 93 437 95 437 99 437 225 438 221 438 223 438 227 439 221 439 225 439 89 440 91 440 93 440 229 441 221 441 227 441 87 442 89 442 93 442 233 443 229 443 231 443 233 444 113 444 221 444 233 445 221 445 229 445 83 446 84 446 87 446 83 447 87 447 93 447 81 448 83 448 93 448 77 449 79 449 81 449 241 450 237 450 239 450 245 451 233 451 235 451 245 452 235 452 237 452 245 453 241 453 243 453 245 454 237 454 241 454 71 455 73 455 75 455 71 456 75 456 77 456 71 457 77 457 81 457 247 458 233 458 245 458 65 459 66 459 69 459 2 460 249 460 251 460 61 461 65 461 69 461 61 462 63 462 65 462 61 463 69 463 71 463 7 464 2 464 3 464 7 465 3 465 5 465 7 466 233 466 247 466 7 467 247 467 249 467 7 468 249 468 2 468 57 469 59 469 61 469 55 470 57 470 61 470 51 471 7 471 9 471 51 472 9 472 11 472 51 473 233 473 7 473 51 474 11 474 13 474 51 475 55 475 61 475 51 476 61 476 71 476 51 477 53 477 55 477 51 478 93 478 113 478 51 479 113 479 233 479 51 480 81 480 93 480 51 481 71 481 81 481 17 482 13 482 15 482 17 483 49 483 51 483 17 484 51 484 13 484 45 485 47 485 49 485 23 486 19 486 21 486 25 487 19 487 23 487 39 488 17 488 19 488 39 489 40 489 42 489 39 490 42 490 45 490 39 491 49 491 17 491 39 492 45 492 49 492 39 493 19 493 25 493 31 494 25 494 27 494 31 495 27 495 29 495 33 496 35 496 37 496 33 497 37 497 39 497 33 498 39 498 25 498 33 499 25 499 31 499 254 500 253 500 255 500 255 501 256 501 257 501 257 502 258 502 259 502 259 503 260 503 261 503 261 504 260 504 262 504 262 505 263 505 264 505 264 506 266 506 267 506 267 507 268 507 269 507 269 508 268 508 270 508 270 509 272 509 273 509 273 510 274 510 275 510 275 511 276 511 277 511 277 512 278 512 279 512 279 513 280 513 281 513 281 514 282 514 283 514 283 515 284 515 285 515 285 516 286 516 287 516 287 517 288 517 289 517 289 518 290 518 291 518 291 519 292 519 293 519 293 520 292 520 294 520 294 521 296 521 297 521 297 522 296 522 298 522 298 523 300 523 301 523 301 524 300 524 302 524 302 525 304 525 305 525 305 526 306 526 307 526 307 527 306 527 308 527 308 528 309 528 310 528 310 529 312 529 313 529 313 530 312 530 314 530 314 531 316 531 317 531 317 532 316 532 318 532 318 533 320 533 321 533 321 534 320 534 322 534 322 535 324 535 325 535 325 536 326 536 327 536 327 537 328 537 329 537 329 538 330 538 331 538 331 539 332 539 333 539 333 540 332 540 334 540 334 541 336 541 337 541 337 542 338 542 339 542 339 543 340 543 341 543 341 544 342 544 343 544 343 545 344 545 345 545 345 546 346 546 347 546 347 547 348 547 349 547 349 548 350 548 351 548 351 549 352 549 353 549 353 550 354 550 355 550 355 551 356 551 357 551 357 552 358 552 359 552 359 553 360 553 361 553 361 554 362 554 363 554 363 555 364 555 365 555 365 556 366 556 367 556 367 557 368 557 369 557 369 558 370 558 371 558 371 559 372 559 373 559 373 560 374 560 375 560 375 561 376 561 377 561 377 562 378 562 379 562 379 563 380 563 381 563 381 564 382 564 383 564 383 565 384 565 385 565 385 566 386 566 387 566 387 567 388 567 389 567 389 568 390 568 391 568 391 569 392 569 393 569 393 570 394 570 395 570 395 571 396 571 397 571 397 572 398 572 399 572 399 573 400 573 401 573 401 574 402 574 403 574 403 575 404 575 405 575 405 576 406 576 407 576 407 577 408 577 409 577 409 578 410 578 411 578 411 579 412 579 413 579 413 580 414 580 415 580 415 581 416 581 417 581 417 582 418 582 419 582 419 583 420 583 421 583 421 584 422 584 423 584 423 585 424 585 425 585 425 586 426 586 427 586 427 587 428 587 429 587 429 588 430 588 431 588 431 589 432 589 433 589 433 590 434 590 435 590 435 591 436 591 437 591 437 592 438 592 439 592 439 593 438 593 440 593 440 594 442 594 443 594 443 595 444 595 445 595 445 596 446 596 447 596 447 597 448 597 449 597 450 598 451 598 452 598 449 599 451 599 450 599 452 600 454 600 455 600 455 601 456 601 457 601 457 602 458 602 459 602 459 603 458 603 460 603 460 604 462 604 463 604 463 605 464 605 465 605 465 606 466 606 467 606 467 607 466 607 468 607 468 608 470 608 471 608 471 609 470 609 472 609 472 610 474 610 475 610 475 611 476 611 477 611 477 612 478 612 479 612 479 613 480 613 481 613 481 614 482 614 483 614 483 615 484 615 485 615 485 616 486 616 487 616 487 617 488 617 489 617 489 618 490 618 491 618 491 619 492 619 493 619 493 620 494 620 495 620 495 621 496 621 497 621 497 622 498 622 499 622 499 623 500 623 501 623 501 624 502 624 503 624 503 625 252 625 254 625 407 626 409 626 411 626 415 627 411 627 413 627 405 628 407 628 411 628 405 629 411 629 415 629 403 630 405 630 415 630 421 631 417 631 419 631 399 632 401 632 403 632 397 633 399 633 403 633 425 634 417 634 421 634 425 635 415 635 417 635 425 636 421 636 423 636 391 637 393 637 395 637 431 638 403 638 415 638 431 639 415 639 425 639 431 640 425 640 427 640 431 641 427 641 429 641 437 642 403 642 431 642 437 643 431 643 433 643 437 644 433 644 435 644 439 645 397 645 403 645 439 646 403 646 437 646 379 647 381 647 383 647 379 648 383 648 385 648 379 649 385 649 387 649 379 650 387 650 389 650 373 651 375 651 377 651 373 652 377 652 379 652 373 653 379 653 389 653 449 654 439 654 440 654 449 655 440 655 443 655 449 656 443 656 445 656 449 657 445 657 447 657 369 658 371 658 373 658 452 659 395 659 397 659 452 660 397 660 439 660 452 661 439 661 449 661 452 662 449 662 450 662 455 663 395 663 452 663 455 664 391 664 395 664 455 665 389 665 391 665 363 666 365 666 367 666 363 667 367 667 369 667 361 668 369 668 373 668 361 669 363 669 369 669 359 670 361 670 373 670 463 671 455 671 457 671 463 672 457 672 459 672 463 673 459 673 460 673 357 674 373 674 389 674 357 675 359 675 373 675 467 676 463 676 465 676 467 677 455 677 463 677 468 678 455 678 467 678 351 679 353 679 355 679 351 680 355 680 357 680 345 681 347 681 349 681 477 682 468 682 471 682 477 683 471 683 472 683 477 684 472 684 475 684 477 685 455 685 468 685 483 686 479 686 481 686 337 687 339 687 341 687 337 688 341 688 343 688 334 689 337 689 343 689 487 690 389 690 455 690 487 691 477 691 479 691 487 692 483 692 485 692 487 693 357 693 389 693 487 694 455 694 477 694 487 695 479 695 483 695 331 696 333 696 334 696 329 697 334 697 343 697 329 698 331 698 334 698 493 699 487 699 489 699 493 700 489 700 491 700 495 701 351 701 357 701 495 702 349 702 351 702 495 703 345 703 349 703 495 704 357 704 487 704 495 705 487 705 493 705 322 706 325 706 327 706 322 707 327 707 329 707 322 708 329 708 343 708 499 709 495 709 497 709 318 710 321 710 322 710 503 711 499 711 501 711 313 712 318 712 322 712 313 713 314 713 317 713 313 714 317 714 318 714 257 715 254 715 255 715 257 716 499 716 503 716 257 717 503 717 254 717 261 718 257 718 259 718 307 719 313 719 322 719 307 720 308 720 310 720 307 721 310 721 313 721 307 722 322 722 343 722 262 723 495 723 499 723 262 724 499 724 257 724 262 725 257 725 261 725 262 726 345 726 495 726 301 727 302 727 305 727 269 728 262 728 264 728 269 729 264 729 267 729 298 730 305 730 307 730 298 731 301 731 305 731 273 732 269 732 270 732 294 733 297 733 298 733 275 734 269 734 273 734 293 735 298 735 307 735 293 736 294 736 298 736 277 737 269 737 275 737 279 738 345 738 262 738 279 739 262 739 269 739 279 740 343 740 345 740 279 741 269 741 277 741 287 742 289 742 291 742 285 743 279 743 281 743 285 744 281 744 283 744 285 745 307 745 343 745 285 746 291 746 293 746 285 747 287 747 291 747 285 748 343 748 279 748 285 749 293 749 307 749 504 750 505 750 252 750 505 751 506 751 253 751 506 752 507 752 256 752 507 753 508 753 258 753 508 754 509 754 260 754 509 755 510 755 263 755 510 756 511 756 266 756 511 757 512 757 266 757 512 758 513 758 268 758 513 759 514 759 271 759 514 760 515 760 272 760 515 761 516 761 274 761 516 762 517 762 276 762 517 763 518 763 278 763 518 764 519 764 280 764 519 765 520 765 282 765 520 766 521 766 284 766 521 767 522 767 286 767 522 768 523 768 288 768 523 769 524 769 292 769 524 770 525 770 295 770 525 771 526 771 295 771 526 772 527 772 296 772 527 773 528 773 299 773 528 774 529 774 300 774 529 775 530 775 303 775 530 776 531 776 304 776 531 777 532 777 306 777 532 778 533 778 309 778 533 779 534 779 311 779 534 780 535 780 312 780 535 781 536 781 315 781 536 782 537 782 319 782 537 783 538 783 319 783 538 784 539 784 320 784 539 785 540 785 323 785 540 786 541 786 324 786 541 787 542 787 326 787 542 788 543 788 328 788 543 789 544 789 330 789 544 790 545 790 332 790 545 791 546 791 336 791 546 792 547 792 336 792 547 793 548 793 338 793 548 794 549 794 340 794 549 795 550 795 342 795 550 796 551 796 344 796 551 797 552 797 346 797 552 798 553 798 348 798 553 799 554 799 350 799 554 800 555 800 352 800 555 801 556 801 354 801 556 802 557 802 356 802 557 803 558 803 358 803 558 804 559 804 360 804 559 805 560 805 362 805 560 806 561 806 364 806 561 807 562 807 366 807 562 808 563 808 368 808 563 809 564 809 370 809 564 810 565 810 372 810 565 811 566 811 374 811 566 812 567 812 376 812 567 813 568 813 378 813 568 814 569 814 380 814 569 815 570 815 382 815 570 816 571 816 384 816 571 817 572 817 386 817 572 818 573 818 388 818 573 819 574 819 390 819 574 820 575 820 392 820 575 821 576 821 394 821 576 822 577 822 396 822 577 823 578 823 400 823 578 824 579 824 400 824 579 825 580 825 402 825 580 826 581 826 404 826 581 827 582 827 406 827 582 828 583 828 408 828 583 829 584 829 410 829 584 830 585 830 412 830 585 831 586 831 414 831 586 832 587 832 416 832 587 833 588 833 418 833 588 834 589 834 420 834 589 835 590 835 422 835 590 836 591 836 424 836 591 837 592 837 426 837 592 838 593 838 428 838 593 839 594 839 430 839 594 840 595 840 432 840 595 841 596 841 434 841 596 842 597 842 436 842 597 843 598 843 438 843 598 844 599 844 441 844 599 845 600 845 442 845 600 846 601 846 444 846 601 847 602 847 446 847 602 848 603 848 448 848 603 849 604 849 451 849 604 850 605 850 453 850 605 851 606 851 454 851 606 852 607 852 456 852 607 853 608 853 458 853 608 854 609 854 461 854 609 855 610 855 462 855 610 856 611 856 464 856 611 857 612 857 466 857 612 858 613 858 469 858 613 859 614 859 470 859 614 860 615 860 473 860 615 861 616 861 474 861 616 862 617 862 476 862 617 863 618 863 478 863 618 864 619 864 480 864 619 865 620 865 482 865 620 866 621 866 484 866 621 867 622 867 486 867 622 868 623 868 488 868 623 869 624 869 490 869 624 870 625 870 492 870 625 871 626 871 494 871 626 872 627 872 496 872 627 873 628 873 498 873 628 874 629 874 500 874 629 875 504 875 502 875 582 876 581 876 583 876 583 877 585 877 584 877 581 878 580 878 583 878 583 879 580 879 585 879 580 880 579 880 585 880 586 881 588 881 587 881 578 882 577 882 579 882 577 883 576 883 579 883 586 884 590 884 588 884 585 885 590 885 586 885 588 886 590 886 589 886 574 887 573 887 575 887 579 888 593 888 585 888 585 889 593 889 590 889 590 890 593 890 591 890 591 891 593 891 592 891 579 892 596 892 593 892 593 893 596 893 594 893 594 894 596 894 595 894 576 895 597 895 579 895 579 896 597 896 596 896 568 897 567 897 569 897 569 898 567 898 570 898 570 899 567 899 571 899 571 900 567 900 572 900 565 901 564 901 566 901 566 902 564 902 567 902 567 903 564 903 572 903 597 904 602 904 598 904 598 905 602 905 599 905 599 906 602 906 600 906 600 907 602 907 601 907 563 908 562 908 564 908 575 909 604 909 576 909 576 910 604 910 597 910 597 911 604 911 602 911 602 912 604 912 603 912 575 913 605 913 604 913 573 914 605 914 575 914 572 915 605 915 573 915 560 916 559 916 561 916 561 917 559 917 562 917 562 918 558 918 564 918 559 919 558 919 562 919 558 920 557 920 564 920 605 921 609 921 606 921 606 922 609 922 607 922 607 923 609 923 608 923 564 924 556 924 572 924 557 925 556 925 564 925 609 926 611 926 610 926 605 927 611 927 609 927 605 928 612 928 611 928 554 929 553 929 555 929 555 930 553 930 556 930 551 931 550 931 552 931 612 932 616 932 613 932 613 933 616 933 614 933 614 934 616 934 615 934 605 935 616 935 612 935 617 936 619 936 618 936 547 937 546 937 548 937 548 938 546 938 549 938 546 939 545 939 549 939 572 940 621 940 605 940 616 941 621 941 617 941 619 942 621 942 620 942 556 943 621 943 572 943 605 944 621 944 616 944 617 945 621 945 619 945 544 946 543 946 545 946 545 947 542 947 549 947 543 948 542 948 545 948 621 949 624 949 622 949 622 950 624 950 623 950 553 951 625 951 556 951 552 952 625 952 553 952 550 953 625 953 552 953 556 954 625 954 621 954 621 955 625 955 624 955 540 956 539 956 541 956 541 957 539 957 542 957 542 958 539 958 549 958 625 959 627 959 626 959 538 960 537 960 539 960 627 961 629 961 628 961 537 962 534 962 539 962 535 963 534 963 536 963 536 964 534 964 537 964 504 965 506 965 505 965 627 966 506 966 629 966 629 967 506 967 504 967 506 968 508 968 507 968 534 969 531 969 539 969 532 970 531 970 533 970 533 971 531 971 534 971 539 972 531 972 549 972 625 973 509 973 627 973 627 974 509 974 506 974 506 975 509 975 508 975 550 976 509 976 625 976 529 977 528 977 530 977 509 978 512 978 510 978 510 979 512 979 511 979 530 980 527 980 531 980 528 981 527 981 530 981 512 982 514 982 513 982 526 983 525 983 527 983 512 984 515 984 514 984 527 985 524 985 531 985 525 986 524 986 527 986 512 987 516 987 515 987 550 988 517 988 509 988 509 989 517 989 512 989 549 990 517 990 550 990 512 991 517 991 516 991 522 992 521 992 523 992 517 993 520 993 518 993 518 994 520 994 519 994 531 995 520 995 549 995 523 996 520 996 524 996 521 997 520 997 523 997 549 998 520 998 517 998 524 999 520 999 531 999 632 1000 631 1000 633 1000 633 1001 634 1001 635 1001 635 1002 634 1002 636 1002 636 1003 638 1003 639 1003 639 1004 638 1004 640 1004 640 1005 641 1005 642 1005 642 1006 644 1006 645 1006 645 1007 646 1007 647 1007 647 1008 646 1008 648 1008 648 1009 650 1009 651 1009 651 1010 652 1010 653 1010 653 1011 654 1011 655 1011 655 1012 656 1012 657 1012 657 1013 658 1013 659 1013 659 1014 660 1014 661 1014 661 1015 662 1015 663 1015 663 1016 664 1016 665 1016 665 1017 666 1017 667 1017 667 1018 668 1018 669 1018 669 1019 670 1019 671 1019 671 1020 670 1020 672 1020 672 1021 674 1021 675 1021 675 1022 674 1022 676 1022 676 1023 678 1023 679 1023 679 1024 678 1024 680 1024 680 1025 682 1025 683 1025 683 1026 684 1026 685 1026 685 1027 684 1027 686 1027 686 1028 687 1028 688 1028 688 1029 690 1029 691 1029 691 1030 690 1030 692 1030 692 1031 694 1031 695 1031 695 1032 694 1032 696 1032 696 1033 698 1033 699 1033 699 1034 698 1034 700 1034 700 1035 702 1035 703 1035 703 1036 704 1036 705 1036 705 1037 706 1037 707 1037 707 1038 708 1038 709 1038 709 1039 710 1039 711 1039 711 1040 710 1040 712 1040 712 1041 714 1041 715 1041 715 1042 716 1042 717 1042 717 1043 718 1043 719 1043 719 1044 720 1044 721 1044 721 1045 722 1045 723 1045 723 1046 724 1046 725 1046 725 1047 726 1047 727 1047 727 1048 728 1048 729 1048 729 1049 730 1049 731 1049 731 1050 732 1050 733 1050 733 1051 734 1051 735 1051 735 1052 736 1052 737 1052 737 1053 738 1053 739 1053 739 1054 740 1054 741 1054 741 1055 742 1055 743 1055 743 1056 744 1056 745 1056 745 1057 746 1057 747 1057 747 1058 748 1058 749 1058 749 1059 750 1059 751 1059 751 1060 752 1060 753 1060 753 1061 754 1061 755 1061 755 1062 756 1062 757 1062 757 1063 758 1063 759 1063 759 1064 760 1064 761 1064 761 1065 762 1065 763 1065 763 1066 764 1066 765 1066 765 1067 766 1067 767 1067 767 1068 768 1068 769 1068 769 1069 770 1069 771 1069 771 1070 772 1070 773 1070 773 1071 774 1071 775 1071 775 1072 776 1072 777 1072 777 1073 778 1073 779 1073 779 1074 780 1074 781 1074 781 1075 782 1075 783 1075 783 1076 784 1076 785 1076 785 1077 786 1077 787 1077 787 1078 788 1078 789 1078 789 1079 790 1079 791 1079 791 1080 792 1080 793 1080 793 1081 794 1081 795 1081 795 1082 796 1082 797 1082 797 1083 798 1083 799 1083 799 1084 800 1084 801 1084 801 1085 802 1085 803 1085 803 1086 804 1086 805 1086 805 1087 806 1087 807 1087 807 1088 808 1088 809 1088 809 1089 810 1089 811 1089 811 1090 812 1090 813 1090 813 1091 814 1091 815 1091 815 1092 816 1092 817 1092 817 1093 816 1093 818 1093 818 1094 820 1094 821 1094 821 1095 822 1095 823 1095 823 1096 824 1096 825 1096 825 1097 826 1097 827 1097 828 1098 829 1098 830 1098 827 1099 829 1099 828 1099 830 1100 832 1100 833 1100 833 1101 834 1101 835 1101 835 1102 836 1102 837 1102 837 1103 836 1103 838 1103 838 1104 840 1104 841 1104 841 1105 842 1105 843 1105 843 1106 844 1106 845 1106 845 1107 844 1107 846 1107 846 1108 848 1108 849 1108 849 1109 848 1109 850 1109 850 1110 852 1110 853 1110 853 1111 854 1111 855 1111 855 1112 856 1112 857 1112 857 1113 858 1113 859 1113 859 1114 860 1114 861 1114 861 1115 862 1115 863 1115 863 1116 864 1116 865 1116 865 1117 866 1117 867 1117 867 1118 868 1118 869 1118 869 1119 870 1119 871 1119 871 1120 872 1120 873 1120 873 1121 874 1121 875 1121 875 1122 876 1122 877 1122 877 1123 878 1123 879 1123 879 1124 880 1124 881 1124 881 1125 630 1125 632 1125 785 1126 787 1126 789 1126 793 1127 789 1127 791 1127 783 1128 785 1128 789 1128 783 1129 789 1129 793 1129 781 1130 783 1130 793 1130 799 1131 795 1131 797 1131 777 1132 779 1132 781 1132 775 1133 777 1133 781 1133 803 1134 795 1134 799 1134 803 1135 793 1135 795 1135 803 1136 799 1136 801 1136 769 1137 771 1137 773 1137 809 1138 781 1138 793 1138 809 1139 793 1139 803 1139 809 1140 803 1140 805 1140 809 1141 805 1141 807 1141 815 1142 781 1142 809 1142 815 1143 809 1143 811 1143 815 1144 811 1144 813 1144 817 1145 775 1145 781 1145 817 1146 781 1146 815 1146 757 1147 759 1147 761 1147 757 1148 761 1148 763 1148 757 1149 763 1149 765 1149 757 1150 765 1150 767 1150 751 1151 753 1151 755 1151 751 1152 755 1152 757 1152 751 1153 757 1153 767 1153 827 1154 817 1154 818 1154 827 1155 818 1155 821 1155 827 1156 821 1156 823 1156 827 1157 823 1157 825 1157 747 1158 749 1158 751 1158 830 1159 773 1159 775 1159 830 1160 775 1160 817 1160 830 1161 817 1161 827 1161 830 1162 827 1162 828 1162 833 1163 773 1163 830 1163 833 1164 769 1164 773 1164 833 1165 767 1165 769 1165 741 1166 743 1166 745 1166 741 1167 745 1167 747 1167 739 1168 747 1168 751 1168 739 1169 741 1169 747 1169 737 1170 739 1170 751 1170 841 1171 833 1171 835 1171 841 1172 835 1172 837 1172 841 1173 837 1173 838 1173 735 1174 751 1174 767 1174 735 1175 737 1175 751 1175 845 1176 841 1176 843 1176 845 1177 833 1177 841 1177 846 1178 833 1178 845 1178 729 1179 731 1179 733 1179 729 1180 733 1180 735 1180 723 1181 725 1181 727 1181 855 1182 846 1182 849 1182 855 1183 849 1183 850 1183 855 1184 850 1184 853 1184 855 1185 833 1185 846 1185 861 1186 857 1186 859 1186 715 1187 717 1187 719 1187 715 1188 719 1188 721 1188 712 1189 715 1189 721 1189 865 1190 767 1190 833 1190 865 1191 855 1191 857 1191 865 1192 861 1192 863 1192 865 1193 735 1193 767 1193 865 1194 833 1194 855 1194 865 1195 857 1195 861 1195 709 1196 711 1196 712 1196 707 1197 712 1197 721 1197 707 1198 709 1198 712 1198 871 1199 865 1199 867 1199 871 1200 867 1200 869 1200 873 1201 729 1201 735 1201 873 1202 727 1202 729 1202 873 1203 723 1203 727 1203 873 1204 735 1204 865 1204 873 1205 865 1205 871 1205 700 1206 703 1206 705 1206 700 1207 705 1207 707 1207 700 1208 707 1208 721 1208 877 1209 873 1209 875 1209 696 1210 699 1210 700 1210 881 1211 877 1211 879 1211 691 1212 696 1212 700 1212 691 1213 692 1213 695 1213 691 1214 695 1214 696 1214 635 1215 632 1215 633 1215 635 1216 877 1216 881 1216 635 1217 881 1217 632 1217 639 1218 635 1218 636 1218 685 1219 691 1219 700 1219 685 1220 686 1220 688 1220 685 1221 688 1221 691 1221 685 1222 700 1222 721 1222 640 1223 873 1223 877 1223 640 1224 877 1224 635 1224 640 1225 635 1225 639 1225 640 1226 723 1226 873 1226 679 1227 680 1227 683 1227 647 1228 640 1228 642 1228 647 1229 642 1229 645 1229 676 1230 683 1230 685 1230 676 1231 679 1231 683 1231 651 1232 647 1232 648 1232 672 1233 675 1233 676 1233 653 1234 647 1234 651 1234 671 1235 676 1235 685 1235 671 1236 672 1236 676 1236 655 1237 647 1237 653 1237 657 1238 723 1238 640 1238 657 1239 640 1239 647 1239 657 1240 721 1240 723 1240 657 1241 647 1241 655 1241 665 1242 667 1242 669 1242 663 1243 657 1243 659 1243 663 1244 659 1244 661 1244 663 1245 685 1245 721 1245 663 1246 669 1246 671 1246 663 1247 665 1247 669 1247 663 1248 721 1248 657 1248 663 1249 671 1249 685 1249 882 1250 883 1250 630 1250 883 1251 884 1251 631 1251 884 1252 885 1252 637 1252 885 1253 886 1253 637 1253 886 1254 887 1254 638 1254 887 1255 888 1255 643 1255 888 1256 889 1256 643 1256 889 1257 890 1257 646 1257 890 1258 891 1258 646 1258 891 1259 892 1259 649 1259 892 1260 893 1260 650 1260 893 1261 894 1261 654 1261 894 1262 895 1262 656 1262 895 1263 896 1263 656 1263 896 1264 897 1264 658 1264 897 1265 898 1265 662 1265 898 1266 899 1266 662 1266 899 1267 900 1267 666 1267 900 1268 901 1268 666 1268 901 1269 902 1269 668 1269 902 1270 903 1270 670 1270 903 1271 904 1271 674 1271 904 1272 905 1272 674 1272 905 1273 906 1273 677 1273 906 1274 907 1274 681 1274 907 1275 908 1275 681 1275 908 1276 909 1276 684 1276 909 1277 910 1277 684 1277 910 1278 911 1278 689 1278 911 1279 912 1279 690 1279 912 1280 913 1280 690 1280 913 1281 914 1281 694 1281 914 1282 915 1282 697 1282 915 1283 916 1283 697 1283 916 1284 917 1284 701 1284 917 1285 918 1285 702 1285 918 1286 919 1286 704 1286 919 1287 920 1287 704 1287 920 1288 921 1288 706 1288 921 1289 922 1289 708 1289 922 1290 923 1290 710 1290 923 1291 924 1291 713 1291 924 1292 925 1292 714 1292 925 1293 926 1293 716 1293 926 1294 927 1294 718 1294 927 1295 928 1295 720 1295 928 1296 929 1296 722 1296 929 1297 930 1297 724 1297 930 1298 931 1298 726 1298 931 1299 932 1299 728 1299 932 1300 933 1300 732 1300 933 1301 934 1301 732 1301 934 1302 935 1302 734 1302 935 1303 936 1303 736 1303 936 1304 937 1304 738 1304 937 1305 938 1305 740 1305 938 1306 939 1306 742 1306 939 1307 940 1307 746 1307 940 1308 941 1308 746 1308 941 1309 942 1309 748 1309 942 1310 943 1310 750 1310 943 1311 944 1311 752 1311 944 1312 945 1312 754 1312 945 1313 946 1313 756 1313 946 1314 947 1314 758 1314 947 1315 948 1315 760 1315 948 1316 949 1316 762 1316 949 1317 950 1317 764 1317 950 1318 951 1318 766 1318 951 1319 952 1319 768 1319 952 1320 953 1320 770 1320 953 1321 954 1321 772 1321 954 1322 955 1322 774 1322 955 1323 956 1323 776 1323 956 1324 957 1324 778 1324 957 1325 958 1325 780 1325 958 1326 959 1326 782 1326 959 1327 960 1327 784 1327 960 1328 961 1328 786 1328 961 1329 962 1329 788 1329 962 1330 963 1330 790 1330 963 1331 964 1331 794 1331 964 1332 965 1332 794 1332 965 1333 966 1333 796 1333 966 1334 967 1334 798 1334 967 1335 968 1335 800 1335 968 1336 969 1336 804 1336 969 1337 970 1337 806 1337 970 1338 971 1338 806 1338 971 1339 972 1339 808 1339 972 1340 973 1340 810 1340 973 1341 974 1341 812 1341 974 1342 975 1342 814 1342 975 1343 976 1343 816 1343 976 1344 977 1344 819 1344 977 1345 978 1345 822 1345 978 1346 979 1346 822 1346 979 1347 980 1347 824 1347 980 1348 981 1348 829 1348 981 1349 982 1349 831 1349 982 1350 983 1350 832 1350 983 1351 984 1351 832 1351 984 1352 985 1352 834 1352 985 1353 986 1353 839 1353 986 1354 987 1354 839 1354 987 1355 988 1355 842 1355 988 1356 989 1356 844 1356 989 1357 990 1357 844 1357 990 1358 991 1358 848 1358 991 1359 992 1359 848 1359 992 1360 993 1360 851 1360 993 1361 994 1361 852 1361 994 1362 995 1362 854 1362 995 1363 996 1363 858 1363 996 1364 997 1364 858 1364 997 1365 998 1365 860 1365 998 1366 999 1366 862 1366 999 1367 1000 1367 864 1367 1000 1368 1001 1368 866 1368 1001 1369 1002 1369 868 1369 1002 1370 1003 1370 870 1370 1003 1371 1004 1371 872 1371 1004 1372 1005 1372 874 1372 1005 1373 1006 1373 876 1373 1006 1374 1007 1374 878 1374 1007 1375 882 1375 630 1375 960 1376 959 1376 961 1376 961 1377 963 1377 962 1377 959 1378 958 1378 961 1378 961 1379 958 1379 963 1379 958 1380 957 1380 963 1380 964 1381 966 1381 965 1381 956 1382 955 1382 957 1382 955 1383 954 1383 957 1383 964 1384 968 1384 966 1384 963 1385 968 1385 964 1385 966 1386 968 1386 967 1386 952 1387 951 1387 953 1387 957 1388 971 1388 963 1388 963 1389 971 1389 968 1389 968 1390 971 1390 969 1390 969 1391 971 1391 970 1391 957 1392 974 1392 971 1392 971 1393 974 1393 972 1393 972 1394 974 1394 973 1394 954 1395 975 1395 957 1395 957 1396 975 1396 974 1396 946 1397 945 1397 947 1397 947 1398 945 1398 948 1398 948 1399 945 1399 949 1399 949 1400 945 1400 950 1400 943 1401 942 1401 944 1401 944 1402 942 1402 945 1402 945 1403 942 1403 950 1403 975 1404 980 1404 976 1404 976 1405 980 1405 977 1405 977 1406 980 1406 978 1406 978 1407 980 1407 979 1407 941 1408 940 1408 942 1408 953 1409 982 1409 954 1409 954 1410 982 1410 975 1410 975 1411 982 1411 980 1411 980 1412 982 1412 981 1412 953 1413 983 1413 982 1413 951 1414 983 1414 953 1414 950 1415 983 1415 951 1415 938 1416 937 1416 939 1416 939 1417 937 1417 940 1417 940 1418 936 1418 942 1418 937 1419 936 1419 940 1419 936 1420 935 1420 942 1420 983 1421 987 1421 984 1421 984 1422 987 1422 985 1422 985 1423 987 1423 986 1423 942 1424 934 1424 950 1424 935 1425 934 1425 942 1425 987 1426 989 1426 988 1426 983 1427 989 1427 987 1427 983 1428 990 1428 989 1428 932 1429 931 1429 933 1429 933 1430 931 1430 934 1430 929 1431 928 1431 930 1431 990 1432 994 1432 991 1432 991 1433 994 1433 992 1433 992 1434 994 1434 993 1434 983 1435 994 1435 990 1435 995 1436 997 1436 996 1436 925 1437 924 1437 926 1437 926 1438 924 1438 927 1438 924 1439 923 1439 927 1439 950 1440 999 1440 983 1440 994 1441 999 1441 995 1441 997 1442 999 1442 998 1442 934 1443 999 1443 950 1443 983 1444 999 1444 994 1444 995 1445 999 1445 997 1445 922 1446 921 1446 923 1446 923 1447 920 1447 927 1447 921 1448 920 1448 923 1448 999 1449 1002 1449 1000 1449 1000 1450 1002 1450 1001 1450 931 1451 1003 1451 934 1451 930 1452 1003 1452 931 1452 928 1453 1003 1453 930 1453 934 1454 1003 1454 999 1454 999 1455 1003 1455 1002 1455 918 1456 917 1456 919 1456 919 1457 917 1457 920 1457 920 1458 917 1458 927 1458 1003 1459 1005 1459 1004 1459 916 1460 915 1460 917 1460 1005 1461 1007 1461 1006 1461 915 1462 912 1462 917 1462 913 1463 912 1463 914 1463 914 1464 912 1464 915 1464 882 1465 884 1465 883 1465 1005 1466 884 1466 1007 1466 1007 1467 884 1467 882 1467 884 1468 886 1468 885 1468 912 1469 909 1469 917 1469 910 1470 909 1470 911 1470 911 1471 909 1471 912 1471 917 1472 909 1472 927 1472 1003 1473 887 1473 1005 1473 1005 1474 887 1474 884 1474 884 1475 887 1475 886 1475 928 1476 887 1476 1003 1476 907 1477 906 1477 908 1477 887 1478 890 1478 888 1478 888 1479 890 1479 889 1479 908 1480 905 1480 909 1480 906 1481 905 1481 908 1481 890 1482 892 1482 891 1482 904 1483 903 1483 905 1483 890 1484 893 1484 892 1484 905 1485 902 1485 909 1485 903 1486 902 1486 905 1486 890 1487 894 1487 893 1487 928 1488 895 1488 887 1488 887 1489 895 1489 890 1489 927 1490 895 1490 928 1490 890 1491 895 1491 894 1491 900 1492 899 1492 901 1492 895 1493 898 1493 896 1493 896 1494 898 1494 897 1494 909 1495 898 1495 927 1495 901 1496 898 1496 902 1496 899 1497 898 1497 901 1497 927 1498 898 1498 895 1498 902 1499 898 1499 909 1499</p>
        </triangles>
      </mesh>
    </geometry>
  </library_geometries>
  <library_materials>
    <material id="mat_Compound" name="Compound">
      <instance_effect url="#effect_Compound"/>
    </material>
  </library_materials>
  <library_visual_scenes>
    <visual_scene id="myscene">
      <node id="node0" name="node0">
        <instance_geometry url="#geometry0">
          <bind_material>
            <technique_common>
              <instance_material symbol="ref_Compound" target="#mat_Compound"/>
            </technique_common>
          </bind_material>
        </instance_geometry>
      </node>
    </visual_scene>
  </library_visual_scenes>
  <scene>
    <instance_visual_scene url="#myscene"/>
  </scene>
</COLLADA>
