<COLLADA xmlns="http://www.collada.org/2005/11/COLLADASchema" version="1.4.1">
  <asset>
    <contributor/>
    <created>2023-05-11T10:38:24.932955</created>
    <modified>2023-05-11T10:38:24.932963</modified>
    <unit name="meter" meter="1.0"/>
    <up_axis>Z_UP</up_axis>
  </asset>
  <library_effects>
    <effect id="effect_Mesh" name="effect_Mesh">
      <profile_COMMON>
        <technique sid="common">
          <phong>
            <emission>
              <color>0.0 0.0 0.0 1.0</color>
            </emission>
            <ambient>
              <color>0.0 0.0 0.0 1.0</color>
            </ambient>
            <diffuse>
              <color>0.20000000298023224 0.20000000298023224 0.20000000298023224 1.0</color>
            </diffuse>
            <specular>
              <color>1 1 1 1.0</color>
            </specular>
            <shininess>
              <float>0.0</float>
            </shininess>
            <reflective>
              <color>0.0 0.0 0.0 1.0</color>
            </reflective>
            <reflectivity>
              <float>0.0</float>
            </reflectivity>
            <transparent>
              <color>0.0 0.0 0.0 1.0</color>
            </transparent>
            <transparency>
              <float>1.0</float>
            </transparency>
          </phong>
        </technique>
        <extra>
          <technique profile="GOOGLEEARTH">
            <double_sided>0</double_sided>
          </technique>
        </extra>
      </profile_COMMON>
    </effect>
    <effect id="effect_Mesh001" name="effect_Mesh001">
      <profile_COMMON>
        <technique sid="common">
          <phong>
            <emission>
              <color>0.0 0.0 0.0 1.0</color>
            </emission>
            <ambient>
              <color>0.0 0.0 0.0 1.0</color>
            </ambient>
            <diffuse>
              <color>0.20000000298023224 0.20000000298023224 0.20000000298023224 1.0</color>
            </diffuse>
            <specular>
              <color>1 1 1 1.0</color>
            </specular>
            <shininess>
              <float>0.0</float>
            </shininess>
            <reflective>
              <color>0.0 0.0 0.0 1.0</color>
            </reflective>
            <reflectivity>
              <float>0.0</float>
            </reflectivity>
            <transparent>
              <color>0.0 0.0 0.0 1.0</color>
            </transparent>
            <transparency>
              <float>1.0</float>
            </transparency>
          </phong>
        </technique>
        <extra>
          <technique profile="GOOGLEEARTH">
            <double_sided>0</double_sided>
          </technique>
        </extra>
      </profile_COMMON>
    </effect>
    <effect id="effect_Mesh002" name="effect_Mesh002">
      <profile_COMMON>
        <technique sid="common">
          <phong>
            <emission>
              <color>0.0 0.0 0.0 1.0</color>
            </emission>
            <ambient>
              <color>0.0 0.0 0.0 1.0</color>
            </ambient>
            <diffuse>
              <color>0.20000000298023224 0.20000000298023224 0.20000000298023224 1.0</color>
            </diffuse>
            <specular>
              <color>1 1 1 1.0</color>
            </specular>
            <shininess>
              <float>0.0</float>
            </shininess>
            <reflective>
              <color>0.0 0.0 0.0 1.0</color>
            </reflective>
            <reflectivity>
              <float>0.0</float>
            </reflectivity>
            <transparent>
              <color>0.0 0.0 0.0 1.0</color>
            </transparent>
            <transparency>
              <float>1.0</float>
            </transparency>
          </phong>
        </technique>
        <extra>
          <technique profile="GOOGLEEARTH">
            <double_sided>0</double_sided>
          </technique>
        </extra>
      </profile_COMMON>
    </effect>
    <effect id="effect_Mesh003" name="effect_Mesh003">
      <profile_COMMON>
        <technique sid="common">
          <phong>
            <emission>
              <color>0.0 0.0 0.0 1.0</color>
            </emission>
            <ambient>
              <color>0.0 0.0 0.0 1.0</color>
            </ambient>
            <diffuse>
              <color>0.20000000298023224 0.20000000298023224 0.20000000298023224 1.0</color>
            </diffuse>
            <specular>
              <color>1 1 1 1.0</color>
            </specular>
            <shininess>
              <float>0.0</float>
            </shininess>
            <reflective>
              <color>0.0 0.0 0.0 1.0</color>
            </reflective>
            <reflectivity>
              <float>0.0</float>
            </reflectivity>
            <transparent>
              <color>0.0 0.0 0.0 1.0</color>
            </transparent>
            <transparency>
              <float>1.0</float>
            </transparency>
          </phong>
        </technique>
        <extra>
          <technique profile="GOOGLEEARTH">
            <double_sided>0</double_sided>
          </technique>
        </extra>
      </profile_COMMON>
    </effect>
    <effect id="effect_Mesh004" name="effect_Mesh004">
      <profile_COMMON>
        <technique sid="common">
          <phong>
            <emission>
              <color>0.0 0.0 0.0 1.0</color>
            </emission>
            <ambient>
              <color>0.0 0.0 0.0 1.0</color>
            </ambient>
            <diffuse>
              <color>1.0 1.0 0.0 1.0</color>
            </diffuse>
            <specular>
              <color>1 1 1 1.0</color>
            </specular>
            <shininess>
              <float>0.0</float>
            </shininess>
            <reflective>
              <color>0.0 0.0 0.0 1.0</color>
            </reflective>
            <reflectivity>
              <float>0.0</float>
            </reflectivity>
            <transparent>
              <color>0.0 0.0 0.0 1.0</color>
            </transparent>
            <transparency>
              <float>1.0</float>
            </transparency>
          </phong>
        </technique>
        <extra>
          <technique profile="GOOGLEEARTH">
            <double_sided>0</double_sided>
          </technique>
        </extra>
      </profile_COMMON>
    </effect>
    <effect id="effect_Mesh005" name="effect_Mesh005">
      <profile_COMMON>
        <technique sid="common">
          <phong>
            <emission>
              <color>0.0 0.0 0.0 1.0</color>
            </emission>
            <ambient>
              <color>0.0 0.0 0.0 1.0</color>
            </ambient>
            <diffuse>
              <color>1.0 0.0 1.0 1.0</color>
            </diffuse>
            <specular>
              <color>1 1 1 1.0</color>
            </specular>
            <shininess>
              <float>0.0</float>
            </shininess>
            <reflective>
              <color>0.0 0.0 0.0 1.0</color>
            </reflective>
            <reflectivity>
              <float>0.0</float>
            </reflectivity>
            <transparent>
              <color>0.0 0.0 0.0 1.0</color>
            </transparent>
            <transparency>
              <float>1.0</float>
            </transparency>
          </phong>
        </technique>
        <extra>
          <technique profile="GOOGLEEARTH">
            <double_sided>0</double_sided>
          </technique>
        </extra>
      </profile_COMMON>
    </effect>
    <effect id="effect_Mesh006" name="effect_Mesh006">
      <profile_COMMON>
        <technique sid="common">
          <phong>
            <emission>
              <color>0.0 0.0 0.0 1.0</color>
            </emission>
            <ambient>
              <color>0.0 0.0 0.0 1.0</color>
            </ambient>
            <diffuse>
              <color>1.0 0.0 0.0 1.0</color>
            </diffuse>
            <specular>
              <color>1 1 1 1.0</color>
            </specular>
            <shininess>
              <float>0.0</float>
            </shininess>
            <reflective>
              <color>0.0 0.0 0.0 1.0</color>
            </reflective>
            <reflectivity>
              <float>0.0</float>
            </reflectivity>
            <transparent>
              <color>0.0 0.0 0.0 1.0</color>
            </transparent>
            <transparency>
              <float>1.0</float>
            </transparency>
          </phong>
        </technique>
        <extra>
          <technique profile="GOOGLEEARTH">
            <double_sided>0</double_sided>
          </technique>
        </extra>
      </profile_COMMON>
    </effect>
    <effect id="effect_Mesh007" name="effect_Mesh007">
      <profile_COMMON>
        <technique sid="common">
          <phong>
            <emission>
              <color>0.0 0.0 0.0 1.0</color>
            </emission>
            <ambient>
              <color>0.0 0.0 0.0 1.0</color>
            </ambient>
            <diffuse>
              <color>0.0 0.0 0.0 1.0</color>
            </diffuse>
            <specular>
              <color>1 1 1 1.0</color>
            </specular>
            <shininess>
              <float>0.0</float>
            </shininess>
            <reflective>
              <color>0.0 0.0 0.0 1.0</color>
            </reflective>
            <reflectivity>
              <float>0.0</float>
            </reflectivity>
            <transparent>
              <color>0.0 0.0 0.0 1.0</color>
            </transparent>
            <transparency>
              <float>1.0</float>
            </transparency>
          </phong>
        </technique>
        <extra>
          <technique profile="GOOGLEEARTH">
            <double_sided>0</double_sided>
          </technique>
        </extra>
      </profile_COMMON>
    </effect>
    <effect id="effect_Mesh008" name="effect_Mesh008">
      <profile_COMMON>
        <technique sid="common">
          <phong>
            <emission>
              <color>0.0 0.0 0.0 1.0</color>
            </emission>
            <ambient>
              <color>0.0 0.0 0.0 1.0</color>
            </ambient>
            <diffuse>
              <color>0.0 0.0 0.0 1.0</color>
            </diffuse>
            <specular>
              <color>1 1 1 1.0</color>
            </specular>
            <shininess>
              <float>0.0</float>
            </shininess>
            <reflective>
              <color>0.0 0.0 0.0 1.0</color>
            </reflective>
            <reflectivity>
              <float>0.0</float>
            </reflectivity>
            <transparent>
              <color>0.0 0.0 0.0 1.0</color>
            </transparent>
            <transparency>
              <float>1.0</float>
            </transparency>
          </phong>
        </technique>
        <extra>
          <technique profile="GOOGLEEARTH">
            <double_sided>0</double_sided>
          </technique>
        </extra>
      </profile_COMMON>
    </effect>
  </library_effects>
  <library_geometries>
    <geometry id="geometry0" name="Mesh">
      <mesh>
        <source id="cubeverts-array0">
          <float_array count="144" id="cubeverts-array0-array">-4.889999 -0.4449192 0.07593439 -4.889999 -0.4400001 0.07600002 5.610002 -0.444919 0.07593488 5.610002 -0.4400001 0.07600002 -4.889999 -0.4450001 0.1209997 5.610002 -0.445 0.1210002 -4.889999 -0.3650002 0.1209997 5.610002 -0.3650001 0.1210002 -4.889999 -0.3650002 0.07593439 5.610002 -0.3650001 0.07593488 -4.889999 -0.3700001 0.07600002 5.610002 -0.3700001 0.07600002 -4.889999 -0.3700001 0.116 5.610002 -0.3700001 0.116 -4.889999 -0.4400001 0.116 5.610002 -0.4400001 0.116 5.607535 -0.3650608 0.3260003 5.60747 -0.3699799 0.3260003 5.607535 -0.3650609 0.1210002 5.60747 -0.3699799 0.1210002 5.56247 -0.3649798 0.3260003 5.56247 -0.3649799 0.1210002 5.56247 -0.4449798 0.3260003 5.56247 -0.4449799 0.1210002 5.607535 -0.4449798 0.3260003 5.607535 -0.4449799 0.1210002 5.60747 -0.4399799 0.3260003 5.60747 -0.4399799 0.1210002 5.56747 -0.4399799 0.3260003 5.56747 -0.4399799 0.1210002 5.56747 -0.3699799 0.3260003 5.56747 -0.3699799 0.1210002 -4.885062 -0.4449192 0.3260003 -4.884996 -0.4400001 0.3260003 -4.885062 -0.444919 0.1210002 -4.884998 -0.4400001 0.1210002 -4.839996 -0.4450001 0.3260003 -4.839996 -0.445 0.1210002 -4.839996 -0.3650002 0.3260003 -4.839996 -0.365 0.1210002 -4.885062 -0.3650002 0.3260003 -4.885062 -0.3650001 0.1210002 -4.884996 -0.3700001 0.3260003 -4.884998 -0.3700001 0.1210002 -4.844996 -0.3700001 0.3260003 -4.844997 -0.3700001 0.1210002 -4.844996 -0.4400001 0.3260003 -4.844997 -0.4400001 0.1210002</float_array>
          <technique_common>
            <accessor count="48" source="#cubeverts-array0-array" stride="3">
              <param type="float" name="X"/>
              <param type="float" name="Y"/>
              <param type="float" name="Z"/>
            </accessor>
          </technique_common>
        </source>
        <source id="cubenormals-array0">
          <float_array count="252" id="cubenormals-array0-array">4.695394e-08 0.01334185 -0.999911 0 0.01324163 -0.9999123 1.171054e-08 -0.9999984 -0.001795893 2.042991e-08 -0.9999984 -0.001797925 -4.722958e-08 0 1 -4.722958e-08 0 1 -8.719308e-09 1 0 -8.719308e-09 1 0 0 -0.01312625 -0.9999139 4.73391e-08 -0.01302685 -0.9999152 0 -1 0 0 -1 -0 0 0 -1 0 0 -1 0 1 0 0 1 -0 -1 -0 0 -1 0 0 -1 0 0 -1 -0 0 -1 0 0 -1 -0 -0 1 -0 0 1 0 0 1 0 0 1 -0 0 1 0 0 1 -0 0 0.9999142 -0.01310151 5.851113e-09 0.9999142 -0.01310175 0 0.001797263 0.9999984 -4.465978e-07 0.001797263 0.9999984 -4.465994e-07 -1 0 -0 -1 0 0 0 -1 5.954647e-07 0 -1 5.954647e-07 0.9999169 0.01288987 0 0.9999169 0.01288955 -7.675274e-09 -0 1 0 0 1 0 1 0 0 1 0 0 -0 -1 -0 0 -1 0 0 -0 1 -0 0 1 0 0 1 0 0 1 0 0 1 0 -0 1 0 -0 -1 0 0 -1 0 0 -1 0 0 -1 0 0 -1 0 -0 -1 -0.9999102 0.01339921 1.396283e-08 -0.9999154 0.01300283 9.526629e-06 -0.001795869 -0.9999984 -5.954637e-07 -0.001797901 -0.9999984 -1.042086e-06 1 0 0 1 0 0 -0 1 4.465985e-07 -2.031529e-06 1 8.93197e-07 -0.9999131 -0.01318269 9.526605e-06 -0.9999182 -0.01279192 -5.698316e-09 -0 -1 0 0 -1 0 -1 0 4.763717e-06 -1 0 4.763717e-06 -0 1 0 0 1 0 0 0 1 0 -0 1 -0 0 1 0 0 1 0 0 1 0 0 1 0 0 -1 0 0 -1 0 0 -1 0 0 -1 0 0 -1 0 0 -1</float_array>
          <technique_common>
            <accessor count="84" source="#cubenormals-array0-array" stride="3">
              <param type="float" name="X"/>
              <param type="float" name="Y"/>
              <param type="float" name="Z"/>
            </accessor>
          </technique_common>
        </source>
        <vertices id="cubeverts-array0-vertices">
          <input semantic="POSITION" source="#cubeverts-array0"/>
        </vertices>
        <triangles count="84" material="ref_Mesh">
          <input offset="0" semantic="VERTEX" source="#cubeverts-array0-vertices"/>
          <input offset="1" semantic="NORMAL" source="#cubenormals-array0"/>
          <p>0 0 1 0 2 0 2 1 1 1 3 1 4 2 0 2 5 2 5 3 0 3 2 3 6 4 4 4 7 4 7 5 4 5 5 5 8 6 6 6 9 6 9 7 6 7 7 7 10 8 8 8 11 8 11 9 8 9 9 9 12 10 10 10 13 10 13 11 10 11 11 11 14 12 12 12 15 12 15 13 12 13 13 13 1 14 14 14 3 14 3 15 14 15 15 15 1 16 0 16 4 16 12 17 6 17 10 17 8 18 10 18 6 18 6 19 12 19 4 19 4 20 12 20 14 20 14 21 1 21 4 21 11 22 9 22 7 22 5 23 2 23 3 23 5 24 3 24 15 24 5 25 15 25 7 25 7 26 15 26 13 26 13 27 11 27 7 27 16 28 17 28 18 28 18 29 17 29 19 29 20 30 16 30 21 30 21 31 16 31 18 31 22 32 20 32 23 32 23 33 20 33 21 33 24 34 22 34 25 34 25 35 22 35 23 35 26 36 24 36 27 36 27 37 24 37 25 37 28 38 26 38 29 38 29 39 26 39 27 39 30 40 28 40 31 40 31 41 28 41 29 41 17 42 30 42 19 42 19 43 30 43 31 43 17 44 16 44 20 44 28 45 22 45 26 45 24 46 26 46 22 46 22 47 28 47 20 47 20 48 28 48 30 48 30 49 17 49 20 49 27 50 25 50 23 50 21 51 18 51 19 51 21 52 19 52 31 52 21 53 31 53 23 53 23 54 31 54 29 54 29 55 27 55 23 55 32 56 33 56 34 56 34 57 33 57 35 57 36 58 32 58 37 58 37 59 32 59 34 59 38 60 36 60 39 60 39 61 36 61 37 61 40 62 38 62 41 62 41 63 38 63 39 63 42 64 40 64 43 64 43 65 40 65 41 65 44 66 42 66 45 66 45 67 42 67 43 67 46 68 44 68 47 68 47 69 44 69 45 69 33 70 46 70 35 70 35 71 46 71 47 71 33 72 32 72 36 72 44 73 38 73 42 73 40 74 42 74 38 74 38 75 44 75 36 75 36 76 44 76 46 76 46 77 33 77 36 77 43 78 41 78 39 78 37 79 34 79 35 79 37 80 35 80 47 80 37 81 47 81 39 81 39 82 47 82 45 82 45 83 43 83 39 83</p>
        </triangles>
      </mesh>
    </geometry>
    <geometry id="geometry1" name="Mesh001">
      <mesh>
        <source id="cubeverts-array1">
          <float_array count="72" id="cubeverts-array1-array">5.609999 -0.4350269 0.121 5.609999 -0.4350269 0.124 5.609999 -0.4190611 0.121 5.609999 -0.4170271 0.124 5.609999 -0.4195604 0.124 5.609999 -0.405027 0.134 5.609999 -0.405027 0.136 5.609999 -0.3930271 0.124 5.609999 -0.3903319 0.124 5.609999 -0.3908311 0.121 5.609999 -0.3750271 0.124 5.609999 -0.3750271 0.121 -4.890001 -0.4350269 0.121 -4.890001 -0.4350269 0.124 -4.890001 -0.4195604 0.124 -4.890001 -0.405027 0.136 -4.890001 -0.3903319 0.124 -4.890001 -0.3750271 0.124 -4.890001 -0.3750271 0.121 -4.890001 -0.3930271 0.124 -4.890001 -0.405027 0.134 -4.890001 -0.4170271 0.124 -4.890001 -0.4190611 0.121 -4.890001 -0.3908311 0.121</float_array>
          <technique_common>
            <accessor count="24" source="#cubeverts-array1-array" stride="3">
              <param type="float" name="X"/>
              <param type="float" name="Y"/>
              <param type="float" name="Z"/>
            </accessor>
          </technique_common>
        </source>
        <source id="cubenormals-array1">
          <float_array count="156" id="cubenormals-array1-array">-1 0 0 -1 0 0 0 0 0 -1 0 0 -1 -0 0 -1 0 0 -1 0 0 -1 0 0 -1 0 0 -1 0 0 1 0 -0 0 0 0 1 0 -0 1 -0 0 1 0 -0 1 0 -0 1 0 0 0 -1 0 0 -1 0 0 -0.6366972 0.7711139 0 -0.6366972 0.7711139 0 0.632503 0.7745578 0 0.632503 0.7745578 0 1 0 0 1 0 0 -0.6401873 -0.7682189 0 -0.6401873 -0.7682189 0 0.6401815 -0.7682236 0 0.6401815 -0.7682236 1 -0 0 0 0 1 0 0 1 0 0 1 0 0 1 0 0.8276958 -0.5611769 0 0.8276958 -0.5611769 0 0 -1 0 0 -1 0 0 -1 0 0 -1 0 -0.8069198 -0.5906609 0 -0.8069198 -0.5906609 -1 0 0 -1 0 0 0 0 0 -1 0 0 -1 -0 0 -1 0 -0 -1 -0 0 -1 -0 0 -1 0 0 -1 0 0</float_array>
          <technique_common>
            <accessor count="52" source="#cubenormals-array1-array" stride="3">
              <param type="float" name="X"/>
              <param type="float" name="Y"/>
              <param type="float" name="Z"/>
            </accessor>
          </technique_common>
        </source>
        <vertices id="cubeverts-array1-vertices">
          <input semantic="POSITION" source="#cubeverts-array1"/>
        </vertices>
        <triangles count="52" material="ref_Mesh001">
          <input offset="0" semantic="VERTEX" source="#cubeverts-array1-vertices"/>
          <input offset="1" semantic="NORMAL" source="#cubenormals-array1"/>
          <p>0 0 1 0 2 0 2 1 1 1 3 1 3 2 1 2 4 2 3 3 4 3 5 3 5 4 4 4 6 4 5 5 6 5 7 5 7 6 6 6 8 6 7 7 8 7 9 7 9 8 8 8 10 8 9 9 10 9 11 9 9 10 10 10 7 10 7 11 10 11 8 11 7 12 8 12 5 12 5 13 8 13 6 13 5 14 6 14 3 14 3 15 6 15 4 15 2 16 4 16 1 16 0 17 1 17 12 17 12 18 1 18 13 18 4 19 6 19 14 19 14 20 6 20 15 20 6 21 8 21 15 21 15 22 8 22 16 22 10 23 11 23 17 23 17 24 11 24 18 24 19 25 7 25 20 25 20 26 7 26 5 26 20 27 5 27 21 27 21 28 5 28 3 28 4 29 2 29 3 29 4 30 14 30 1 30 1 31 14 31 13 31 10 32 17 32 8 32 8 33 17 33 16 33 21 34 3 34 2 34 21 35 2 35 22 35 22 36 2 36 0 36 22 37 0 37 12 37 18 38 11 38 9 38 18 39 9 39 23 39 23 40 9 40 7 40 23 41 7 41 19 41 12 42 13 42 22 42 22 43 13 43 21 43 21 44 13 44 14 44 21 45 14 45 20 45 20 46 14 46 15 46 17 47 18 47 23 47 17 48 23 48 16 48 16 49 23 49 19 49 16 50 19 50 15 50 15 51 19 51 20 51</p>
        </triangles>
      </mesh>
    </geometry>
    <geometry id="geometry2" name="Mesh002">
      <mesh>
        <source id="cubeverts-array2">
          <float_array count="144" id="cubeverts-array2-array">-4.889999 0.3650808 0.07593439 -4.889999 0.3699999 0.07600002 5.610002 0.365081 0.07593488 5.610002 0.3699999 0.07600002 -4.889999 0.3649999 0.1209997 5.610002 0.365 0.1210002 -4.889999 0.4449998 0.1209997 5.610002 0.4449999 0.1210002 -4.889999 0.4449998 0.07593439 5.610002 0.4449999 0.07593488 -4.889999 0.4399999 0.07600002 5.610002 0.4399999 0.07600002 -4.889999 0.4399999 0.116 5.610002 0.4399999 0.116 -4.889999 0.3699999 0.116 5.610002 0.3699999 0.116 5.607535 0.4449392 0.3260003 5.60747 0.4400201 0.3260003 5.607535 0.4449391 0.1210002 5.60747 0.4400201 0.1210002 5.56247 0.4450202 0.3260003 5.56247 0.4450201 0.1210002 5.56247 0.3650202 0.3260003 5.56247 0.3650201 0.1210002 5.607535 0.3650202 0.3260003 5.607535 0.3650201 0.1210002 5.60747 0.3700201 0.3260003 5.60747 0.3700201 0.1210002 5.56747 0.3700201 0.3260003 5.56747 0.3700201 0.1210002 5.56747 0.4400201 0.3260003 5.56747 0.4400201 0.1210002 -4.885062 0.3650808 0.3260003 -4.884996 0.3699999 0.3260003 -4.885062 0.365081 0.1210002 -4.884998 0.3699999 0.1210002 -4.839996 0.3649999 0.3260003 -4.839996 0.365 0.1210002 -4.839996 0.4449998 0.3260003 -4.839996 0.445 0.1210002 -4.885062 0.4449998 0.3260003 -4.885062 0.4449999 0.1210002 -4.884996 0.4399999 0.3260003 -4.884998 0.4399999 0.1210002 -4.844996 0.4399999 0.3260003 -4.844997 0.4399999 0.1210002 -4.844996 0.3699999 0.3260003 -4.844997 0.3699999 0.1210002</float_array>
          <technique_common>
            <accessor count="48" source="#cubeverts-array2-array" stride="3">
              <param type="float" name="X"/>
              <param type="float" name="Y"/>
              <param type="float" name="Z"/>
            </accessor>
          </technique_common>
        </source>
        <source id="cubenormals-array2">
          <float_array count="252" id="cubenormals-array2-array">4.695394e-08 0.01334193 -0.999911 0 0.01324172 -0.9999123 1.171054e-08 -0.9999984 -0.001795893 2.042991e-08 -0.9999984 -0.001797925 -4.722958e-08 0 1 -4.722958e-08 0 1 -8.719308e-09 1 0 -8.719308e-09 1 0 0 -0.01312625 -0.9999139 4.73391e-08 -0.01302685 -0.9999152 0 -1 0 0 -1 -0 0 0 -1 0 0 -1 0 1 0 0 1 -0 -1 -0 0 -1 0 0 -1 0 0 -1 -0 0 -1 0 0 -1 -0 -0 1 -0 0 1 0 0 1 0 0 1 -0 0 1 0 0 1 -0 0 0.9999142 -0.01310151 5.851113e-09 0.9999142 -0.01310175 0 0.001797263 0.9999984 -4.465978e-07 0.001797263 0.9999984 -4.465994e-07 -1 0 -0 -1 0 0 0 -1 2.977323e-07 0 -1 2.977323e-07 0.9999169 0.01288979 0 0.9999169 0.01288963 -3.83766e-09 -0 1 0 0 1 0 1 0 0 1 0 0 -0 -1 -0 0 -1 0 0 -0 1 -0 0 1 0 0 1 0 0 1 0 0 1 0 -0 1 0 -0 -1 0 0 -1 0 0 -1 0 0 -1 0 0 -1 0 -0 -1 -0.9999102 0.0133993 1.396291e-08 -0.9999154 0.01300291 9.526629e-06 -0.001795869 -0.9999984 -5.954637e-07 -0.001797901 -0.9999984 -1.042086e-06 1 0 0 1 0 0 -0 1 4.465985e-07 -2.031529e-06 1 8.93197e-07 -0.9999131 -0.01318269 9.526605e-06 -0.9999182 -0.01279192 -5.698316e-09 -0 -1 0 0 -1 0 -1 0 4.763717e-06 -1 0 4.763717e-06 -0 1 0 0 1 0 0 0 1 0 -0 1 -0 0 1 0 0 1 0 0 1 0 0 1 0 0 -1 0 0 -1 0 0 -1 0 0 -1 0 0 -1 0 0 -1</float_array>
          <technique_common>
            <accessor count="84" source="#cubenormals-array2-array" stride="3">
              <param type="float" name="X"/>
              <param type="float" name="Y"/>
              <param type="float" name="Z"/>
            </accessor>
          </technique_common>
        </source>
        <vertices id="cubeverts-array2-vertices">
          <input semantic="POSITION" source="#cubeverts-array2"/>
        </vertices>
        <triangles count="84" material="ref_Mesh002">
          <input offset="0" semantic="VERTEX" source="#cubeverts-array2-vertices"/>
          <input offset="1" semantic="NORMAL" source="#cubenormals-array2"/>
          <p>0 0 1 0 2 0 2 1 1 1 3 1 4 2 0 2 5 2 5 3 0 3 2 3 6 4 4 4 7 4 7 5 4 5 5 5 8 6 6 6 9 6 9 7 6 7 7 7 10 8 8 8 11 8 11 9 8 9 9 9 12 10 10 10 13 10 13 11 10 11 11 11 14 12 12 12 15 12 15 13 12 13 13 13 1 14 14 14 3 14 3 15 14 15 15 15 1 16 0 16 4 16 12 17 6 17 10 17 8 18 10 18 6 18 6 19 12 19 4 19 4 20 12 20 14 20 14 21 1 21 4 21 11 22 9 22 7 22 5 23 2 23 3 23 5 24 3 24 15 24 5 25 15 25 7 25 7 26 15 26 13 26 13 27 11 27 7 27 16 28 17 28 18 28 18 29 17 29 19 29 20 30 16 30 21 30 21 31 16 31 18 31 22 32 20 32 23 32 23 33 20 33 21 33 24 34 22 34 25 34 25 35 22 35 23 35 26 36 24 36 27 36 27 37 24 37 25 37 28 38 26 38 29 38 29 39 26 39 27 39 30 40 28 40 31 40 31 41 28 41 29 41 17 42 30 42 19 42 19 43 30 43 31 43 17 44 16 44 20 44 28 45 22 45 26 45 24 46 26 46 22 46 22 47 28 47 20 47 20 48 28 48 30 48 30 49 17 49 20 49 27 50 25 50 23 50 21 51 18 51 19 51 21 52 19 52 31 52 21 53 31 53 23 53 23 54 31 54 29 54 29 55 27 55 23 55 32 56 33 56 34 56 34 57 33 57 35 57 36 58 32 58 37 58 37 59 32 59 34 59 38 60 36 60 39 60 39 61 36 61 37 61 40 62 38 62 41 62 41 63 38 63 39 63 42 64 40 64 43 64 43 65 40 65 41 65 44 66 42 66 45 66 45 67 42 67 43 67 46 68 44 68 47 68 47 69 44 69 45 69 33 70 46 70 35 70 35 71 46 71 47 71 33 72 32 72 36 72 44 73 38 73 42 73 40 74 42 74 38 74 38 75 44 75 36 75 36 76 44 76 46 76 46 77 33 77 36 77 43 78 41 78 39 78 37 79 34 79 35 79 37 80 35 80 47 80 37 81 47 81 39 81 39 82 47 82 45 82 45 83 43 83 39 83</p>
        </triangles>
      </mesh>
    </geometry>
    <geometry id="geometry3" name="Mesh003">
      <mesh>
        <source id="cubeverts-array3">
          <float_array count="72" id="cubeverts-array3-array">5.609999 0.3749731 0.121 5.609999 0.3749731 0.124 5.609999 0.3909389 0.121 5.609999 0.392973 0.124 5.609999 0.3904396 0.124 5.609999 0.404973 0.134 5.609999 0.404973 0.136 5.609999 0.4169729 0.124 5.609999 0.4196682 0.124 5.609999 0.4191689 0.121 5.609999 0.4349729 0.124 5.609999 0.4349729 0.121 -4.890001 0.3749731 0.121 -4.890001 0.3749731 0.124 -4.890001 0.3904396 0.124 -4.890001 0.404973 0.136 -4.890001 0.4196682 0.124 -4.890001 0.4349729 0.124 -4.890001 0.4349729 0.121 -4.890001 0.4169729 0.124 -4.890001 0.404973 0.134 -4.890001 0.3929729 0.124 -4.890001 0.3909389 0.121 -4.890001 0.4191689 0.121</float_array>
          <technique_common>
            <accessor count="24" source="#cubeverts-array3-array" stride="3">
              <param type="float" name="X"/>
              <param type="float" name="Y"/>
              <param type="float" name="Z"/>
            </accessor>
          </technique_common>
        </source>
        <source id="cubenormals-array3">
          <float_array count="156" id="cubenormals-array3-array">-1 0 0 -1 0 0 0 0 0 -1 0 0 -1 -0 0 -1 0 0 -1 0 0 -1 0 0 -1 0 0 -1 0 0 1 0 -0 0 0 0 1 0 -0 1 -0 0 1 0 -0 1 0 -0 1 0 0 0 -1 0 0 -1 0 0 -0.6366972 0.7711139 0 -0.6366972 0.7711139 0 0.6324999 0.7745605 0 0.6324999 0.7745605 0 1 0 0 1 0 0 -0.6401873 -0.7682189 0 -0.6401873 -0.7682189 0 0.6401815 -0.7682236 -5.581965e-09 0.6401844 -0.7682213 1 -0 0 0 0 1 0 0 1 0 0 1 0 0 1 -7.216833e-09 0.8276842 -0.5611942 0 0.8276958 -0.5611769 0 0 -1 0 0 -1 0 0 -1 0 0 -1 0 -0.8069198 -0.5906609 0 -0.8069198 -0.5906609 -1 0 0 -1 0 0 0 0 0 -1 0 0 -1 -0 0 -1 0 -0 -1 -0 0 -1 -0 0 -1 0 0 -1 0 0</float_array>
          <technique_common>
            <accessor count="52" source="#cubenormals-array3-array" stride="3">
              <param type="float" name="X"/>
              <param type="float" name="Y"/>
              <param type="float" name="Z"/>
            </accessor>
          </technique_common>
        </source>
        <vertices id="cubeverts-array3-vertices">
          <input semantic="POSITION" source="#cubeverts-array3"/>
        </vertices>
        <triangles count="52" material="ref_Mesh003">
          <input offset="0" semantic="VERTEX" source="#cubeverts-array3-vertices"/>
          <input offset="1" semantic="NORMAL" source="#cubenormals-array3"/>
          <p>0 0 1 0 2 0 2 1 1 1 3 1 3 2 1 2 4 2 3 3 4 3 5 3 5 4 4 4 6 4 5 5 6 5 7 5 7 6 6 6 8 6 7 7 8 7 9 7 9 8 8 8 10 8 9 9 10 9 11 9 9 10 10 10 7 10 7 11 10 11 8 11 7 12 8 12 5 12 5 13 8 13 6 13 5 14 6 14 3 14 3 15 6 15 4 15 2 16 4 16 1 16 0 17 1 17 12 17 12 18 1 18 13 18 4 19 6 19 14 19 14 20 6 20 15 20 6 21 8 21 15 21 15 22 8 22 16 22 10 23 11 23 17 23 17 24 11 24 18 24 19 25 7 25 20 25 20 26 7 26 5 26 20 27 5 27 21 27 21 28 5 28 3 28 4 29 2 29 3 29 4 30 14 30 1 30 1 31 14 31 13 31 10 32 17 32 8 32 8 33 17 33 16 33 21 34 3 34 2 34 21 35 2 35 22 35 22 36 2 36 0 36 22 37 0 37 12 37 18 38 11 38 9 38 18 39 9 39 23 39 23 40 9 40 7 40 23 41 7 41 19 41 12 42 13 42 22 42 22 43 13 43 21 43 21 44 13 44 14 44 21 45 14 45 20 45 20 46 14 46 15 46 17 47 18 47 23 47 17 48 23 48 16 48 16 49 23 49 19 49 16 50 19 50 15 50 15 51 19 51 20 51</p>
        </triangles>
      </mesh>
    </geometry>
    <geometry id="geometry4" name="Mesh004">
      <mesh>
        <source id="cubeverts-array4">
          <float_array count="24" id="cubeverts-array4-array">-0.2 -0.2 0.3 -0.2 0.2 0 -0.2 -0.2 0 -0.2 0.2 0.3 0.2 0.2 0 0.2 0.2 0.3 0.2 -0.2 0 0.2 -0.2 0.3</float_array>
          <technique_common>
            <accessor count="8" source="#cubeverts-array4-array" stride="3">
              <param type="float" name="X"/>
              <param type="float" name="Y"/>
              <param type="float" name="Z"/>
            </accessor>
          </technique_common>
        </source>
        <source id="cubenormals-array4">
          <float_array count="36" id="cubenormals-array4-array">-1 0 0 0 1 0 1 0 0 0 -1 -0 -0 0 -1 -0 0 1 -1 0 0 -0 1 0 1 0 0 -0 -1 0 0 -0 -1 0 0 1</float_array>
          <technique_common>
            <accessor count="12" source="#cubenormals-array4-array" stride="3">
              <param type="float" name="X"/>
              <param type="float" name="Y"/>
              <param type="float" name="Z"/>
            </accessor>
          </technique_common>
        </source>
        <vertices id="cubeverts-array4-vertices">
          <input semantic="POSITION" source="#cubeverts-array4"/>
        </vertices>
        <triangles count="12" material="ref_Mesh004">
          <input offset="0" semantic="VERTEX" source="#cubeverts-array4-vertices"/>
          <input offset="1" semantic="NORMAL" source="#cubenormals-array4"/>
          <p>0 0 1 0 2 0 3 1 4 1 1 1 5 2 6 2 4 2 7 3 2 3 6 3 4 4 2 4 1 4 3 5 7 5 5 5 0 6 3 6 1 6 3 7 5 7 4 7 5 8 7 8 6 8 7 9 0 9 2 9 4 10 6 10 2 10 3 11 0 11 7 11</p>
        </triangles>
      </mesh>
    </geometry>
    <geometry id="geometry5" name="Mesh005">
      <mesh>
        <source id="cubeverts-array5">
          <float_array count="126" id="cubeverts-array5-array">0 0 -0.02499997 0.01063305 -0.007725238 -0.02126634 -0.004061341 -0.01249986 -0.02126634 0.01809018 -0.01314312 -0.01118046 0.02126616 0 -0.01314336 -0.01314324 0 -0.02126628 -0.004061341 0.01249986 -0.02126634 0.01063305 0.007725238 -0.02126634 0.02377641 -0.007725298 0 -0.006909668 -0.02126622 -0.01118046 0.00657171 -0.02022528 -0.01314342 0 -0.02499997 0 -0.02236062 0 -0.01118034 -0.0172047 -0.01249986 -0.01314336 -0.02377641 -0.007725298 0 -0.006909668 0.02126622 -0.01118046 -0.0172047 0.01249986 -0.01314336 -0.01469463 0.0202254 0 0.01809018 0.01314312 -0.01118046 0.00657171 0.02022528 -0.01314342 0.01469463 0.0202254 0 0.01469463 -0.0202254 0 -0.01469463 -0.0202254 0 -0.02377641 0.007725298 0 0 0.02499997 0 0.02377641 0.007725298 0 0.006909668 -0.02126622 0.01118046 0.0172047 -0.01249986 0.01314336 0.004061341 -0.01249986 0.02126634 -0.01809018 -0.01314312 0.01118046 -0.00657171 -0.02022528 0.01314342 -0.01063305 -0.007725238 0.02126634 -0.01809018 0.01314312 0.01118046 -0.02126616 0 0.01314336 -0.01063305 0.007725238 0.02126634 0.006909668 0.02126622 0.01118046 -0.00657171 0.02022528 0.01314342 0.004061341 0.01249986 0.02126634 0.02236062 0 0.01118034 0.0172047 0.01249986 0.01314336 0.01314324 0 0.02126628 0 0 0.02499997</float_array>
          <technique_common>
            <accessor count="42" source="#cubeverts-array5-array" stride="3">
              <param type="float" name="X"/>
              <param type="float" name="Y"/>
              <param type="float" name="Z"/>
            </accessor>
          </technique_common>
        </source>
        <source id="cubenormals-array5">
          <float_array count="240" id="cubenormals-array5-array">0.1023815 -0.3150895 -0.9435235 0.7002244 -0.2680299 -0.6616991 -0.2680331 -0.1947376 -0.9435229 -0.2680331 0.1947376 -0.9435229 0.1023815 0.3150895 -0.9435235 0.9049898 -0.2680294 -0.3303841 0.02474634 -0.9435216 -0.3303857 -0.8896965 -0.3150953 -0.3303863 -0.5746033 0.748781 -0.3303907 0.534576 0.7778645 -0.3303867 0.80261 -0.5831255 -0.125626 -0.3065685 -0.9435217 -0.1256289 -0.9920773 0 -0.1256291 -0.3065685 0.9435217 -0.1256289 0.80261 0.5831255 -0.125626 0.4089488 -0.6284238 0.6616982 -0.4712994 -0.5831212 0.6616996 -0.7002244 0.2680299 0.6616991 0.03853131 0.7487789 0.6616989 0.7240443 0.194738 0.6616926 0.2680331 0.1947376 0.9435229 0.4911202 0.3568245 0.7946554 0.4089488 0.6284238 0.6616982 -0.1023815 0.3150896 0.9435235 -0.1875955 0.5773446 0.7946579 -0.4712995 0.5831212 0.6616996 -0.3313039 0 0.9435241 -0.6070623 0 0.7946542 -0.7002245 -0.2680299 0.6616991 -0.1023815 -0.3150895 0.9435235 -0.1875955 -0.5773446 0.7946579 0.03853131 -0.7487789 0.6616989 0.2680331 -0.1947376 0.9435229 0.4911202 -0.3568245 0.7946554 0.7240443 -0.194738 0.6616926 0.8896965 0.3150953 0.3303863 0.7946559 0.5773464 0.1875983 0.5746033 0.748781 0.3303907 -0.02474634 0.9435216 0.3303857 -0.3035305 0.9341717 0.187597 -0.5345759 0.7778645 0.3303867 -0.9049898 0.2680293 0.3303841 -0.9822456 0 0.1875991 -0.9049898 -0.2680293 0.3303841 -0.5345759 -0.7778645 0.3303867 -0.3035305 -0.9341717 0.187597 -0.02474634 -0.9435216 0.3303857 0.5746033 -0.748781 0.3303907 0.7946559 -0.5773464 0.1875983 0.8896965 -0.3150953 0.3303863 0.3065685 0.9435217 0.1256289 0.3035305 0.9341717 -0.187597 0.02474634 0.9435216 -0.3303857 -0.80261 0.5831255 0.125626 -0.7946559 0.5773464 -0.1875983 -0.8896965 0.3150954 -0.3303863 -0.80261 -0.5831255 0.125626 -0.7946559 -0.5773464 -0.1875983 -0.5746033 -0.748781 -0.3303907 0.3065685 -0.9435217 0.1256289 0.3035305 -0.9341717 -0.187597 0.534576 -0.7778645 -0.3303868 0.9920773 -0 0.1256291 0.9822456 0 -0.1875991 0.9049898 0.2680293 -0.3303841 0.4712995 0.5831213 -0.6616996 0.1875955 0.5773446 -0.7946579 -0.03853132 0.7487789 -0.6616989 -0.4089488 0.6284238 -0.6616982 -0.4911202 0.3568245 -0.7946554 -0.7240443 0.194738 -0.6616926 -0.7240443 -0.194738 -0.6616926 -0.4911202 -0.3568245 -0.7946554 -0.4089488 -0.6284238 -0.6616982 0.7002245 0.2680299 -0.6616991 0.6070623 0 -0.7946542 0.3313039 0 -0.9435241 -0.03853132 -0.7487789 -0.6616989 0.1875955 -0.5773446 -0.7946579 0.4712995 -0.5831213 -0.6616996</float_array>
          <technique_common>
            <accessor count="80" source="#cubenormals-array5-array" stride="3">
              <param type="float" name="X"/>
              <param type="float" name="Y"/>
              <param type="float" name="Z"/>
            </accessor>
          </technique_common>
        </source>
        <vertices id="cubeverts-array5-vertices">
          <input semantic="POSITION" source="#cubeverts-array5"/>
        </vertices>
        <triangles count="80" material="ref_Mesh005">
          <input offset="0" semantic="VERTEX" source="#cubeverts-array5-vertices"/>
          <input offset="1" semantic="NORMAL" source="#cubenormals-array5"/>
          <p>0 0 1 0 2 0 3 1 1 1 4 1 0 2 2 2 5 2 0 3 5 3 6 3 0 4 6 4 7 4 3 5 4 5 8 5 9 6 10 6 11 6 12 7 13 7 14 7 15 8 16 8 17 8 18 9 19 9 20 9 3 10 8 10 21 10 9 11 11 11 22 11 12 12 14 12 23 12 15 13 17 13 24 13 18 14 20 14 25 14 26 15 27 15 28 15 29 16 30 16 31 16 32 17 33 17 34 17 35 18 36 18 37 18 38 19 39 19 40 19 40 20 37 20 41 20 40 21 39 21 37 21 39 22 35 22 37 22 37 23 34 23 41 23 37 24 36 24 34 24 36 25 32 25 34 25 34 26 31 26 41 26 34 27 33 27 31 27 33 28 29 28 31 28 31 29 28 29 41 29 31 30 30 30 28 30 30 31 26 31 28 31 28 32 40 32 41 32 28 33 27 33 40 33 27 34 38 34 40 34 25 35 39 35 38 35 25 36 20 36 39 36 20 37 35 37 39 37 24 38 36 38 35 38 24 39 17 39 36 39 17 40 32 40 36 40 23 41 33 41 32 41 23 42 14 42 33 42 14 43 29 43 33 43 22 44 30 44 29 44 22 45 11 45 30 45 11 46 26 46 30 46 21 47 27 47 26 47 21 48 8 48 27 48 8 49 38 49 27 49 20 50 24 50 35 50 20 51 19 51 24 51 19 52 15 52 24 52 17 53 23 53 32 53 17 54 16 54 23 54 16 55 12 55 23 55 14 56 22 56 29 56 14 57 13 57 22 57 13 58 9 58 22 58 11 59 21 59 26 59 11 60 10 60 21 60 10 61 3 61 21 61 8 62 25 62 38 62 8 63 4 63 25 63 4 64 18 64 25 64 7 65 19 65 18 65 7 66 6 66 19 66 6 67 15 67 19 67 6 68 16 68 15 68 6 69 5 69 16 69 5 70 12 70 16 70 5 71 13 71 12 71 5 72 2 72 13 72 2 73 9 73 13 73 4 74 7 74 18 74 4 75 1 75 7 75 1 76 0 76 7 76 2 77 10 77 9 77 2 78 1 78 10 78 1 79 3 79 10 79</p>
        </triangles>
      </mesh>
    </geometry>
    <geometry id="geometry6" name="Mesh006">
      <mesh>
        <source id="cubeverts-array6">
          <float_array count="126" id="cubeverts-array6-array">0 0 -0.01874995 0.007974743 -0.005793929 -0.01594972 -0.003046035 -0.009374856 -0.01594972 0.01356762 -0.009857296 -0.008385361 0.0159496 0 -0.009857535 -0.009857416 0 -0.01594972 -0.003046035 0.009374856 -0.01594972 0.007974743 0.005793929 -0.01594972 0.01783227 -0.005793929 0 -0.005182266 -0.01594966 -0.008385361 0.004928767 -0.01516896 -0.009857535 0 -0.01874995 0 -0.01677048 0 -0.008385241 -0.01290351 -0.009374916 -0.009857535 -0.01783227 -0.005793929 0 -0.005182266 0.01594966 -0.008385361 -0.01290351 0.009374916 -0.009857535 -0.01102095 0.01516902 0 0.01356762 0.009857296 -0.008385361 0.004928767 0.01516896 -0.009857535 0.01102095 0.01516902 0 0.01102095 -0.01516902 0 -0.01102095 -0.01516902 0 -0.01783227 0.005793929 0 0 0.01874995 0 0.01783227 0.005793929 0 0.005182266 -0.01594966 0.008385361 0.01290351 -0.009374916 0.009857535 0.003046035 -0.009374856 0.01594972 -0.01356762 -0.009857296 0.008385361 -0.004928767 -0.01516896 0.009857535 -0.007974743 -0.005793929 0.01594972 -0.01356762 0.009857296 0.008385361 -0.0159496 0 0.009857535 -0.007974743 0.005793929 0.01594972 0.005182266 0.01594966 0.008385361 -0.004928767 0.01516896 0.009857535 0.003046035 0.009374856 0.01594972 0.01677048 0 0.008385241 0.01290351 0.009374916 0.009857535 0.009857416 0 0.01594972 0 0 0.01874995</float_array>
          <technique_common>
            <accessor count="42" source="#cubeverts-array6-array" stride="3">
              <param type="float" name="X"/>
              <param type="float" name="Y"/>
              <param type="float" name="Z"/>
            </accessor>
          </technique_common>
        </source>
        <source id="cubenormals-array6">
          <float_array count="240" id="cubenormals-array6-array">0.1023811 -0.3150915 -0.9435229 0.7002211 -0.2680303 -0.6617025 -0.2680299 -0.1947394 -0.9435235 -0.2680299 0.1947394 -0.9435235 0.1023811 0.3150915 -0.9435229 0.9049909 -0.2680297 -0.3303812 0.02474784 -0.9435222 -0.3303835 -0.8896976 -0.3150979 -0.3303812 -0.5746048 0.7487819 -0.330386 0.5345775 0.7778637 -0.3303859 0.8026112 -0.5831242 -0.1256247 -0.3065694 -0.9435219 -0.1256249 -0.9920781 0 -0.1256228 -0.3065694 0.9435219 -0.1256249 0.8026112 0.5831242 -0.1256247 0.4089458 -0.6284215 0.661702 -0.4712985 -0.5831202 0.6617013 -0.7002211 0.2680303 0.6617025 0.0385295 0.7487754 0.6617031 0.724044 0.1947377 0.6616929 0.2680299 0.1947394 0.9435235 0.4911172 0.3568254 0.7946569 0.4089458 0.6284215 0.661702 -0.1023811 0.3150915 0.9435229 -0.1875934 0.5773436 0.794659 -0.4712985 0.5831202 0.6617013 -0.3313063 0 0.9435233 -0.607058 0 0.7946575 -0.7002211 -0.2680303 0.6617025 -0.1023811 -0.3150915 0.9435229 -0.1875934 -0.5773436 0.794659 0.0385295 -0.7487754 0.6617031 0.2680299 -0.1947394 0.9435235 0.4911171 -0.3568254 0.7946569 0.724044 -0.1947377 0.6616929 0.8896976 0.3150979 0.3303812 0.7946576 0.5773456 0.1875935 0.5746048 0.7487819 0.330386 -0.02474784 0.9435223 0.3303835 -0.3035314 0.9341717 0.187595 -0.5345775 0.7778637 0.3303859 -0.9049909 0.2680297 0.3303812 -0.982246 0 0.1875972 -0.9049909 -0.2680297 0.3303812 -0.5345775 -0.7778637 0.3303859 -0.3035314 -0.9341717 0.187595 -0.02474784 -0.9435223 0.3303835 0.5746048 -0.7487819 0.330386 0.7946576 -0.5773456 0.1875935 0.8896976 -0.3150979 0.3303812 0.3065694 0.9435219 0.1256249 0.3035314 0.9341717 -0.187595 0.02474784 0.9435222 -0.3303835 -0.8026112 0.583124 0.1256247 -0.7946576 0.5773456 -0.1875935 -0.8896976 0.3150979 -0.3303812 -0.8026112 -0.583124 0.1256247 -0.7946576 -0.5773456 -0.1875935 -0.5746048 -0.7487819 -0.330386 0.3065694 -0.9435219 0.1256249 0.3035314 -0.9341717 -0.187595 0.5345775 -0.7778637 -0.3303859 0.9920781 -0 0.1256228 0.982246 0 -0.1875972 0.9049908 0.2680297 -0.3303812 0.4712985 0.5831202 -0.6617013 0.1875934 0.5773436 -0.794659 -0.03852947 0.7487754 -0.6617031 -0.4089458 0.6284216 -0.661702 -0.4911171 0.3568254 -0.7946569 -0.724044 0.1947377 -0.6616929 -0.724044 -0.1947377 -0.6616929 -0.4911172 -0.3568254 -0.7946569 -0.4089458 -0.6284216 -0.661702 0.7002211 0.2680303 -0.6617025 0.607058 0 -0.7946575 0.3313063 0 -0.9435233 -0.03852947 -0.7487754 -0.6617031 0.1875934 -0.5773436 -0.794659 0.4712985 -0.5831202 -0.6617013</float_array>
          <technique_common>
            <accessor count="80" source="#cubenormals-array6-array" stride="3">
              <param type="float" name="X"/>
              <param type="float" name="Y"/>
              <param type="float" name="Z"/>
            </accessor>
          </technique_common>
        </source>
        <vertices id="cubeverts-array6-vertices">
          <input semantic="POSITION" source="#cubeverts-array6"/>
        </vertices>
        <triangles count="80" material="ref_Mesh006">
          <input offset="0" semantic="VERTEX" source="#cubeverts-array6-vertices"/>
          <input offset="1" semantic="NORMAL" source="#cubenormals-array6"/>
          <p>0 0 1 0 2 0 3 1 1 1 4 1 0 2 2 2 5 2 0 3 5 3 6 3 0 4 6 4 7 4 3 5 4 5 8 5 9 6 10 6 11 6 12 7 13 7 14 7 15 8 16 8 17 8 18 9 19 9 20 9 3 10 8 10 21 10 9 11 11 11 22 11 12 12 14 12 23 12 15 13 17 13 24 13 18 14 20 14 25 14 26 15 27 15 28 15 29 16 30 16 31 16 32 17 33 17 34 17 35 18 36 18 37 18 38 19 39 19 40 19 40 20 37 20 41 20 40 21 39 21 37 21 39 22 35 22 37 22 37 23 34 23 41 23 37 24 36 24 34 24 36 25 32 25 34 25 34 26 31 26 41 26 34 27 33 27 31 27 33 28 29 28 31 28 31 29 28 29 41 29 31 30 30 30 28 30 30 31 26 31 28 31 28 32 40 32 41 32 28 33 27 33 40 33 27 34 38 34 40 34 25 35 39 35 38 35 25 36 20 36 39 36 20 37 35 37 39 37 24 38 36 38 35 38 24 39 17 39 36 39 17 40 32 40 36 40 23 41 33 41 32 41 23 42 14 42 33 42 14 43 29 43 33 43 22 44 30 44 29 44 22 45 11 45 30 45 11 46 26 46 30 46 21 47 27 47 26 47 21 48 8 48 27 48 8 49 38 49 27 49 20 50 24 50 35 50 20 51 19 51 24 51 19 52 15 52 24 52 17 53 23 53 32 53 17 54 16 54 23 54 16 55 12 55 23 55 14 56 22 56 29 56 14 57 13 57 22 57 13 58 9 58 22 58 11 59 21 59 26 59 11 60 10 60 21 60 10 61 3 61 21 61 8 62 25 62 38 62 8 63 4 63 25 63 4 64 18 64 25 64 7 65 19 65 18 65 7 66 6 66 19 66 6 67 15 67 19 67 6 68 16 68 15 68 6 69 5 69 16 69 5 70 12 70 16 70 5 71 13 71 12 71 5 72 2 72 13 72 2 73 9 73 13 73 4 74 7 74 18 74 4 75 1 75 7 75 1 76 0 76 7 76 2 77 10 77 9 77 2 78 1 78 10 78 1 79 3 79 10 79</p>
        </triangles>
      </mesh>
    </geometry>
    <geometry id="geometry7" name="Mesh007">
      <mesh>
        <source id="cubeverts-array7">
          <float_array count="312" id="cubeverts-array7-array">0.326 -0.09000003 0.026 0.326 -0.0324999 0.006 0.326 -0.0324999 0.026 0.3199999 -0.09000003 0.026 0.3199999 -0.0324999 0.026 0.326 -0.09000003 0.006 0.3199999 -0.0324999 0.006 0.3199999 -0.09000003 0.006 0.3199999 -0.16 0.026 0.326 -0.16 0.006 0.326 -0.16 0.026 0.326 -0.1024999 0.026 0.3199999 -0.1024999 0.026 0.3199999 -0.1024999 0.006 0.326 -0.1024999 0.006 0.3199999 -0.16 0.006 0.326 -0.1724999 0.026 0.3199999 -0.1724999 0.006 0.3199999 -0.1724999 0.026 0.3199999 -0.23 0.026 0.3199999 -0.23 0.006 0.326 -0.23 0.006 0.326 -0.1724999 0.006 0.326 -0.23 0.026 -0.32 0.24 0.01499999 -0.3199999 0.07999992 0.00399999 -0.32 0.24 0.00399999 -0.3199999 0.07999992 0.01499999 -0.326 0.07999992 0.00399999 -0.326 0.07999992 0.01499999 -0.326 0.24 0.00399999 -0.326 0.24 0.01499999 -0.32 0 0.026 -0.3199999 -0.23 0.01999999 -0.32 0 0.01999999 -0.3199999 -0.23 0.026 -0.326 -0.23 0.01999999 -0.326 -0.23 0.026 -0.326 0 0.01999999 -0.326 0 0.026 0.2599999 0.1999999 0.001999998 0.2599999 0.24 0 0.2599999 0.1999999 0 0.2599999 0.24 0.001999998 0.3 0.24 0 0.3 0.24 0.001999998 0.3 0.1999999 0 0.3 0.1999999 0.001999998 0.2599999 -0.23 0.001999998 0.2599999 -0.1899999 0 0.2599999 -0.23 0 0.2599999 -0.1899999 0.001999998 0.3 -0.1899999 0 0.3 -0.1899999 0.001999998 0.3 -0.23 0 0.3 -0.23 0.001999998 -0.3 0.1999999 0.001999998 -0.3 0.24 0 -0.3 0.1999999 0 -0.3 0.24 0.001999998 -0.26 0.24 0 -0.26 0.24 0.001999998 -0.26 0.1999999 0 -0.26 0.1999999 0.001999998 -0.3 -0.23 0.001999998 -0.3 -0.1899999 0 -0.3 -0.23 0 -0.3 -0.1899999 0.001999998 -0.26 -0.1899999 0 -0.26 -0.1899999 0.001999998 -0.26 -0.23 0 -0.26 -0.23 0.001999998 0.326 -0.01999998 0.026 0.326 0.03750002 0.006 0.326 0.03750002 0.026 0.3199999 -0.01999998 0.026 0.3199999 0.03750002 0.026 0.326 -0.01999998 0.006 0.3199999 0.03750002 0.006 0.3199999 -0.01999998 0.006 0.326 0.04999995 0.026 0.326 0.1075 0.006 0.326 0.1075 0.026 0.3199999 0.04999995 0.026 0.3199999 0.1075 0.026 0.326 0.04999995 0.006 0.3199999 0.1075 0.006 0.3199999 0.04999995 0.006 0.326 0.12 0.026 0.326 0.1775 0.006 0.326 0.1775 0.026 0.3199999 0.12 0.026 0.3199999 0.1775 0.026 0.326 0.12 0.006 0.3199999 0.1775 0.006 0.3199999 0.12 0.006 0.326 0.1999999 0.026 0.326 0.2475 0.021 0.326 0.2475 0.026 0.3199999 0.1999999 0.026 0.3199999 0.2475 0.026 0.326 0.1999999 0.021 0.3199999 0.2475 0.021 0.3199999 0.1999999 0.021</float_array>
          <technique_common>
            <accessor count="104" source="#cubeverts-array7-array" stride="3">
              <param type="float" name="X"/>
              <param type="float" name="Y"/>
              <param type="float" name="Z"/>
            </accessor>
          </technique_common>
        </source>
        <source id="cubenormals-array7">
          <float_array count="468" id="cubenormals-array7-array">1 -0 0 0 0 1 0 -1 0 0 0 -1 -1 0 0 0 1 0 0 -1 0 0 0 1 0 1 0 0 0 -1 1 -0 0 -1 0 0 0 1 0 0 0 1 -1 0 0 0 0 -1 0 -1 0 1 -0 0 1 5.722043e-07 0 0 -1 -0 -1 0 0 0 1 0 0 0 -1 0 0 1 1 3.980554e-07 0 0 -1 -0 -1 0 0 0 1 0 0 0 -1 0 0 1 -1 0 0 0 1 0 1 0 0 0 -1 -0 -0 0 -1 -0 0 1 -1 0 0 0 1 0 1 0 0 0 -1 -0 -0 0 -1 -0 0 1 -1 0 0 0 1 0 1 0 0 0 -1 -0 -0 0 -1 -0 0 1 -1 0 0 0 1 0 1 0 0 0 -1 -0 -0 0 -1 -0 0 1 1 -0 0 0 0 1 0 -1 0 0 0 -1 -1 0 0 0 1 0 1 -0 0 0 0 1 0 -1 0 0 0 -1 -1 0 0 0 1 0 1 -0 0 0 0 1 0 -1 0 0 0 -1 -1 0 0 0 1 0 1 -0 0 0 0 1 0 -1 0 0 0 -1 -1 0 0 0 1 0 1 0 0 0 0 1 0 -1 0 0 0 -1 -1 0 0 0 1 0 0 -1 0 0 0 1 0 1 0 0 0 -1 1 0 0 -1 0 0 0 1 0 0 0 1 -1 0 0 0 0 -1 0 -1 0 1 0 0 1 5.722043e-07 0 -0 -1 0 -1 0 0 -0 1 0 0 0 -1 0 0 1 1 3.980554e-07 0 -0 -1 0 -1 0 0 -0 1 0 0 0 -1 0 0 1 -1 0 0 -0 1 0 1 0 0 -0 -1 0 0 -0 -1 0 0 1 -1 0 0 -0 1 0 1 0 0 -0 -1 0 0 -0 -1 0 0 1 -1 0 0 -0 1 0 1 0 0 -0 -1 0 0 -0 -1 0 0 1 -1 0 0 -0 1 0 1 0 0 -0 -1 0 0 -0 -1 0 0 1 1 0 0 0 0 1 0 -1 0 0 0 -1 -1 0 0 0 1 0 1 0 0 0 0 1 0 -1 0 0 0 -1 -1 0 0 0 1 0 1 0 0 0 0 1 0 -1 0 0 0 -1 -1 0 0 0 1 0 1 0 0 0 0 1 0 -1 0 0 0 -1 -1 0 0 0 1 0</float_array>
          <technique_common>
            <accessor count="156" source="#cubenormals-array7-array" stride="3">
              <param type="float" name="X"/>
              <param type="float" name="Y"/>
              <param type="float" name="Z"/>
            </accessor>
          </technique_common>
        </source>
        <vertices id="cubeverts-array7-vertices">
          <input semantic="POSITION" source="#cubeverts-array7"/>
        </vertices>
        <triangles count="156" material="ref_Mesh007">
          <input offset="0" semantic="VERTEX" source="#cubeverts-array7-vertices"/>
          <input offset="1" semantic="NORMAL" source="#cubenormals-array7"/>
          <p>0 0 1 0 2 0 3 1 2 1 4 1 3 2 5 2 0 2 5 3 6 3 1 3 7 4 4 4 6 4 2 5 6 5 4 5 8 6 9 6 10 6 8 7 11 7 12 7 11 8 13 8 12 8 9 9 13 9 14 9 10 10 14 10 11 10 15 11 12 11 13 11 16 12 17 12 18 12 19 13 16 13 18 13 20 14 18 14 17 14 21 15 17 15 22 15 19 16 21 16 23 16 23 17 22 17 16 17 24 18 25 18 26 18 27 19 28 19 25 19 29 20 30 20 28 20 31 21 26 21 30 21 28 22 26 22 25 22 29 23 24 23 31 23 32 24 33 24 34 24 35 25 36 25 33 25 37 26 38 26 36 26 39 27 34 27 38 27 36 28 34 28 33 28 35 29 39 29 37 29 40 30 41 30 42 30 43 31 44 31 41 31 45 32 46 32 44 32 47 33 42 33 46 33 44 34 42 34 41 34 43 35 47 35 45 35 48 36 49 36 50 36 51 37 52 37 49 37 53 38 54 38 52 38 55 39 50 39 54 39 52 40 50 40 49 40 51 41 55 41 53 41 56 42 57 42 58 42 59 43 60 43 57 43 61 44 62 44 60 44 63 45 58 45 62 45 60 46 58 46 57 46 59 47 63 47 61 47 64 48 65 48 66 48 67 49 68 49 65 49 69 50 70 50 68 50 71 51 66 51 70 51 68 52 66 52 65 52 67 53 71 53 69 53 72 54 73 54 74 54 75 55 74 55 76 55 75 56 77 56 72 56 77 57 78 57 73 57 79 58 76 58 78 58 74 59 78 59 76 59 80 60 81 60 82 60 83 61 82 61 84 61 83 62 85 62 80 62 85 63 86 63 81 63 87 64 84 64 86 64 82 65 86 65 84 65 88 66 89 66 90 66 91 67 90 67 92 67 91 68 93 68 88 68 93 69 94 69 89 69 95 70 92 70 94 70 90 71 94 71 92 71 96 72 97 72 98 72 99 73 98 73 100 73 99 74 101 74 96 74 101 75 102 75 97 75 103 76 100 76 102 76 98 77 102 77 100 77 0 78 5 78 1 78 3 79 0 79 2 79 3 80 7 80 5 80 5 81 7 81 6 81 7 82 3 82 4 82 2 83 1 83 6 83 8 84 15 84 9 84 8 85 10 85 11 85 11 86 14 86 13 86 9 87 15 87 13 87 10 88 9 88 14 88 15 89 8 89 12 89 16 90 22 90 17 90 19 91 23 91 16 91 20 92 19 92 18 92 21 93 20 93 17 93 19 94 20 94 21 94 23 95 21 95 22 95 24 96 27 96 25 96 27 97 29 97 28 97 29 98 31 98 30 98 31 99 24 99 26 99 28 100 30 100 26 100 29 101 27 101 24 101 32 102 35 102 33 102 35 103 37 103 36 103 37 104 39 104 38 104 39 105 32 105 34 105 36 106 38 106 34 106 35 107 32 107 39 107 40 108 43 108 41 108 43 109 45 109 44 109 45 110 47 110 46 110 47 111 40 111 42 111 44 112 46 112 42 112 43 113 40 113 47 113 48 114 51 114 49 114 51 115 53 115 52 115 53 116 55 116 54 116 55 117 48 117 50 117 52 118 54 118 50 118 51 119 48 119 55 119 56 120 59 120 57 120 59 121 61 121 60 121 61 122 63 122 62 122 63 123 56 123 58 123 60 124 62 124 58 124 59 125 56 125 63 125 64 126 67 126 65 126 67 127 69 127 68 127 69 128 71 128 70 128 71 129 64 129 66 129 68 130 70 130 66 130 67 131 64 131 71 131 72 132 77 132 73 132 75 133 72 133 74 133 75 134 79 134 77 134 77 135 79 135 78 135 79 136 75 136 76 136 74 137 73 137 78 137 80 138 85 138 81 138 83 139 80 139 82 139 83 140 87 140 85 140 85 141 87 141 86 141 87 142 83 142 84 142 82 143 81 143 86 143 88 144 93 144 89 144 91 145 88 145 90 145 91 146 95 146 93 146 93 147 95 147 94 147 95 148 91 148 92 148 90 149 89 149 94 149 96 150 101 150 97 150 99 151 96 151 98 151 99 152 103 152 101 152 101 153 103 153 102 153 103 154 99 154 100 154 98 155 97 155 102 155</p>
        </triangles>
      </mesh>
    </geometry>
    <geometry id="geometry8" name="Mesh008">
      <mesh>
        <source id="cubeverts-array8">
          <float_array count="24" id="cubeverts-array8-array">0.325 -0.25 0.001999998 -0.325 0.26 0.001999998 0.325 0.2599999 0.002000004 -0.325 -0.25 0.028 -0.325 0.26 0.028 0.325 0.26 0.028 0.325 -0.25 0.028 -0.325 -0.25 0.001999992</float_array>
          <technique_common>
            <accessor count="8" source="#cubeverts-array8-array" stride="3">
              <param type="float" name="X"/>
              <param type="float" name="Y"/>
              <param type="float" name="Z"/>
            </accessor>
          </technique_common>
        </source>
        <source id="cubenormals-array8">
          <float_array count="36" id="cubenormals-array8-array">9.353346e-09 1.192093e-08 -1 -1 0 0 0 0 1 1 -0 0 1.408504e-07 1 0 0 -1 0 9.353344e-09 1.192093e-08 -1 -1 -0 0 0 0 1 1 0 0 0 1 -3.521259e-06 0 -1 0</float_array>
          <technique_common>
            <accessor count="12" source="#cubenormals-array8-array" stride="3">
              <param type="float" name="X"/>
              <param type="float" name="Y"/>
              <param type="float" name="Z"/>
            </accessor>
          </technique_common>
        </source>
        <vertices id="cubeverts-array8-vertices">
          <input semantic="POSITION" source="#cubeverts-array8"/>
        </vertices>
        <triangles count="12" material="ref_Mesh008">
          <input offset="0" semantic="VERTEX" source="#cubeverts-array8-vertices"/>
          <input offset="1" semantic="NORMAL" source="#cubenormals-array8"/>
          <p>0 0 1 0 2 0 1 1 3 1 4 1 3 2 5 2 4 2 6 3 2 3 5 3 4 4 2 4 1 4 7 5 6 5 3 5 0 6 7 6 1 6 1 7 7 7 3 7 3 8 6 8 5 8 6 9 0 9 2 9 4 10 5 10 2 10 7 11 0 11 6 11</p>
        </triangles>
      </mesh>
    </geometry>
  </library_geometries>
  <library_materials>
    <material id="mat_Mesh" name="Mesh">
      <instance_effect url="#effect_Mesh"/>
    </material>
    <material id="mat_Mesh001" name="Mesh001">
      <instance_effect url="#effect_Mesh001"/>
    </material>
    <material id="mat_Mesh002" name="Mesh002">
      <instance_effect url="#effect_Mesh002"/>
    </material>
    <material id="mat_Mesh003" name="Mesh003">
      <instance_effect url="#effect_Mesh003"/>
    </material>
    <material id="mat_Mesh004" name="Mesh004">
      <instance_effect url="#effect_Mesh004"/>
    </material>
    <material id="mat_Mesh005" name="Mesh005">
      <instance_effect url="#effect_Mesh005"/>
    </material>
    <material id="mat_Mesh006" name="Mesh006">
      <instance_effect url="#effect_Mesh006"/>
    </material>
    <material id="mat_Mesh007" name="Mesh007">
      <instance_effect url="#effect_Mesh007"/>
    </material>
    <material id="mat_Mesh008" name="Mesh008">
      <instance_effect url="#effect_Mesh008"/>
    </material>
  </library_materials>
  <library_visual_scenes>
    <visual_scene id="myscene">
      <node id="node0" name="node0">
        <instance_geometry url="#geometry0">
          <bind_material>
            <technique_common>
              <instance_material symbol="ref_Mesh" target="#mat_Mesh"/>
            </technique_common>
          </bind_material>
        </instance_geometry>
      </node>
      <node id="node1" name="node1">
        <instance_geometry url="#geometry1">
          <bind_material>
            <technique_common>
              <instance_material symbol="ref_Mesh001" target="#mat_Mesh001"/>
            </technique_common>
          </bind_material>
        </instance_geometry>
      </node>
      <node id="node2" name="node2">
        <instance_geometry url="#geometry2">
          <bind_material>
            <technique_common>
              <instance_material symbol="ref_Mesh002" target="#mat_Mesh002"/>
            </technique_common>
          </bind_material>
        </instance_geometry>
      </node>
      <node id="node3" name="node3">
        <instance_geometry url="#geometry3">
          <bind_material>
            <technique_common>
              <instance_material symbol="ref_Mesh003" target="#mat_Mesh003"/>
            </technique_common>
          </bind_material>
        </instance_geometry>
      </node>
      <node id="node4" name="node4">
        <instance_geometry url="#geometry4">
          <bind_material>
            <technique_common>
              <instance_material symbol="ref_Mesh004" target="#mat_Mesh004"/>
            </technique_common>
          </bind_material>
        </instance_geometry>
      </node>
      <node id="node5" name="node5">
        <instance_geometry url="#geometry5">
          <bind_material>
            <technique_common>
              <instance_material symbol="ref_Mesh005" target="#mat_Mesh005"/>
            </technique_common>
          </bind_material>
        </instance_geometry>
      </node>
      <node id="node6" name="node6">
        <instance_geometry url="#geometry6">
          <bind_material>
            <technique_common>
              <instance_material symbol="ref_Mesh006" target="#mat_Mesh006"/>
            </technique_common>
          </bind_material>
        </instance_geometry>
      </node>
      <node id="node7" name="node7">
        <instance_geometry url="#geometry7">
          <bind_material>
            <technique_common>
              <instance_material symbol="ref_Mesh007" target="#mat_Mesh007"/>
            </technique_common>
          </bind_material>
        </instance_geometry>
      </node>
      <node id="node8" name="node8">
        <instance_geometry url="#geometry8">
          <bind_material>
            <technique_common>
              <instance_material symbol="ref_Mesh008" target="#mat_Mesh008"/>
            </technique_common>
          </bind_material>
        </instance_geometry>
      </node>
    </visual_scene>
  </library_visual_scenes>
  <scene>
    <instance_visual_scene url="#myscene"/>
  </scene>
</COLLADA>
