<COLLADA xmlns="http://www.collada.org/2005/11/COLLADASchema" version="1.4.1">
  <asset>
    <contributor/>
    <created>2025-02-05T13:00:58.650738</created>
    <modified>2025-02-05T13:00:58.650738</modified>
    <unit name="meter" meter="1.0"/>
    <up_axis>Z_UP</up_axis>
  </asset>
  <library_effects>
    <effect id="effect_Body" name="effect_Body">
      <profile_COMMON>
        <technique sid="common">
          <phong>
            <emission>
              <color>0.0 0.0 0.0 1.0</color>
            </emission>
            <ambient>
              <color>0.0 0.0 0.0 1.0</color>
            </ambient>
            <diffuse>
              <color>0.4470588266849518 0.4745098054409027 0.501960813999176 1.0</color>
            </diffuse>
            <specular>
              <color>1 1 1 1.0</color>
            </specular>
            <shininess>
              <float>0.0</float>
            </shininess>
            <reflective>
              <color>0.0 0.0 0.0 1.0</color>
            </reflective>
            <reflectivity>
              <float>0.0</float>
            </reflectivity>
            <transparent>
              <color>0.0 0.0 0.0 1.0</color>
            </transparent>
            <transparency>
              <float>1.0</float>
            </transparency>
          </phong>
        </technique>
        <extra>
          <technique profile="GOOGLEEARTH">
            <double_sided>0</double_sided>
          </technique>
        </extra>
      </profile_COMMON>
    </effect>
  </library_effects>
  <library_geometries>
    <geometry id="geometry0" name="Body">
      <mesh>
        <source id="cubeverts-array0">
          <float_array count="96" id="cubeverts-array0-array">0.5275 -0.3525 -0.035 -0.5275 -0.3525 0 -0.5275 -0.3525 -0.035 0.5275 -0.3525 0 -0.5275 0.3525 0 -0.5275 0.3525 -0.035 0.5275 0.3525 -0.035 0.5275 0.3525 0 -0.0245 -0.2225 0 -0.4145 -0.2225 0 -0.4145 0.2225 0 -0.0245 0.2225 0 -0.52 0.3475 -0.035 -0.52 -0.3475 -0.035 0.52 -0.3475 -0.035 0.52 0.3475 -0.035 -0.4145 0.2225 0.062 -0.4145 -0.2225 0.062 -0.3645 -0.2225 0.062 -0.0805 -0.2225 0.066 -0.2135 -0.2225 0.323 -0.0805 -0.2225 0.323 -0.0245 -0.2225 0.066 -0.0245 0.2225 0.066 -0.0805 0.2225 0.323 -0.0805 0.2225 0.066 -0.2135 0.2225 0.323 -0.3645 0.2225 0.062 -0.52 -0.3475 -0.66 -0.52 0.3475 -0.66 0.52 -0.3475 -0.66 0.52 0.3475 -0.66</float_array>
          <technique_common>
            <accessor count="32" source="#cubeverts-array0-array" stride="3">
              <param type="float" name="X"/>
              <param type="float" name="Y"/>
              <param type="float" name="Z"/>
            </accessor>
          </technique_common>
        </source>
        <source id="cubenormals-array0">
          <float_array count="180" id="cubenormals-array0-array">0 -1 0 -0 -1 -0 -1 0 0 -1 0 0 1 0 0 1 0 0 0 0 1 0 0 1 0 0 1 0 0 1 0 0 1 0 0 1 0 0 1 0 0 1 0 0 -1 0 0 -1 -0 -0 -1 0 -0 -1 0 0 -1 0 0 -1 0 0 -1 0 0 -1 0 1 0 -0 1 0 -1 0 0 -1 -0 0 0 -1 0 0 -1 0 0 -1 0 0 -1 0 0 -1 0 0 -1 0 1 0 0 1 -0 0 0 1 0 0 1 0 0 1 0 0 1 0 0 1 0 0 1 0 -1 0 0 -1 0 0 0 -1 -0 -0 -1 0 1 0 0 1 0 0 0 1 0 -0 1 0 0 0 1 -0 0 1 0 0 1 -0 0 1 1 -0 0 1 0 0 0 0 1 0 0 1 -0.8655776 0 0.5007748 -0.8655776 0 0.5007748 0 0 -1 0 0 -1</float_array>
          <technique_common>
            <accessor count="60" source="#cubenormals-array0-array" stride="3">
              <param type="float" name="X"/>
              <param type="float" name="Y"/>
              <param type="float" name="Z"/>
            </accessor>
          </technique_common>
        </source>
        <vertices id="cubeverts-array0-vertices">
          <input semantic="POSITION" source="#cubeverts-array0"/>
        </vertices>
        <triangles count="60" material="ref_Body">
          <input offset="0" semantic="VERTEX" source="#cubeverts-array0-vertices"/>
          <input offset="1" semantic="NORMAL" source="#cubenormals-array0"/>
          <p>0 0 1 0 2 0 3 1 1 1 0 1 2 2 4 2 5 2 1 3 4 3 2 3 6 4 3 4 0 4 7 5 3 5 6 5 8 6 9 6 1 6 4 7 9 7 10 7 4 8 1 8 9 8 3 9 8 9 1 9 11 10 4 10 10 10 7 11 11 11 8 11 7 12 8 12 3 12 7 13 4 13 11 13 5 14 12 14 2 14 2 15 12 15 13 15 14 16 0 16 13 16 13 17 0 17 2 17 15 18 6 18 14 18 14 19 6 19 0 19 5 20 6 20 12 20 12 21 6 21 15 21 5 22 7 22 6 22 4 23 7 23 5 23 10 24 9 24 16 24 16 25 9 25 17 25 17 26 9 26 18 26 18 27 19 27 20 27 20 28 19 28 21 28 9 29 19 29 18 29 19 30 8 30 22 30 9 31 8 31 19 31 8 32 11 32 22 32 22 33 11 33 23 33 24 34 25 34 26 34 23 35 11 35 25 35 25 36 27 36 26 36 27 37 10 37 16 37 11 38 10 38 25 38 25 39 10 39 27 39 13 40 12 40 28 40 28 41 12 41 29 41 14 42 28 42 30 42 14 43 13 43 28 43 15 44 14 44 31 44 31 45 14 45 30 45 12 46 31 46 29 46 12 47 15 47 31 47 17 48 18 48 16 48 16 49 18 49 27 49 19 50 22 50 25 50 25 51 22 51 23 51 21 52 19 52 24 52 24 53 19 53 25 53 26 54 20 54 21 54 24 55 26 55 21 55 27 56 18 56 26 56 18 57 20 57 26 57 29 58 31 58 28 58 28 59 31 59 30 59</p>
        </triangles>
      </mesh>
    </geometry>
  </library_geometries>
  <library_materials>
    <material id="mat_Body" name="Body">
      <instance_effect url="#effect_Body"/>
    </material>
  </library_materials>
  <library_visual_scenes>
    <visual_scene id="myscene">
      <node id="node0" name="node0">
        <instance_geometry url="#geometry0">
          <bind_material>
            <technique_common>
              <instance_material symbol="ref_Body" target="#mat_Body"/>
            </technique_common>
          </bind_material>
        </instance_geometry>
      </node>
    </visual_scene>
  </library_visual_scenes>
  <scene>
    <instance_visual_scene url="#myscene"/>
  </scene>
</COLLADA>
